<mxfile host="Electron" modified="2024-01-29T16:36:05.278Z" agent="Mozilla/5.0 (Windows NT 10.0; Win64; x64) AppleWebKit/537.36 (KHTML, like Gecko) draw.io/22.1.21 Chrome/120.0.6099.109 Electron/28.1.0 Safari/537.36" etag="WTeKzhF3SrgGjwIjMLjA" version="22.1.21" type="device" pages="3">
  <diagram name="正向代理与反向代理" id="0m_W_Ndx3ehYj7rrMlOF">
    <mxGraphModel dx="2074" dy="1245" grid="1" gridSize="10" guides="1" tooltips="1" connect="1" arrows="1" fold="1" page="1" pageScale="1" pageWidth="827" pageHeight="1169" math="0" shadow="0">
      <root>
        <mxCell id="0" />
        <mxCell id="1" parent="0" />
        <mxCell id="sGBcT1AtjiU2wJL2Nf5J-10" value="" style="rounded=0;whiteSpace=wrap;html=1;" parent="1" vertex="1">
          <mxGeometry x="361" y="210" width="410" height="182.5" as="geometry" />
        </mxCell>
        <mxCell id="sGBcT1AtjiU2wJL2Nf5J-3" value="&lt;h1&gt;反向代理&lt;/h1&gt;&lt;p&gt;在反向代理中，代理服务器代替了目标服务器来响应客户端的请求。客户端发送请求给代理服务器，代理服务器根据负载均衡或其他规则将请求转发给一个或多个后端服务器，并将最终的响应返回给客户端。客户端通常不知道实际提供服务的是哪个后端服务器。&lt;/p&gt;&lt;p&gt;客户端 -&amp;gt; 代理服务器 -&amp;gt; 后端服务器&lt;/p&gt;" style="text;html=1;strokeColor=none;fillColor=none;spacing=5;spacingTop=-20;whiteSpace=wrap;overflow=hidden;rounded=0;" parent="1" vertex="1">
          <mxGeometry x="60" y="50" width="570" height="130" as="geometry" />
        </mxCell>
        <mxCell id="sGBcT1AtjiU2wJL2Nf5J-41" value="" style="edgeStyle=orthogonalEdgeStyle;rounded=0;orthogonalLoop=1;jettySize=auto;html=1;" parent="1" source="sGBcT1AtjiU2wJL2Nf5J-6" target="sGBcT1AtjiU2wJL2Nf5J-30" edge="1">
          <mxGeometry relative="1" as="geometry" />
        </mxCell>
        <mxCell id="sGBcT1AtjiU2wJL2Nf5J-6" value="" style="fontColor=#0066CC;verticalAlign=top;verticalLabelPosition=bottom;labelPosition=center;align=center;html=1;outlineConnect=0;fillColor=#CCCCCC;strokeColor=#6881B3;gradientColor=none;gradientDirection=north;strokeWidth=2;shape=mxgraph.networks.monitor;" parent="1" vertex="1">
          <mxGeometry x="51" y="240" width="80" height="65" as="geometry" />
        </mxCell>
        <mxCell id="sGBcT1AtjiU2wJL2Nf5J-8" value="" style="fontColor=#0066CC;verticalAlign=top;verticalLabelPosition=bottom;labelPosition=center;align=center;html=1;outlineConnect=0;fillColor=#CCCCCC;strokeColor=#6881B3;gradientColor=none;gradientDirection=north;strokeWidth=2;shape=mxgraph.networks.server;" parent="1" vertex="1">
          <mxGeometry x="621" y="277.5" width="70" height="67.5" as="geometry" />
        </mxCell>
        <mxCell id="sGBcT1AtjiU2wJL2Nf5J-11" value="外网用户" style="text;html=1;align=center;verticalAlign=middle;resizable=0;points=[];autosize=1;strokeColor=none;fillColor=none;" parent="1" vertex="1">
          <mxGeometry x="51" y="386.25" width="70" height="30" as="geometry" />
        </mxCell>
        <mxCell id="sGBcT1AtjiU2wJL2Nf5J-12" value="公司内网" style="text;html=1;align=center;verticalAlign=middle;resizable=0;points=[];autosize=1;strokeColor=none;fillColor=none;" parent="1" vertex="1">
          <mxGeometry x="371" y="220" width="70" height="30" as="geometry" />
        </mxCell>
        <mxCell id="sGBcT1AtjiU2wJL2Nf5J-14" value="" style="endArrow=classic;html=1;rounded=0;exitX=0.91;exitY=0.5;exitDx=0;exitDy=0;exitPerimeter=0;entryX=0.171;entryY=0.548;entryDx=0;entryDy=0;entryPerimeter=0;" parent="1" target="sGBcT1AtjiU2wJL2Nf5J-10" edge="1">
          <mxGeometry width="50" height="50" relative="1" as="geometry">
            <mxPoint x="282.9000000000001" y="310" as="sourcePoint" />
            <mxPoint x="211" y="311" as="targetPoint" />
          </mxGeometry>
        </mxCell>
        <mxCell id="sGBcT1AtjiU2wJL2Nf5J-15" value="" style="endArrow=classic;html=1;rounded=0;exitX=1;exitY=0.7;exitDx=0;exitDy=0;exitPerimeter=0;" parent="1" target="sGBcT1AtjiU2wJL2Nf5J-8" edge="1">
          <mxGeometry width="50" height="50" relative="1" as="geometry">
            <mxPoint x="511" y="309.5" as="sourcePoint" />
            <mxPoint x="441" y="320" as="targetPoint" />
          </mxGeometry>
        </mxCell>
        <mxCell id="sGBcT1AtjiU2wJL2Nf5J-17" value="" style="rounded=0;whiteSpace=wrap;html=1;" parent="1" vertex="1">
          <mxGeometry x="56" y="580" width="370" height="180" as="geometry" />
        </mxCell>
        <mxCell id="sGBcT1AtjiU2wJL2Nf5J-19" value="" style="fontColor=#0066CC;verticalAlign=top;verticalLabelPosition=bottom;labelPosition=center;align=center;html=1;outlineConnect=0;fillColor=#CCCCCC;strokeColor=#6881B3;gradientColor=none;gradientDirection=north;strokeWidth=2;shape=mxgraph.networks.monitor;" parent="1" vertex="1">
          <mxGeometry x="112" y="630" width="80" height="65" as="geometry" />
        </mxCell>
        <mxCell id="sGBcT1AtjiU2wJL2Nf5J-21" value="" style="fontColor=#0066CC;verticalAlign=top;verticalLabelPosition=bottom;labelPosition=center;align=center;html=1;outlineConnect=0;fillColor=#CCCCCC;strokeColor=#6881B3;gradientColor=none;gradientDirection=north;strokeWidth=2;shape=mxgraph.networks.server;" parent="1" vertex="1">
          <mxGeometry x="677" y="621.25" width="70" height="67.5" as="geometry" />
        </mxCell>
        <mxCell id="sGBcT1AtjiU2wJL2Nf5J-23" value="内网用户" style="text;html=1;align=center;verticalAlign=middle;resizable=0;points=[];autosize=1;strokeColor=none;fillColor=none;" parent="1" vertex="1">
          <mxGeometry x="112" y="698" width="70" height="30" as="geometry" />
        </mxCell>
        <mxCell id="sGBcT1AtjiU2wJL2Nf5J-24" value="公司内网" style="text;html=1;align=center;verticalAlign=middle;resizable=0;points=[];autosize=1;strokeColor=none;fillColor=none;" parent="1" vertex="1">
          <mxGeometry x="356" y="580" width="70" height="30" as="geometry" />
        </mxCell>
        <mxCell id="sGBcT1AtjiU2wJL2Nf5J-26" value="" style="endArrow=classic;html=1;rounded=0;exitX=0.91;exitY=0.5;exitDx=0;exitDy=0;exitPerimeter=0;" parent="1" edge="1">
          <mxGeometry width="50" height="50" relative="1" as="geometry">
            <mxPoint x="607.9000000000001" y="662.5" as="sourcePoint" />
            <mxPoint x="676" y="663" as="targetPoint" />
          </mxGeometry>
        </mxCell>
        <mxCell id="sGBcT1AtjiU2wJL2Nf5J-27" value="" style="edgeStyle=orthogonalEdgeStyle;rounded=0;orthogonalLoop=1;jettySize=auto;html=1;" parent="1" source="sGBcT1AtjiU2wJL2Nf5J-19" target="sGBcT1AtjiU2wJL2Nf5J-36" edge="1">
          <mxGeometry relative="1" as="geometry">
            <mxPoint x="192" y="660" as="sourcePoint" />
            <mxPoint x="286" y="663.25" as="targetPoint" />
          </mxGeometry>
        </mxCell>
        <mxCell id="sGBcT1AtjiU2wJL2Nf5J-28" value="" style="endArrow=classic;html=1;rounded=0;exitX=1;exitY=0.7;exitDx=0;exitDy=0;exitPerimeter=0;" parent="1" edge="1">
          <mxGeometry width="50" height="50" relative="1" as="geometry">
            <mxPoint x="366" y="663.25" as="sourcePoint" />
            <mxPoint x="526" y="662.6646341463415" as="targetPoint" />
          </mxGeometry>
        </mxCell>
        <mxCell id="sGBcT1AtjiU2wJL2Nf5J-29" value="baidu.com" style="text;html=1;align=center;verticalAlign=middle;resizable=0;points=[];autosize=1;strokeColor=none;fillColor=none;" parent="1" vertex="1">
          <mxGeometry x="672" y="698" width="80" height="30" as="geometry" />
        </mxCell>
        <mxCell id="sGBcT1AtjiU2wJL2Nf5J-30" value="" style="image;html=1;image=img/lib/clip_art/general/Earth_globe_128x128.png" parent="1" vertex="1">
          <mxGeometry x="230" y="276.25" width="80" height="80" as="geometry" />
        </mxCell>
        <mxCell id="sGBcT1AtjiU2wJL2Nf5J-31" value="" style="image;html=1;image=img/lib/clip_art/general/Earth_globe_128x128.png" parent="1" vertex="1">
          <mxGeometry x="526" y="622.5" width="80" height="80" as="geometry" />
        </mxCell>
        <mxCell id="sGBcT1AtjiU2wJL2Nf5J-32" value="Internet" style="text;html=1;align=center;verticalAlign=middle;resizable=0;points=[];autosize=1;strokeColor=none;fillColor=none;" parent="1" vertex="1">
          <mxGeometry x="211" y="348" width="60" height="30" as="geometry" />
        </mxCell>
        <mxCell id="sGBcT1AtjiU2wJL2Nf5J-33" value="Internet" style="text;html=1;align=center;verticalAlign=middle;resizable=0;points=[];autosize=1;strokeColor=none;fillColor=none;" parent="1" vertex="1">
          <mxGeometry x="536" y="702.5" width="60" height="30" as="geometry" />
        </mxCell>
        <mxCell id="sGBcT1AtjiU2wJL2Nf5J-34" value="" style="verticalLabelPosition=bottom;sketch=0;aspect=fixed;html=1;verticalAlign=top;strokeColor=none;align=center;outlineConnect=0;shape=mxgraph.citrix.proxy_server;" parent="1" vertex="1">
          <mxGeometry x="430" y="266.25" width="76.5" height="90" as="geometry" />
        </mxCell>
        <mxCell id="sGBcT1AtjiU2wJL2Nf5J-35" value="Proxy Server/Gateway" style="text;html=1;align=center;verticalAlign=middle;resizable=0;points=[];autosize=1;strokeColor=none;fillColor=none;" parent="1" vertex="1">
          <mxGeometry x="391" y="356.25" width="140" height="30" as="geometry" />
        </mxCell>
        <mxCell id="sGBcT1AtjiU2wJL2Nf5J-36" value="" style="verticalLabelPosition=bottom;sketch=0;aspect=fixed;html=1;verticalAlign=top;strokeColor=none;align=center;outlineConnect=0;shape=mxgraph.citrix.proxy_server;" parent="1" vertex="1">
          <mxGeometry x="290" y="620.73" width="71" height="83.53" as="geometry" />
        </mxCell>
        <mxCell id="sGBcT1AtjiU2wJL2Nf5J-37" value="Proxy Server/Gateway" style="text;html=1;align=center;verticalAlign=middle;resizable=0;points=[];autosize=1;strokeColor=none;fillColor=none;" parent="1" vertex="1">
          <mxGeometry x="251" y="710" width="140" height="30" as="geometry" />
        </mxCell>
        <mxCell id="sGBcT1AtjiU2wJL2Nf5J-39" value="" style="edgeStyle=orthogonalEdgeStyle;rounded=0;orthogonalLoop=1;jettySize=auto;html=1;entryX=0;entryY=0.5;entryDx=0;entryDy=0;" parent="1" source="sGBcT1AtjiU2wJL2Nf5J-38" target="sGBcT1AtjiU2wJL2Nf5J-30" edge="1">
          <mxGeometry relative="1" as="geometry">
            <Array as="points">
              <mxPoint x="180" y="353" />
              <mxPoint x="180" y="316" />
            </Array>
          </mxGeometry>
        </mxCell>
        <mxCell id="sGBcT1AtjiU2wJL2Nf5J-38" value="" style="sketch=0;aspect=fixed;pointerEvents=1;shadow=0;dashed=0;html=1;strokeColor=none;labelPosition=center;verticalLabelPosition=bottom;verticalAlign=top;align=center;fillColor=#00188D;shape=mxgraph.mscae.enterprise.android_phone" parent="1" vertex="1">
          <mxGeometry x="76" y="328" width="30" height="50" as="geometry" />
        </mxCell>
        <mxCell id="YSeJyfFEKLtf4VftRSc_-1" value="&lt;h1&gt;正向代理&lt;/h1&gt;&lt;p&gt;在正向代理中，代理服务器代表客户端向其他服务器发出请求。客户端将请求发送到代理服务器，然后代理服务器再将请求发送给目标服务器，最终将目标服务器的响应返回给客户端。客户端知道自己在使用代理，而目标服务器通常不知道请求是由代理发起的。&lt;/p&gt;&lt;p&gt;客户端 -&amp;gt; 代理服务器 -&amp;gt; 目标服务器&lt;/p&gt;" style="text;html=1;strokeColor=none;fillColor=none;spacing=5;spacingTop=-20;whiteSpace=wrap;overflow=hidden;rounded=0;" parent="1" vertex="1">
          <mxGeometry x="60" y="440" width="570" height="130" as="geometry" />
        </mxCell>
        <mxCell id="YSeJyfFEKLtf4VftRSc_-3" value="关键区别在于代理的角色和信息流向。在正向代理中，代理位于客户端和目标服务器之间，而在反向代理中，代理位于客户端和多个后端服务器之间。" style="text;html=1;align=center;verticalAlign=middle;resizable=0;points=[];autosize=1;strokeColor=none;fillColor=none;" parent="1" vertex="1">
          <mxGeometry x="20" y="818" width="820" height="30" as="geometry" />
        </mxCell>
      </root>
    </mxGraphModel>
  </diagram>
  <diagram id="qoUGwxX3IKP5j6X9VLLf" name="负载均衡-轮询">
    <mxGraphModel dx="2074" dy="1245" grid="1" gridSize="10" guides="1" tooltips="1" connect="1" arrows="1" fold="1" page="1" pageScale="1" pageWidth="827" pageHeight="1169" math="0" shadow="0">
      <root>
        <mxCell id="0" />
        <mxCell id="1" parent="0" />
        <mxCell id="9Nam0ZBtYEzTyTNqd5ne-2" value="&lt;h1&gt;负载均衡——轮询&lt;/h1&gt;&lt;p&gt;轮询是一种顺序性的负载均衡算法。每个请求都按照服务器列表的顺序被分发，直到所有的服务器都被循环遍历一次，然后再从头开始。&lt;br&gt;&lt;/p&gt;" style="text;html=1;strokeColor=none;fillColor=none;spacing=5;spacingTop=-20;whiteSpace=wrap;overflow=hidden;rounded=0;" parent="1" vertex="1">
          <mxGeometry x="70" y="50" width="280" height="100" as="geometry" />
        </mxCell>
        <mxCell id="9Nam0ZBtYEzTyTNqd5ne-3" value="" style="edgeStyle=orthogonalEdgeStyle;rounded=0;orthogonalLoop=1;jettySize=auto;html=1;" parent="1" source="9Nam0ZBtYEzTyTNqd5ne-4" target="9Nam0ZBtYEzTyTNqd5ne-16" edge="1">
          <mxGeometry relative="1" as="geometry">
            <mxPoint x="110" y="296.29999999999995" as="targetPoint" />
            <Array as="points">
              <mxPoint x="230" y="253" />
              <mxPoint x="230" y="294" />
            </Array>
          </mxGeometry>
        </mxCell>
        <mxCell id="9Nam0ZBtYEzTyTNqd5ne-4" value="" style="fontColor=#0066CC;verticalAlign=top;verticalLabelPosition=bottom;labelPosition=center;align=center;html=1;outlineConnect=0;fillColor=#CCCCCC;strokeColor=#6881B3;gradientColor=none;gradientDirection=north;strokeWidth=2;shape=mxgraph.networks.monitor;" parent="1" vertex="1">
          <mxGeometry x="80" y="220" width="80" height="65" as="geometry" />
        </mxCell>
        <mxCell id="9Nam0ZBtYEzTyTNqd5ne-9" value="" style="endArrow=classic;html=1;rounded=0;exitX=1;exitY=0.7;exitDx=0;exitDy=0;exitPerimeter=0;entryX=0;entryY=0.5;entryDx=0;entryDy=0;entryPerimeter=0;" parent="1" target="9Nam0ZBtYEzTyTNqd5ne-22" edge="1">
          <mxGeometry width="50" height="50" relative="1" as="geometry">
            <mxPoint x="391" y="289.5" as="sourcePoint" />
            <mxPoint x="511" y="288.8771626297578" as="targetPoint" />
          </mxGeometry>
        </mxCell>
        <mxCell id="9Nam0ZBtYEzTyTNqd5ne-13" value="Proxy Server（Nginx）" style="text;html=1;align=center;verticalAlign=middle;resizable=0;points=[];autosize=1;strokeColor=none;fillColor=none;" parent="1" vertex="1">
          <mxGeometry x="280" y="336.25" width="150" height="30" as="geometry" />
        </mxCell>
        <mxCell id="9Nam0ZBtYEzTyTNqd5ne-14" value="" style="edgeStyle=orthogonalEdgeStyle;rounded=0;orthogonalLoop=1;jettySize=auto;html=1;" parent="1" source="9Nam0ZBtYEzTyTNqd5ne-15" target="9Nam0ZBtYEzTyTNqd5ne-16" edge="1">
          <mxGeometry relative="1" as="geometry">
            <Array as="points">
              <mxPoint x="230" y="361" />
              <mxPoint x="230" y="294" />
            </Array>
            <mxPoint x="110" y="296.25" as="targetPoint" />
          </mxGeometry>
        </mxCell>
        <mxCell id="9Nam0ZBtYEzTyTNqd5ne-15" value="" style="sketch=0;aspect=fixed;pointerEvents=1;shadow=0;dashed=0;html=1;strokeColor=none;labelPosition=center;verticalLabelPosition=bottom;verticalAlign=top;align=center;fillColor=#00188D;shape=mxgraph.mscae.enterprise.android_phone" parent="1" vertex="1">
          <mxGeometry x="105" y="336.25" width="30" height="50" as="geometry" />
        </mxCell>
        <mxCell id="9Nam0ZBtYEzTyTNqd5ne-16" value="" style="sketch=0;pointerEvents=1;shadow=0;dashed=0;html=1;strokeColor=none;fillColor=#005F4B;labelPosition=center;verticalLabelPosition=bottom;verticalAlign=top;align=center;outlineConnect=0;shape=mxgraph.veeam2.proxy_server;" parent="1" vertex="1">
          <mxGeometry x="310" y="257.5" width="70" height="72.5" as="geometry" />
        </mxCell>
        <mxCell id="9Nam0ZBtYEzTyTNqd5ne-20" value="" style="fontColor=#0066CC;verticalAlign=top;verticalLabelPosition=bottom;labelPosition=center;align=center;html=1;outlineConnect=0;fillColor=#CCCCCC;strokeColor=#6881B3;gradientColor=none;gradientDirection=north;strokeWidth=2;shape=mxgraph.networks.server;" parent="1" vertex="1">
          <mxGeometry x="580" y="366.25" width="49" height="63.75" as="geometry" />
        </mxCell>
        <mxCell id="9Nam0ZBtYEzTyTNqd5ne-21" value="" style="fontColor=#0066CC;verticalAlign=top;verticalLabelPosition=bottom;labelPosition=center;align=center;html=1;outlineConnect=0;fillColor=#CCCCCC;strokeColor=#6881B3;gradientColor=none;gradientDirection=north;strokeWidth=2;shape=mxgraph.networks.server;" parent="1" vertex="1">
          <mxGeometry x="580" y="257.5" width="49" height="63.75" as="geometry" />
        </mxCell>
        <mxCell id="9Nam0ZBtYEzTyTNqd5ne-22" value="" style="fontColor=#0066CC;verticalAlign=top;verticalLabelPosition=bottom;labelPosition=center;align=center;html=1;outlineConnect=0;fillColor=#CCCCCC;strokeColor=#6881B3;gradientColor=none;gradientDirection=north;strokeWidth=2;shape=mxgraph.networks.server;" parent="1" vertex="1">
          <mxGeometry x="580" y="140" width="49" height="63.75" as="geometry" />
        </mxCell>
        <mxCell id="9Nam0ZBtYEzTyTNqd5ne-23" value="" style="endArrow=classic;html=1;rounded=0;" parent="1" target="9Nam0ZBtYEzTyTNqd5ne-21" edge="1">
          <mxGeometry width="50" height="50" relative="1" as="geometry">
            <mxPoint x="390" y="290" as="sourcePoint" />
            <mxPoint x="521" y="182" as="targetPoint" />
          </mxGeometry>
        </mxCell>
        <mxCell id="9Nam0ZBtYEzTyTNqd5ne-24" value="" style="endArrow=classic;html=1;rounded=0;entryX=0;entryY=0.5;entryDx=0;entryDy=0;entryPerimeter=0;" parent="1" target="9Nam0ZBtYEzTyTNqd5ne-20" edge="1">
          <mxGeometry width="50" height="50" relative="1" as="geometry">
            <mxPoint x="390" y="290" as="sourcePoint" />
            <mxPoint x="521" y="299" as="targetPoint" />
          </mxGeometry>
        </mxCell>
        <mxCell id="9Nam0ZBtYEzTyTNqd5ne-25" value="轮询访问" style="text;html=1;align=center;verticalAlign=middle;resizable=0;points=[];autosize=1;strokeColor=none;fillColor=none;" parent="1" vertex="1">
          <mxGeometry x="460" y="190" width="70" height="30" as="geometry" />
        </mxCell>
        <mxCell id="9Nam0ZBtYEzTyTNqd5ne-26" value="轮询访问" style="text;html=1;align=center;verticalAlign=middle;resizable=0;points=[];autosize=1;strokeColor=none;fillColor=none;" parent="1" vertex="1">
          <mxGeometry x="460" y="257.5" width="70" height="30" as="geometry" />
        </mxCell>
        <mxCell id="9Nam0ZBtYEzTyTNqd5ne-27" value="轮询访问" style="text;html=1;align=center;verticalAlign=middle;resizable=0;points=[];autosize=1;strokeColor=none;fillColor=none;" parent="1" vertex="1">
          <mxGeometry x="460" y="366.25" width="70" height="30" as="geometry" />
        </mxCell>
        <mxCell id="9Nam0ZBtYEzTyTNqd5ne-28" value="server 1" style="text;html=1;align=center;verticalAlign=middle;resizable=0;points=[];autosize=1;strokeColor=none;fillColor=none;" parent="1" vertex="1">
          <mxGeometry x="629" y="160" width="70" height="30" as="geometry" />
        </mxCell>
        <mxCell id="9Nam0ZBtYEzTyTNqd5ne-29" value="server 2" style="text;html=1;align=center;verticalAlign=middle;resizable=0;points=[];autosize=1;strokeColor=none;fillColor=none;" parent="1" vertex="1">
          <mxGeometry x="629" y="274.38" width="70" height="30" as="geometry" />
        </mxCell>
        <mxCell id="9Nam0ZBtYEzTyTNqd5ne-30" value="server 3" style="text;html=1;align=center;verticalAlign=middle;resizable=0;points=[];autosize=1;strokeColor=none;fillColor=none;" parent="1" vertex="1">
          <mxGeometry x="629" y="386.25" width="70" height="30" as="geometry" />
        </mxCell>
      </root>
    </mxGraphModel>
  </diagram>
  <diagram name="keepalived高可用" id="tvylVZv8YDdBuRj6DqxF">
    <mxGraphModel dx="2074" dy="1245" grid="1" gridSize="10" guides="1" tooltips="1" connect="1" arrows="1" fold="1" page="1" pageScale="1" pageWidth="827" pageHeight="1169" math="0" shadow="0">
      <root>
        <mxCell id="21_gmykhIOu26JGh-Btz-0" />
        <mxCell id="21_gmykhIOu26JGh-Btz-1" parent="21_gmykhIOu26JGh-Btz-0" />
        <mxCell id="21_gmykhIOu26JGh-Btz-3" value="" style="edgeStyle=orthogonalEdgeStyle;rounded=0;orthogonalLoop=1;jettySize=auto;html=1;" edge="1" parent="21_gmykhIOu26JGh-Btz-1" source="21_gmykhIOu26JGh-Btz-4">
          <mxGeometry relative="1" as="geometry">
            <mxPoint x="300" y="395.25" as="targetPoint" />
            <Array as="points">
              <mxPoint x="220" y="354.25" />
              <mxPoint x="220" y="395.25" />
            </Array>
          </mxGeometry>
        </mxCell>
        <mxCell id="21_gmykhIOu26JGh-Btz-4" value="" style="fontColor=#0066CC;verticalAlign=top;verticalLabelPosition=bottom;labelPosition=center;align=center;html=1;outlineConnect=0;fillColor=#CCCCCC;strokeColor=#6881B3;gradientColor=none;gradientDirection=north;strokeWidth=2;shape=mxgraph.networks.monitor;" vertex="1" parent="21_gmykhIOu26JGh-Btz-1">
          <mxGeometry x="70" y="321.25" width="80" height="65" as="geometry" />
        </mxCell>
        <mxCell id="21_gmykhIOu26JGh-Btz-5" value="" style="endArrow=classic;html=1;rounded=0;exitX=1;exitY=0.7;exitDx=0;exitDy=0;exitPerimeter=0;entryX=0;entryY=0.5;entryDx=0;entryDy=0;entryPerimeter=0;" edge="1" parent="21_gmykhIOu26JGh-Btz-1" target="21_gmykhIOu26JGh-Btz-12">
          <mxGeometry width="50" height="50" relative="1" as="geometry">
            <mxPoint x="941" y="384.5" as="sourcePoint" />
            <mxPoint x="1061" y="383.8771626297578" as="targetPoint" />
          </mxGeometry>
        </mxCell>
        <mxCell id="21_gmykhIOu26JGh-Btz-7" value="" style="edgeStyle=orthogonalEdgeStyle;rounded=0;orthogonalLoop=1;jettySize=auto;html=1;" edge="1" parent="21_gmykhIOu26JGh-Btz-1" source="21_gmykhIOu26JGh-Btz-8">
          <mxGeometry relative="1" as="geometry">
            <Array as="points">
              <mxPoint x="220" y="462.25" />
              <mxPoint x="220" y="395.25" />
            </Array>
            <mxPoint x="300" y="395.25" as="targetPoint" />
          </mxGeometry>
        </mxCell>
        <mxCell id="21_gmykhIOu26JGh-Btz-8" value="" style="sketch=0;aspect=fixed;pointerEvents=1;shadow=0;dashed=0;html=1;strokeColor=none;labelPosition=center;verticalLabelPosition=bottom;verticalAlign=top;align=center;fillColor=#00188D;shape=mxgraph.mscae.enterprise.android_phone" vertex="1" parent="21_gmykhIOu26JGh-Btz-1">
          <mxGeometry x="95" y="437.5" width="30" height="50" as="geometry" />
        </mxCell>
        <mxCell id="21_gmykhIOu26JGh-Btz-10" value="" style="fontColor=#0066CC;verticalAlign=top;verticalLabelPosition=bottom;labelPosition=center;align=center;html=1;outlineConnect=0;fillColor=#CCCCCC;strokeColor=#6881B3;gradientColor=none;gradientDirection=north;strokeWidth=2;shape=mxgraph.networks.server;" vertex="1" parent="21_gmykhIOu26JGh-Btz-1">
          <mxGeometry x="1230" y="461.25" width="49" height="63.75" as="geometry" />
        </mxCell>
        <mxCell id="21_gmykhIOu26JGh-Btz-11" value="" style="fontColor=#0066CC;verticalAlign=top;verticalLabelPosition=bottom;labelPosition=center;align=center;html=1;outlineConnect=0;fillColor=#CCCCCC;strokeColor=#6881B3;gradientColor=none;gradientDirection=north;strokeWidth=2;shape=mxgraph.networks.server;" vertex="1" parent="21_gmykhIOu26JGh-Btz-1">
          <mxGeometry x="1230" y="352.5" width="49" height="63.75" as="geometry" />
        </mxCell>
        <mxCell id="21_gmykhIOu26JGh-Btz-12" value="" style="fontColor=#0066CC;verticalAlign=top;verticalLabelPosition=bottom;labelPosition=center;align=center;html=1;outlineConnect=0;fillColor=#CCCCCC;strokeColor=#6881B3;gradientColor=none;gradientDirection=north;strokeWidth=2;shape=mxgraph.networks.server;" vertex="1" parent="21_gmykhIOu26JGh-Btz-1">
          <mxGeometry x="1230" y="235" width="49" height="63.75" as="geometry" />
        </mxCell>
        <mxCell id="21_gmykhIOu26JGh-Btz-13" value="" style="endArrow=classic;html=1;rounded=0;" edge="1" parent="21_gmykhIOu26JGh-Btz-1" target="21_gmykhIOu26JGh-Btz-11">
          <mxGeometry width="50" height="50" relative="1" as="geometry">
            <mxPoint x="940" y="385" as="sourcePoint" />
            <mxPoint x="1071" y="277" as="targetPoint" />
          </mxGeometry>
        </mxCell>
        <mxCell id="21_gmykhIOu26JGh-Btz-14" value="" style="endArrow=classic;html=1;rounded=0;entryX=0;entryY=0.5;entryDx=0;entryDy=0;entryPerimeter=0;" edge="1" parent="21_gmykhIOu26JGh-Btz-1" target="21_gmykhIOu26JGh-Btz-10">
          <mxGeometry width="50" height="50" relative="1" as="geometry">
            <mxPoint x="940" y="385" as="sourcePoint" />
            <mxPoint x="1071" y="394" as="targetPoint" />
          </mxGeometry>
        </mxCell>
        <mxCell id="21_gmykhIOu26JGh-Btz-15" value="轮询访问" style="text;html=1;align=center;verticalAlign=middle;resizable=0;points=[];autosize=1;strokeColor=none;fillColor=none;" vertex="1" parent="21_gmykhIOu26JGh-Btz-1">
          <mxGeometry x="1070" y="281.25" width="70" height="30" as="geometry" />
        </mxCell>
        <mxCell id="21_gmykhIOu26JGh-Btz-16" value="轮询访问" style="text;html=1;align=center;verticalAlign=middle;resizable=0;points=[];autosize=1;strokeColor=none;fillColor=none;" vertex="1" parent="21_gmykhIOu26JGh-Btz-1">
          <mxGeometry x="1070" y="348.75" width="70" height="30" as="geometry" />
        </mxCell>
        <mxCell id="21_gmykhIOu26JGh-Btz-17" value="轮询访问" style="text;html=1;align=center;verticalAlign=middle;resizable=0;points=[];autosize=1;strokeColor=none;fillColor=none;" vertex="1" parent="21_gmykhIOu26JGh-Btz-1">
          <mxGeometry x="1070" y="457.5" width="70" height="30" as="geometry" />
        </mxCell>
        <mxCell id="21_gmykhIOu26JGh-Btz-18" value="server 1" style="text;html=1;align=center;verticalAlign=middle;resizable=0;points=[];autosize=1;strokeColor=none;fillColor=none;" vertex="1" parent="21_gmykhIOu26JGh-Btz-1">
          <mxGeometry x="1279" y="255" width="70" height="30" as="geometry" />
        </mxCell>
        <mxCell id="21_gmykhIOu26JGh-Btz-19" value="server 2" style="text;html=1;align=center;verticalAlign=middle;resizable=0;points=[];autosize=1;strokeColor=none;fillColor=none;" vertex="1" parent="21_gmykhIOu26JGh-Btz-1">
          <mxGeometry x="1279" y="369.38" width="70" height="30" as="geometry" />
        </mxCell>
        <mxCell id="21_gmykhIOu26JGh-Btz-20" value="server 3" style="text;html=1;align=center;verticalAlign=middle;resizable=0;points=[];autosize=1;strokeColor=none;fillColor=none;" vertex="1" parent="21_gmykhIOu26JGh-Btz-1">
          <mxGeometry x="1279" y="481.25" width="70" height="30" as="geometry" />
        </mxCell>
        <mxCell id="h4-jVqhsriTU1_VaayF0-3" value="" style="group" vertex="1" connectable="0" parent="21_gmykhIOu26JGh-Btz-1">
          <mxGeometry x="550" y="210" width="200" height="140" as="geometry" />
        </mxCell>
        <mxCell id="h4-jVqhsriTU1_VaayF0-35" style="edgeStyle=orthogonalEdgeStyle;rounded=0;orthogonalLoop=1;jettySize=auto;html=1;" edge="1" parent="h4-jVqhsriTU1_VaayF0-3" source="UBRyyXclDmd2ooi5R-SA-1">
          <mxGeometry relative="1" as="geometry">
            <mxPoint x="390" y="175" as="targetPoint" />
          </mxGeometry>
        </mxCell>
        <mxCell id="UBRyyXclDmd2ooi5R-SA-1" value="" style="rounded=1;whiteSpace=wrap;html=1;" vertex="1" parent="h4-jVqhsriTU1_VaayF0-3">
          <mxGeometry width="200" height="140" as="geometry" />
        </mxCell>
        <mxCell id="UBRyyXclDmd2ooi5R-SA-2" value="" style="sketch=0;outlineConnect=0;fontColor=#232F3E;gradientColor=none;fillColor=#8C4FFF;strokeColor=none;dashed=0;verticalLabelPosition=bottom;verticalAlign=top;align=center;html=1;fontSize=12;fontStyle=0;aspect=fixed;pointerEvents=1;shape=mxgraph.aws4.gateway_load_balancer;" vertex="1" parent="h4-jVqhsriTU1_VaayF0-3">
          <mxGeometry x="122.26206896551723" y="23.333333333333332" width="57.93103448275862" height="57.93103448275862" as="geometry" />
        </mxCell>
        <mxCell id="h4-jVqhsriTU1_VaayF0-14" value="" style="shape=image;verticalLabelPosition=bottom;labelBackgroundColor=default;verticalAlign=top;aspect=fixed;imageAspect=0;image=data:image/png,iVBORw0KGgoAAAANSUhEUgAABLAAAAM5CAYAAAAXOchRAAAAAXNSR0IArs4c6QAAIABJREFUeF7s3XeYJWWZN+BfdU8g50EEzHFdMaHCICiiKEgwwuqa14AwgICCiGkMrAEkSTSCaRGMSBJBEYEBJAkuCIIByQx58nR3fTZ8soAD0+HU6apT9/lHrouq533e+3kv5szPc+oU8SJAgAABAgQIECBAgAABAgQIECBQY4Gixr1pjQABAgQIECBAgAABAgQIECBAgEAEWA4BAQIECBAgQIAAAQIECBAgQIBArQUEWLUej+YIECBAgAABAgQIECBAgAABAgQEWM4AAQIECBAgQIAAAQIECBAgQIBArQUEWLUej+YIECBAgAABAgQIECBAgAABAgQEWM4AAQIECBAgQIAAAQIECBAgQIBArQUEWLUej+YIECBAgAABAgQIECBAgAABAgQEWM4AAQIECBAgQIAAAQIECBAgQIBArQUEWLUej+YIECBAgAABAgQIECBAgAABAgQEWM4AAQIECBAgQIAAAQIECBAgQIBArQUEWLUej+YIECBAgAABAgQIECBAgAABAgQEWM4AAQIECBAgQIAAAQIECBAgQIBArQUEWLUej+YIECBAgAABAgQIECBAgAABAgQEWM4AAQIECBAgQIAAAQIECBAgQIBArQUEWLUej+YIECBAgAABAgQIECBAgAABAgQEWM4AAQIECBAgQIAAAQIECBAgQIBArQUEWLUej+YIECBAgAABAgQIECBAgAABAgQEWM4AAQIECBAgQIAAAQIECBAgQIBArQUEWLUej+YIECBAgAABAgQIECBAgAABAgQEWM4AAQIECBAgQIAAAQIECBAgQIBArQUEWLUej+YIECBAgAABAgQIECBAgAABAgQEWM4AAQIECBAgQIAAAQIECBAgQIBArQUEWLUej+YIECBAgAABAgQIECBAgAABAgQEWM4AAQIECBAgQIAAAQIECBAgQIBArQUEWLUej+YIECBAgAABAgQIECBAgAABAgQEWM4AAQIECBAgQIAAAQIECBAgQIBArQUEWLUej+YIECBAgAABAgQIECBAgAABAgQEWM4AAQIECBAgQIAAAQIECBAgQIBArQUEWLUej+YIECBAgAABAgQIECBAgAABAgQEWM4AAQIECBAgQIAAAQIECBAgQIBArQUEWLUej+YIECBAgAABAgQIECBAgAABAgQEWM4AAQIECBAgQIAAAQIECBAgQIBArQUEWLUej+YIECBAgAABAgQIECBAgAABAgQEWM4AAQIECBAgQIAAAQIECBAgQIBArQUEWLUej+YIECBAgAABAgQIECBAgAABAgQEWM4AAQIECBAgQIAAAQIECBAgQIBArQUEWLUej+YIECBAgAABAgQIECBAgAABAgQEWM4AAQIECBAgQIAAAQIECBAgQIBArQUEWLUej+YIECBAgAABAgQIECBAgAABAgQEWM4AAQIECBAgQIAAAQIECBAgQIBArQUEWLUej+YIECBAgAABAgQIECBAgAABAgQEWM4AAQIECBAgQIAAAQIECBAgQIBArQUEWLUej+YIECBAgAABAgQIECBAgAABAgQEWM4AAQIECBAgQIAAAQIECBAgQIBArQUEWLUej+YIECBAgAABAgQIECBAgAABAgQEWM4AAQIECBAgQIAAAQIECBAgQIBArQUEWLUej+YIECBAgAABAgQIECBAgAABAgQEWM4AAQIECBAgQIAAAQIECBAgQIBArQUEWLUej+YIECBAgAABAgQIECBAgAABAgQEWM4AAQIECBAgQIAAAQIECBAgQIBArQUEWLUej+YIECBAgAABAgQIECBAgAABAgQEWM4AAQIECBAgQIAAAQIECBAgQIBArQUEWLUej+YIECBAgAABAgQIECBAgAABAgQEWM4AAQIECBAgQIAAAQIECBAgQIBArQUEWLUej+YIECBAgAABAgQIECBAgAABAgQEWM4AAQIECBAgQIAAAQIECBAgQIBArQUEWLUej+YIECBAgAABAgQIECBAgAABAgQEWM4AAQIECBAgQIAAAQIECBAgQIBArQUEWLUej+YIECBAgAABAgQIECBAgAABAgQEWM4AAQIECBAgQIAAAQIECBAgQIBArQUEWLUej+YIECBAgAABAgQIECBAgAABAgQEWM4AAQIECBAgQIAAAQIECBAgQIBArQUEWLUej+YIECBAgAABAgQIECBAgAABAgQEWM4AAQIECBAgQIAAAQIECBAgQIBArQUEWLUej+YIECBAgAABAgQIECBAgAABAgQEWM4AAQIECBAgQIAAAQIECBAgQIBArQUEWLUej+YIECBAgAABAgQIECBAgAABAgQEWM4AAQIECBAgQIAAAQIECBAgQIBArQUEWLUej+YIECBAgAABAgQIECBAgAABAgQEWM4AAQIECBAgQIAAAQIECBAgQIBArQUEWLUej+YIECBAgAABAgQIECBAgAABAgQEWM4AAQIECBAgQIAAAQIECBAgQIBArQUEWLUej+YIECBAgAABAgQIECBAgAABAgQEWM4AAQIECBAgQIAAAQIECBAgQIBArQUEWLUej+YIECBAgAABAgQIECBAgAABAgQEWM4AAQIECBAgQIAAAQIECBAgQIBArQUEWLUej+YIECBAgAABAgQIECBAgAABAgQEWM4AAQIECBAgQIAAAQIECBAgQIBArQUEWLUej+YIECBAgAABAgQIECBAgAABAgQEWM4AAQIECBAgQIAAAQIECBAgQIBArQUEWLUej+YIECBAgAABAgQIECBAgAABAgQEWM4AAQIECBAgQIAAAQIECBAgQIBArQUEWLUej+YIECBAgAABAgQIECBAgAABAgQEWM4AAQIECBAgQIAAAQIECBAgQIBArQUEWLUej+YIECBAgAABAgQIECBAgAABAgQEWM4AAQIECBAgQIAAAQIECBAgQIBArQUEWLUej+YIECBAgAABAgQIECBAgAABAgQEWM4AAQIECBAgQIAAAQIECBAgQIBArQUEWLUej+YIECBAgAABAgQIECBAgAABAgQEWM4AAQIECBAgQIAAAQIECBAgQIBArQUEWLUej+YIECBAgAABAgQIECBAgAABAgQEWM4AAQIECBAgQIAAAQIECBAgQIBArQUEWLUej+YIECBAgAABAgQIECBAgAABAgQEWM4AAQIECBAgQIAAAQIECBAgQIBArQUEWLUej+YIECBAgAABAgQIECBAgAABAgQEWM4AAQIECBAgQIAAAQIECBAgQIBArQUEWLUej+YIECBAgAABAgQIECBAgAABAgQEWM4AAQIECBAgQIAAAQIECBAgQIBArQUEWLUej+YIECBAgAABAgQIECBAgAABAgQEWM4AAQIECBAgQIAAAQIECBAgQIBArQUEWLUej+YIECBAgAABAgQIECBAgAABAgQEWM4AAQIECBAgQIAAAQIECBAgQIBArQUEWLUej+YIECBAgAABAgQIECBAgAABAgQEWM4AAQIECBAgQIAAAQIECBAgQIBArQUEWLUej+YIECBAgAABAgQIECBAgAABAgQEWM4AAQIECBAgQIAAAQIECBAgQIBArQUEWLUej+YIECBAgAABAgQIECBAgAABAgQEWM4AAQIECBAgQIAAAQIECBAgQIBArQUEWLUej+YIECBAgAABAgQIECBAgAABAgQEWM4AAQIECBAgQIAAAQIECBAgQIBArQUEWLUej+YIECBAgAABAgQIECBAgAABAgQEWM4AAQIECBAgQIAAAQIECBAgQIBArQUEWLUej+YIECBAgAABAgQIECBAgAABAgQEWM4AAQIECBAgQIAAAQIECBAgQIBArQUEWLUej+YIECBAgAABAgQIECBAgAABAgQEWM4AAQIECBAgQIAAAQIECBAgQIBArQUEWLUej+YIECBAgAABAgQIECBAgAABAgQEWM4AAQIECBAgQIAAAQIECBAgQIBArQUEWLUej+YIECBAgAABAgQIECBAgAABAgQEWM4AAQIECBAgQIAAAQIECBAgQIBArQUEWLUej+YIECBAgAABAgQIECBAgAABAgQEWM4AAQIECBAgQIAAAQIECBAgQIBArQUEWLUej+YIECBAgAABAgQIECBAgAABAgQEWM4AAQIECBAgQIAAAQIECBAgQIBArQUEWLUej+YIECBAgAABAgQIECBAgAABAgQEWM4AAQIECBAgQIAAAQIECBAgQIBArQUEWLUej+YIECBAgAABAgQIECBAgAABAgQEWM4AAQIECBAgQIAAAQIECBAgQIBArQUEWLUej+YIECBAgAABAgQIECBAgAABAgQEWM4AAQIECBAgQIAAAQIECBAgQIBArQUEWLUej+YIECBAgAABAgQIECBAgAABAgQEWM4AAQIECBAgQIAAAQIECBAgQIBArQUEWLUej+YIECBAgAABAgQIECBAgAABAgQEWM4AAQIECBAgQIAAAQIECBAgQIBArQUEWLUej+YIECBAgAABAgQIECBAgAABAgQEWM4AAQIECBAgQIAAAQIECBAgQIBArQUEWLUej+YIECBAgAABAgQIECBAgAABAgQEWM4AAQIECBAgQIAAAQIECBAgQIBArQUEWLUej+YIECBAgAABAgQIECBAgAABAgQEWM4AAQIECBAgQIAAAQIECBAgQIBArQUEWLUej+YIECBAgAABAgQIECBAgAABAgQEWM4AAQIECBAgQIAAAQIECBAgQIBArQUEWLUej+YIECBAgAABAgQIECBAgAABAgQEWM4AAQIECBAgQIAAAQIECBAgQIBArQUEWLUej+YIECBAgAABAgQIECBAgAABAgQEWM4AAQIECBAgQIAAAQIECBAgQIBArQUEWLUej+YIECBAgAABAgQIECBAgAABAgQEWM4AAQIECBAgQIAAAQIECBAgQIBArQUEWLUej+YIECBAgAABAgQIECBAgAABAgQEWM4AAQIECBAgQIAAAQIECBAgQIBArQUEWLUej+YIECBAgAABAgQIECBAgAABAgQEWM4AAQIECBAgQIAAAQIECBAgQIBArQUEWLUej+YIECBAgAABAgQIECBAgAABAgQEWM4AAQIECBAgQIAAAQIECBAgQIBArQUEWLUej+YIECBAgAABAgQIECBAgAABAgQEWM4AAQIECBAgQIAAAQIECBAgQIBArQUEWLUej+YIECBAgAABAgQIECBAgAABAgQEWM4AAQIECBAgQIAAAQIECBAgQIBArQUEWLUej+YIECBAgAABAgQIECBAgAABAgQEWM4AAQIECBAgQIAAAQIECBAgQIBArQUEWLUej+YIECBAgAABAgQIECBAgAABAgQEWM4AAQIECBAgQIAAAQIECBAgQIBArQUEWLUej+YIECBAgAABAgQIECBAgAABAgQEWM4AAQIECBAgQIAAAQIECBAgQIBArQUEWLUej+YIECBAgAABAgQIECBAgAABAgQEWM4AAQIECBAgQIAAAQIECBAgQIBArQUEWLUej+YIECBAgAABAgQIECBAgAABAgQEWM4AAQIECBAgQIAAAQIECBAgQIBArQUEWLUej+YIECBAgACBBggU+cr0Z6e/fHOSjZLiMSmzOMnf01eekYXl97Pb+bc0YB9aJECAAAECBAjUVkCAVdvRaIwAAQIECBCotcDMZ03JmqtukQzNSLJZkklL7LfM/BTlj1IWR2Tauudn++MHa70vzREgQIAAAQIEaiggwKrhULREgAABAgQI1FzgsJc+Lhk4JkW5cZLJI+x2fpJv5tZFe2XmRfNGeI/LCBAgQIAAAQIEkgiwHAMCBAgQIECAwEgFvvLiJ6W//11JdkwybaS3Pey6a1IWB2ZheWz2mHXHGGu4jQABAgQIECDQKgEBVqvGbbMECBAgQIDAmAUOn75dkkNTZFrKcf+fgEMpy2vSP7R9PnDB78fckxsJECBAgAABAi0REGC1ZNC2SYAAAQIECIxBYOamkzJt4SuTYo8U5eZjqLC0WwZSlN9NikOy46xLlnaxf0+AAAECBAgQaKuAAKutk7dvAgQIECBA4NEF9nvO8llu+e+lyDZJ+irmGn6w+wG5deo+mXnmQMVrKU+AAAECBAgQaJyAAKtxI9MwAQIECBAgUKnA16evloWZkSI7J1mz0rUeXrzI5Rkqv5Jp9xyT7a9Y1NW1LUaAAAECBAgQqLGAAKvGw9EaAQIECBAg0EWB4edaHb7h1imK45Is08WV/3WpsvxLivJ12en8yya0D4sTIECAAAECBGoiIMCqySC0QYAAAQIECEygwBEbbZay3C3Jq5NMmcBOHrz0PSnKH6QsDxVk1WQi2iBAgAABAgQmTECANWH0FiZAgAABAgQmXODwjVdNFh+c9L19wnt5pAaKLEiZj2bgtiOy6zULa9unxggQIECAAAECFQoIsCrEVZoAAQIECBCoqcAhm0xL3+L3pa94T5In17TLh7VVXpQyh2Zh8YPsMWt+M3rWJQECBAgQIECgMwICrM44qkKAAAECBAg0QWDmppOy9qLnZ3F5bIqmBFf/AvvbFHlLVl/35mx//PCvF3oRIECAAAECBHpeQIDV8yO2QQIECBAgQCBJkUM32jBFuWeKbJNkUsNV7k3K72ZhvpTdz/trw/eifQIECBAgQIDAUgUEWEslcgEBAgQIECDQWIHhXxb8ygYrZlLfJ5LsnqS/sXtZYuPlohTZOX2Lv5cdLprXW3uzGwIECBAgQIDA/wkIsJwGAgQIECBAoDcFvrXpMpm3YMcUxY5JntabmxzeVTmUFOelLA/JjPN+0Lv7tDMCBAgQIECgzQICrDZP394JECBAgEAvCsx81pRMW/mFKXJ0bwdXSxheWfwy5cDOmX3BNZmZoV4crz0RIECAAAEC7RQQYLVz7nZNgAABAgR6U+CwjZ6XotwnyZZJVujNTS5lV2VuSV/5g0wq98v7zr++lQY2TYAAAQIECPScgACr50ZqQwQIECBAoIUCR62/Roam7Jgyw8+6mtxCgSVsuZydMjsny5yUGWfOYUKAAAECBAgQaLKAAKvJ09M7AQIECBBou8DM9ZfLtCn/lSI7JHlWkr62kzxk/2UGUhTnJUP7ZY3HnZTtjx/kQ4AAAQIECBBoooAAq4lT0zMBAgQIEGi7wPBzrtZY6dkp+g5OUW7cdo4R7H84uPp+hopPZM11rhdkjUDMJQQIECBAgECtBARYtRqHZggQIECAAIGlChz64qenv39mymyVZKWlXu+CBwvclLL8fqYW/533zroDDQECBAgQIECgKQICrKZMSp8ECBAgQKDdAkUO2WSNTB58S8rys4KrcR+G65J8MPf2nZGPnHPvuKspQIAAAQIECBCoWECAVTGw8gQIECBAgMA4BWamL4/Z6K1JPpSUz0kZ71/GSXrf7UUWpczZ/3hu2Gey06zfdKKkGgQIECBAgACBqgS8AaxKVl0CBAgQIEBgfAJHrT85iyevlyJfSFFsPr5i7n50gfKIlMUB2WnWtSlS0iJAgAABAgQI1E1AgFW3ieiHAAECBAgQSI7a5LEZWPzf6Su2TZnVkFQsMBxaleX1SY5J/+LPZ4eL5lW8ovIECBAgQIAAgVEJCLBGxeViAgQIECBAoFKBr09fLYvK7ZO+zyflKpWupfiSBcri6mTow5m0+AxBlkNCgAABAgQI1EVAgFWXSeiDAAECBAi0WWD4OVfTNnhD0vfJFHlmkslt5qjB3uelKC/IYPbOzuedX4N+tECAAAECBAi0XECA1fIDYPsECBAgQGBCBe4LrjZ6TorsnQxtlxR9E9qPxR8uMPxVwoMzOPi17HLBXxPPx3JECBAgQIAAgYkREGBNjLtVCRAgQIAAgUM2mZZJi7+YFNsmWR1IrQWuS8qjMrDql7PrKQtr3anmCBAgQIAAgZ4UEGD15FhtigABAgQI1Fjg0Bevnr5iy6Tvs0meWONOtfavAhdkaOjjmT//3Ox52VxABAgQIECAAIFuCQiwuiVtHQIECBAgQCA5/CWbJEMHJnlekn4kjRRYkLL8VfoyIzueN/y1Qi8CBAgQIECAQOUCAqzKiS1AgAABAgRaLjBzZl/WPOXZSbFbUry75Rq9tP3FKct9U/YdnZ3P/VsvbcxeCBAgQIAAgfoJCLDqNxMdESBAgACB3hE4brv+zL7hS0n5Ts+56p2xPmgnQ0luylC5b3Y+74ie3KFNESBAgAABArUQEGDVYgyaIECAAAECPSZw2KYrpG/Ba1MW/53k8T22O9tZkkCZs5Ji30xb54xsf/wgJAIECBAgQIBAJwUEWJ3UVIsAAQIECBBIDt1wg/QVX0/ytCRTkbRIoCznJn3npm/o/Z6P1aK52yoBAgQIEOiCgACrC8iWIECAAAECrRA4coNnZaj4QFK8N8myrdizTT6SwK1J9k+R72fHWTdgIkCAAAECBAiMV0CANV5B9xMgQIAAgbYLfGvTZTJ/wSeSYsckq7adw/4fEChT5O8ZLD6eGed+N0VKNgQIECBAgACBsQoIsMYq5z4CBAgQINB2geHnXBULt0zykRR5QYbjCi8C/yJQDiXFSSn7Dsxtd56TmVcsgkSAAAECBAgQGK2AN5qjFXM9AQIECBAgkBy5wdMy2Hd0irwoyWQkBEYgMD/JT1JO3SEzzpwzgutdQoAAAQIECBB4QECA5TAQIECAAAECIxc4/CXPSDH4vpQZftbV8iO/0ZUE/r9AmVvSV+yX5DvZ8dzhZ2V5ESBAgAABAgSWKiDAWiqRCwgQIECAAIH7BA7fcJek+HSKrOLrgs7E+ATKoRTFjRkaek9mnH/a+Gq5mwABAgQIEGiDgACrDVO2RwIECBAgMFaBo9afnIHJ26TInkmx4VjLuI/AIwgMpsxPkqGDM+P8sykRIECAAAECBB5JQIDlbBAgQIAAAQJLFjjsRY9LJh2bIi9OMgkTgcoEiizKUI7N4NAu2fX8eypbR2ECBAgQIECgsQICrMaOTuMECBAgQKAigaNe8vgMljsk5QeSrFbRKsoSWIJA+acM5dD0TfpOdjr7TkQECBAgQIAAgX8KCLCcBQIECBAgQOB+gZnpy7QN35GiOCzJclgITIhAkTJl/p6y762ZcY6vFU7IECxKgAABAgTqJyDAqt9MdESAAAECBLorcP9zrrZIUeyaZFNfF+wuv9UeQaDM/BT5YTJ0eG49/4LMzBArAgQIECBAoL0CAqz2zt7OCRAgQIBAcvjGqyYD306KrXEQqKnA4iT759apn8zMMwdq2qO2CBAgQIAAgYoFBFgVAytPgAABAgRqKXDE9HWS7JAy703y2Fr2qCkCDxW4MmVxaDLl25lx5hw4BAgQIECAQLsEBFjtmrfdEiBAgEDbBY7brj+3X//KlPl2kjXbzmH/TRQor8hg8cbcPutqXyts4vz0TIAAAQIExiYgwBqbm7sIECBAgECzBMoUOWLDVyTFHklenaSvWRvQLYEHCdz3fKzy2AyU+2fX869gQ4AAAQIECPS+gACr92dshwQIECDQZoHh4OqgTVfO1AVfSYq3tZnC3ntVoPxY+hcflB0umterO7QvAgQIECBAIBFgOQUECBAgQKBXBQ7ZYKX0930wKd+Xonhcr27TvlovUKbMJenLYVl93WOy/fGDrRcBQIAAAQIEelBAgNWDQ7UlAgQIEGi5wFHrT87ApJen6P9eUq7Rcg3bb5NAmYszULwzd557hedjtWnw9kqAAAECbRAQYLVhyvZIgAABAu0ROPzFmyT9eyZ5ZZJl27NxOyXwgMAdKcofpa84IDvM+iMXAgQIECBAoDcEBFi9MUe7IECAAIG2Cxy16RoZnP+xpG+XJP1t57B/AknuTordc2/xw3zknHuJECBAgAABAs0WEGA1e366J0CAAIG2Cxz1ypUzOHenFHl3yjyt7Rz2T2AJAhekKA9J3+LjssNFiwkRIECAAAECzRQQYDVzbromQIAAgbYLzNx0maw5/99T9n0rRdZrO4f9ExiBwEkZKmZk9pQbMvPMgRFc7xICBAgQIECgRgICrBoNQysECBAgQGBEAodv8Jyk/5NJuXWSqSO6x0UECAwL3Jnk+ymKz2THc29FQoAAAQIECDRHQIDVnFnplAABAgTaLFCmyJEbTcvQ0I4pik94zlWbD4O9d0BgTlLunIHyJ9n1/Hs6UE8JAgQIECBAoGIBAVbFwMoTIECAAIFxC8yc2Zc1T52RotgpyTMyHGZ5ESAwXoHh52H9LhncLztd8NPxFnM/AQIECBAgUK2AN8DV+qpOgAABAgTGLjDzWVMybeUXpshhSZ439kLuJEDgUQXK8rgMFZ/KzrOuSpGSFgECBAgQIFA/AQFW/WaiIwIECBAgkBz+kmekHPpcirwyySpICBCoXODGlOUP09e3r+djVW5tAQIECBAgMGoBAdaoydxAgAABAgQqFDhiozUzNPj2FH0zk6xQ4UpKEyCwZIHrUmS3LB46w/OxHBECBAgQIFAfAQFWfWahEwIECBBos8Dw1wXXXOkdSbFHUj4j/0iw2sxh7wQmWGBxUl6Qvv5P5wPnnJ74WuEEz8PyBAgQIEDAQ2CdAQIECBAgMKEC9wVXK66X9O2b5FWJP5sndB4WJ/BQgcUp881/fBpy/5y57l9y/PGDgAgQIECAAIGJEfAJrIlxtyoBAgQIEEgO2WDd9BefT1Fsk2RlJAQI1FbgxqQ4OgvKz2WPWfNr26XGCBAgQIBADwsIsHp4uLZGgAABAjUVGH7OVcrXp8zwp65Wr2mX2iJA4F8F/pTB7JW+qadnxplzABEgQIAAAQLdExBgdc/aSgQIECBAIDlswzf841uCM1PkWUn6kRAg0DiBhUnOS1/fh/OBcy5sXPcaJkCAAAECDRUQYDV0cNomQIAAgQYJHLddf2674QUpyn2SvK5BnWuVAIFHEigzkKI8JGVxRGbMugYUAQIECBAgUK2AAKtaX9UJECBAoO0CB0xfLVNYRiweAAAgAElEQVSzX4r7gqvV2s5h/wR6TKBMMvx8rCOz7JT98+4zF/TY/myHAAECBAjURkCAVZtRaIQAAQIEekrg8I1XTQbemLL4dIqs3VN7sxkCBJYgUF6UvvKTmbrsrwRZDggBAgQIEOi8gACr86YqEiBAgECbBcoUOWyDLdPXt3+SpyaZ3GYOeyfQMoHhXyi8IIPZJbvMurxle7ddAgQIECBQqYAAq1JexQkQIECgNQIz05fVpj83k8tdk+I/U2ZKa/ZuowQIPFzg7iQHJ/3HZKez/5Jk+KuGXgQIECBAgMA4BARY48BzKwECBAgQuE/gsGetkKy0b4ri7f/4S+uqVAgQIJAiZcry+qT4Ym6ddURmZogKAQIECBAgMHYBAdbY7dxJgAABAm0XuO85V0NbpRz6RIri6W3nsH8CBB5BoMxZKcovZGDVX2XXUxZyIkCAAAECBEYvIMAavZk7CBAgQIBActT09TKQo1PkOUkmISFAgMBSBIZ/ofCMzJv6rnz4zNm0CBAgQIAAgdEJCLBG5+VqAgQIEGi3QJGjpj87A5mRonxfUvS1m8PuCRAYvUAxJ2X5pQz1fSO7nHPj6O93BwECBAgQaKeAAKudc7drAgQIEBiLwGEbfi5FsUuKrJjhXxv0IkCAwJgEyqGkuDMZ2i07nf/dMZVwEwECBAgQaJmAN98tG7jtEiBAgMAoBY7bbkpu+/t2KYq9kzx7lHe7nAABAo8iUA6lLE5LUX45O513OioCBAgQIEDgkQUEWE4HAQIECBB4JIHh51wNFv+TlMMPaJ8MigABAhUJDD/Y/VdZNPTu7Hb+LRWtoSwBAgQIEGi0gACr0ePTPAECBAhUInDU9GdmIO9PkfckWamSNRQlQIDAwwXK8voUxSHpn/Td7PDbmwARIECAAAEC/ycgwHIaCBAgQIDAPwWO264/t16/R/ryySQrgCFAgMAECJQpc0PKvh2y8zknT8D6liRAgAABArUUEGDVciyaIkCAAIGuCsxcf7msOWWrlNk9RTZMPKC9q/4WI0BgCQL3Pej9pyn7Ds20tc/K9scPYiJAgAABAm0WEGC1efr2ToAAAQLJIc+flsnL/DBlNk7Sh4QAAQK1EigzkCLHZI11dxBi1WoymiFAgACBLgsIsLoMbjkCBAgQqInA1178pCzq3ylF3ptklZp0pQ0CBAg8gkD593/8t+qg9C/+Rna46G5MBAgQIECgbQICrLZN3H4JECBAIDlio7enLI9MshwOAgQINEzgtgwVr83O585qWN/aJUCAAAEC4xIQYI2Lz80ECBAg0BiBmenLmtO3/f/PudrEc64aMzmNEiDwcIEiC1KWP81QDsrO550PiAABAgQItEFAgNWGKdsjAQIE2i1Q5Kj118rA5GNSFJu3m8LuCRDoOYEiB2do6scz48w5Pbc3GyJAgAABAg8SEGA5DgQIECDQuwJfecna6S9npBz6rxTFWr27UTsjQKC1AkXKlOWVSY7Mvf1H5yPn3NtaCxsnQIAAgZ4WEGD19HhtjgABAi0VOGr9yRmY9NoUfV9NsmpLFWybAIH2CVyZgbw1a617mV8sbN/w7ZgAAQK9LiDA6vUJ2x8BAgTaJHDcdv257frNk3KPFMWmSSa3afv2SoAAgSTzkvwoQ+Xw87EuJkKAAAECBHpFQIDVK5O0DwIECLRZoEyRb794tcztPzAp35oUfW3msHcCBAgkmZ8Un84Kcw7NOy4bDrVKKgQIECBAoMkCAqwmT0/vBAgQIJAcssm0TBrYOUXelTKPR0KAAAECDxG4LMlhWWPdo7P98YvYECBAgACBpgoIsJo6OX0TIECg7QLf2nSZLFi0Ucrym0me0HYO+ydAgMBSBH6XsnxnnrXMn/LyMwdoESBAgACBpgkIsJo2Mf0SIECAQHLYBhun6Ns7yas858qBIECAwIgF7knKH2Wgb9/seu61I77LhQQIECBAoAYCAqwaDEELBAgQIDACgeHnXH11/bUyMGWfFNl5BHe4hAABAgSWKFAuStG3ZxbM+3Z2v/QuSAQIECBAoAkCAqwmTEmPBAgQaLvA8NcF5y/cPcl7U+RJGQ6zvAgQIEBgPAKDSXlpivLgrP7472f74wfHU8y9BAgQIECgagF/AahaWH0CBAgQGLvAIVtOTd9dG6cov5aieNLYC7mTAAECBB5RoMxpGSg+lMeuc6UgyzkhQIAAgboKCLDqOhl9ESBAoO0CR0x/ccp8MsnLkqzQdg77J0CAQLUC5eyk+FkGB/fNLhf8pdq1VCdAgAABAqMXEGCN3swdBAgQIFClwGEvWivFpB2T7Jlk2SqXUpsAAQIEHiZQ5rYU2S3LTj057z7T87EcEAIECBCojYAAqzaj0AgBAgRaLnDU+stlYNKOKYr3J8XTW65h+wQIEJhIgTJleUGSL2Wn836SIuVENmNtAgQIECAwLCDAcg4IECBAYGIFDpi+bJbr+/eUQ4ekzPSJbcbqBAgQIPAQgTLHpX/o47l52b9k5pkDdAgQIECAwEQJCLAmSt66BAgQIJB85aVPSv+i/ZJiy3/8P/3LISFAgACBOgqUszOU/8n8lT6aPU+bW8cO9USAAAECvS8gwOr9GdshAQIE6idw1CaPzcDAO1PkM0km169BHREgQIDAEgTuSFnumsHy59n1/HsIESBAgACBbgoIsLqpbS0CBAgQSA7f8L1J8eGkfFpS9CEhQIAAgUYJLEzy+wwNfTw7n//LRnWuWQIECBBotIAAq9Hj0zwBAgQaIjBz00mZNn/DpG/fFHlpQ7rWJgECBAg8ssBgyvLo9JcH5APnXwGKAAECBAhULSDAqlpYfQIECLRd4IgNn5iy+HKSzZKs0nYO+ydAgEBPCRS5KUM5NsvN/0zefeldPbU3myFAgACBWgkIsGo1Ds0QIECghwQO2uAxmdy3XYp8Msm0HtqZrRAgQIDAvwpcmb6hj2ZRfu35WI4HAQIECFQhIMCqQlVNAgQItFnguO36c8v1/5G+fCJF+XTPuWrzYbB3AgRaJVBkUYbKC1L075mdzjmvVXu3WQIECBCoXECAVTmxBQgQINASgaPWn5yBqc9LUe6d5LVJ+luyc9skQIAAgYcKLEyRwzOQr+b2WVdnZoYAESBAgACB8QoIsMYr6H4CBAgQSA583iqZuswBKYs3pshKSAgQIECAQJKbUuSI/Grd/87xxw8SIUCAAAEC4xEQYI1Hz70ECBBou8Ahm0zL5IE3pCxnJsVabeewfwIECBBYosBlKTIz83Nq9pg1nxEBAgQIEBiLgABrLGruIUCAAIHk8A1fmRQHJXlGkklICBAgQIDAowgsSPK7lOUOmXHelaQIECBAgMBoBQRYoxVzPQECBNotUOTIl6yfwaE9UpT/4QHt7T4Mdk+AAIFRC5SZm6I8NBn8anb63Z9Hfb8bCBAgQKC1AgKs1o7exgkQIDBKgW+8ZMUsHNo/yX/c95yr8h9fCPEiQIAAAQKjFyiTzE5Rfj633HNYZl6xaPQl3EGAAAECbRPwl4+2Tdx+CRAgMFqBo9ZfOUNT3pgyw78u+LTR3u56AgQIECDwCALDQdbZ6ev7Qla78/RsL8hyUggQIEDgkQUEWE4HAQIECDySQJHDX7xxyv6vpshTPefKQSFAgACBigQWpizOTZl3Z+dz/1bRGsoSIECAQMMFBFgNH6D2CRAgUInA4S96ctL/4aR4Z5LlKllDUQIECBAg8FCB25N8OQvnH5HdL70LDgECBAgQeLCAAMt5IECAAIGHChy+8aopBk9PmRegIUCAAAECXRYYSnJS+he9OTtcNK/La1uOAAECBGosIMCq8XC0RoAAga4LHPri1dPX/6MkL+v62hYkQIAAAQL3CZRDKYuDc9vUvTLzzAEoBAgQIEBgWECA5RwQIECAwP0Cw78qeMT0LyX5MJLmCCw7aWrWX+OZ2XCtZ+XfV31ynrby47Lq1BWz7gprPrCJMmVum39X7lx4T66954Zce/cNuez2a3Px7Kvy53tuzFA5/IEHLwLNEHjiio/Nqx+/QaY/5tlZb7WnZJ0VpmXZ/qkPaf6exXPzt3tuzqW3/ym/ven3OfXv5+XuhXOasUFd/lNgKGXelhmz/gcJAQIECBAQYDkDBAgQIPB/Aoe9aK0U/RckxeOw1FOgv+jPC6Y9PS9a81l50ZrPzAun/VueuvK6WaZ/ypgbvmfR3Fxzz/W58s6/5fLbr80Vd/4lv5/9p1w/99YMlcM/EOZFYGIFnrHK47Pp2i/Ipus8Pxs+5tkZDrDG8rr8jmsz6+Y/5MwbL86vbrgwt8y7cyxl3NNVgeLszJ2zRfa8bG5Xl7UYAQIECNRSwCewajkWTREgQGACBA7fcI+k+PIErGzJEQi84xlb5gsb7JRpy66S/r7+yj5CPfxprIFy8L4w6yuXH58fXHNGFgwuGkGHLiHQWYF1lp+WQzfZI1s94SWZdN+Z78zb1uFgdtHQohz4+x/kk7/7WgaGBjvbuGqdEygymCx+Xna88A+dK6oSAQIECDRVoDPvBJq6e30TIECAwP8JHDb92hR5MpJ6CAz/Zf25azw1//m0V+XNT908j3vQVwK72eHtC+7Ob268JKdcd15O+/v5+fucW+JzWd2cQPvWeu7qT80u622X7Z+6WVacvHylALfMvz1H/e/PcsT//iQ3zxv+ATyvGgoclnv7PpqPnHNvDXvTEgECBAh0UUCA1UVsSxEgQKDWAodPl0vUaEBfmj4juz3nPzK5b1Jtuhr+JNY3rjwxH7/gyNzleUK1mUuvNDL8ycIPPefN+cL0nTr2aauR2sxZPD/bnrJXfn3DRSO9xXXdE7g2fYNvzgcuuLB7S1qJAAECBOooIMCq41T0RIAAgYkQEGBNhPpD1uwrirz16a/OR5//jvzbqk+c8H4eqYHbF9yTn/zlzBz9x5My65b/9RD42k6qOY2tt/pT8rkNdshrHj89k4r+CWl83sCCfP3Kn2ffi47OrfM9H2tChrDkRQcy1Pfa7HzOyTXqSSsECBAgMAECAqwJQLckAQIEaikgwJrQsawwebl86+Ufy5ue8vIJ7WM0iw//uuGx15yeXX57QIa/auhFYCwCz1n9KTl164Py2OVWH8vtHb9n1i2X55UnfDDDgZZXTQSKbJMdZ51Yk260QYAAAQITJCDAmiB4yxIgQKB2AgKsCRvJ89d4eg58yQfz0sc+L0XRvD+ah5+L9dUrfpYj//enmb3grglztHCzBPqKvvzHU1+Rg16yW9ZcdtVaNT/8i4XvOOMzuXT2n2rVV2ubEWC1dvQ2ToAAgQcLNO9dsvkRIECAQDUCAqxqXJdSdfiB1adtc3Dt/gI/Foz/veMv2erkD933oPfhX3rzIvBoAhs/9rk5ZasDssLkZWsJdeO82Xn2sW/NnQs9O3zCByTAmvARaIAAAQJ1EBBg1WEKeiBAgEAdBARYXZ/CS9d+fr656T55ysrrdH3tqha8d/G87Hfp9/KFi7+TxUMDVS2jbsMFNl/3RfneK2dmWs0+efVw1ktmX53Xn7J3/jbn5oaLN7x9AVbDB6h9AgQIdEZAgNUZR1UIECDQfAEBVldnOPyQ9tO3OThrLz+tq+t2a7Fzbr4srztlb18p7BZ4g9ZZa7nV8+vXHppnrvKERnT9w2t/lbec/qkMDA02ot+ebFKA1ZNjtSkCBAiMVkCANVox1xMgQKBXBQRYXZvsY5ZdNSdtdUDWn/aMrq05EQtdPPuqvPfXn8/wp1i8CAwLTOmfnGM3/2xe96SXpilvQod/rOAzF34rn73wmxkshwxyIgQEWBOhbk0CBAjUTqAp7x1qB6chAgQI9JyAAKsrI53aPyXHbv6Z+/4C34bXQDmYV/98t/zqhovasF17fBSBIkV2fc529z20vWmvOxbec985vvC2Pzat9d7oV4DVG3O0CwIECIxTQIA1TkC3EyBAoGcEBFhdGeX2T3lFvrXZx7LcpGW6sl4dFrlh7m3Z6az9csJfz65DO3qYIIFpy66Sc1//1Tx15XUnqIPxLXvKdbOy9ckf9gMF42Mc290CrLG5uYsAAQI9JiDA6rGB2g4BAgTGLCDAGjPdSG9cZeqKueotx/bELw6OdM//vG74a1hbnLh7Tvv7BaO91fU9IDD8hvPzG+6Yjzz/7Y3ezX/88uM57ppfNXoPjWxegNXIsWmaAAECnRYQYHVaVD0CBAg0VUCAVenk+oq+HPSSD2aX9bardJ06F79+7q15/al758JbfQ2rznOqordnrfqkXLTdt7JM/5Qqynet5gW3XpFXn7hb7lo4p2trWiiJAMsxIECAAIH7/jjwIkCAAAECwwICrErPwRNWXCu/ee3hGf7fNr/uWjQnG/zovbn6ruvazNCqvQ8/++qL03fKns97a+P3vWBgYbY8aY+ceeMljd9LozYgwGrUuDRLgACBqgQEWFXJqkuAAIGmCQiwKp3YLuu9KQe9ZPf0Ff7oPfOGi+8LARYMLqrUXPF6CKwwebmc9brD8/w1nl6PhsbZxTFXnZJ3/eqz46zi9lEJCLBGxeViAgQI9KqAd9G9Oln7IkCAwGgFBFijFRvx9ZP6+nP1W36QJ6209ojv6fULf/KX3+Stp8/M/IGFvb7V1u/vOas/JRdvd0z6i76esFg4uChrHb11hj9N6NUlAQFWl6AtQ4AAgXoLCLDqPR/dESBAoHsCAqzKrF+xzgtz+raHVFa/iYWHyqF85sJv5tMXfrOJ7et5FAJf2WSP7PzsN43ijvpf+u5f75uj/3hS/RvtlQ4FWL0ySfsgQIDAuAQEWOPiczMBAgR6SECAVdkwD3rJbvngc7avrH5TCy8eGsibf/mJ/PQvv81woOXVewKTiv7c8M4Teu6XN3/859/kTaftk7Ise29oddyRAKuOU9ETAQIEui4gwOo6uQUJECBQUwEBViWDWXbS1Jy81QHZdO3nV1K/6UXvWTQ3b/zFPjn9+t81fSv6X4LAM1d9Qq588//0nM2ls6/Opj/bOXf7GmF3ZivA6o6zVQgQIFBzAQFWzQekPQIECHRNQIBVCfVjll0tv3ndYXnGKk+opH4vFL3m7uuz6c9m5Ia5t/XCduzhQQJvesrLc/yr9u05k+vm3JKX/XTH/PXem3tub7XckACrlmPRFAECBLotIMDqtrj1CBAgUFcBAVYlk3nKSuvk/Dd+Pasvs3Il9Xul6CWzr87WJ384N86d3Stbso8kez3vrfni9Bk9ZzH8yatNfrpjLr/92p7bWy03JMCq5Vg0RYAAgW4LCLC6LW49AgQI1FVAgFXJZP59tSflku2OyeS+SZXU75Wiw08S+tYfT8yOZ+2XRYOLe2Vbrd/H/hvtkg899y095zAwNJiNf7JDzr/1ip7bWy03JMCq5Vg0RYAAgW4LCLC6LW49AgQI1FVAgFXJZDZ8zLMz6w1fraR2rxUdLAdz+B9+nN3POTiDHure+PEWKfK1TffOe/5tm8bvZUkbGP7a629uvKQn91a7TQmwajcSDREgQGAiBARYE6FuTQIECNRRQIBVyVS2eNyGOWXrAyqp3YtFFw4uyvt/88V8+6pTenF7rdpTX9GXozf7eN7+9C16ct9v+sXH8qM//7on91a7TQmwajcSDREgQGAiBARYE6FuTQIECNRRQIBVyVQEWKNnvXPhvXnDLz6aM2+4ePQ3u6M2AgKs2oyi+Y0IsJo/QzsgQIBABwQEWB1AVIIAAQI9ISDAqmSMAqyxsd407/a86ucfzB/u+PPYCrhrwgUEWBM+gt5pQIDVO7O0EwIECIxDQIA1Djy3EiBAoKcEBFiVjFOANTbW4Ye6X3Trlff90tuCwUVjK+KuCRUQYE0of28tLsDqrXnaDQECBMYoIMAaI5zbCBAg0HMCAqxKRirAGh/rz/7627zzjM/k7kVzx1fI3V0XEGB1nbx3FxRg9e5s7YwAAQKjEBBgjQLLpQQIEOhpAQFWJeMVYI2PdfiXCT930TGZ+buvj6+Qu7suIMDqOnnvLijA6t3Z2hkBAgRGISDAGgWWSwkQINDTAgKsSsYrwBo/61DKvO/Xn88xV52S4UDLqxkCAqxmzKkRXQqwGjEmTRIgQKBqAQFW1cLqEyBAoCkCAqxKJiXA6gzrXYvmZNuT98xvb/p9ZwqqUrmAAKty4vYsIMBqz6ztlAABAo8iIMByPAgQIEDgfgEBViUnQYDVOda/3ntTtjl5T79M2DnSSisJsCrlbVdxAVa75m23BAgQeAQBAZajQYAAAQICrArPgACrs7iXzv5Ttjhx99wy/47OFlat4wICrI6TtregAKu9s7dzAgQIPEhAgOU4ECBAgIAAq8IzIMDqLG6Z5Pt/Oi07/OYLmbt4QWeLq9ZRAQFWRznbXUyA1e752z0BAgT+v4AAy1EgQIAAAQFWhWdAgNV53LIs89Urf5adzto/Q+VQ5xdQsSMCAqyOMCoyLCDAcg4IECBA4L4/DrwIECBAgMCwgGdgVXIOBFiVsGbewILsevaB+caVP69mAVXHLSDAGjehAv8UEGA5CwQIECAgwHIGCBAgQOABAQFWJYdBgFUJ631FFw8NZOuT98xpfz+/ukVUHrOAAGvMdG58uIAAy5kgQIAAAQGWM0CAAAECAqxqz4AAq1rf4V8m3PaUvXL57ddWu5DqoxYQYI2azA2PJCDAcjYIECBAQIDlDBAgQICAAKvaMyDAqtZ3uPo191yf5x33zsxdPL/6xawwYgEB1oipXLg0AQHW0oT8ewIECLRCwDOwWjFmmyRAgMAIBHyFcARIo79EgDV6s7Hc8bO/npV3nPHZ3LNo7lhud08FAgKsClDbWlKA1dbJ2zcBAgQeIiDAciAIECBA4H4BAVYlJ0GAVQnrEot+7qKj84kLvtq9Ba30qAICLAekYwICrI5RKkSAAIEmCwiwmjw9vRMgQKCTAgKsTmo+UEuAVQnrEosOpczu5xycwy7/YQbLoe4tbKUlCgiwHIyOCQiwOkapEAECBJosIMBq8vT0ToAAgU4KCLA6qSnAqkRz6UXvXTwvrzhh1/zu1iuWfrErKhUQYFXK267iAqx2zdtuCRAg8AgCAixHgwABAgTuFxBgVXISfAKrEtZHLXrTvNvz+lM/kvNvEWJ1X///VhRgTaR+j60twOqxgdoOAQIExiYgwBqbm7sIECDQewICrEpmKsCqhHWpRS+ZfXU2//kHc/uCu5d6rQuqERBgVePayqoCrFaO3aYJECDwcAEBljNBgAABAvcLCLAqOQkCrEpYl1q0THLS387JW0+f6ZcJl6pVzQUCrGpcW1lVgNXKsds0AQIEBFjOAAECBAgsWUCAVcnJEGBVwjriokf84cfZ9ewDM1AOjvgeF3ZGQIDVGUdVkgiwHAMCBAgQuO+PAy8CBAgQIDAsIMCq5BwIsCphHXHReQMLstesw3LYH3404ntc2BkBAVZnHFURYDkDBAgQIHC/gADLSSBAgACB+wUEWJWcBAFWJayjLvr6U/fOz/5yVoa/WujVHQEBVnecW7GKT2C1Ysw2SYAAgaUJCLCWJuTfEyBAoC0CAqxKJi3AqoR11EX/cu9N2fLE3XPVXdeN+l43jE1AgDU2N3ctQUCA5VgQIECAgE9gOQMECBAg8ICAAKuSwyDAqoR1TEVvnDs7L/rRf2X4f72qFxBgVW/cmhUEWK0ZtY0SIEDg0QR8Asv5IECAAIH7BQRYlZwEAVYlrGMuesJfz852v9gni4YGxlzDjSMTEGCNzMlVIxAQYI0AySUECBDofQEBVu/P2A4JECAwMgEB1sicRnmVAGuUYF24/Ct/OD4fPvfQLBpc3IXV2ruEAKu9s+/4zgVYHSdVkAABAk0UEGA1cWp6JkCAQBUCAqwqVCPAqoR1XEXLlPcFWAf+/tgM/7NXNQICrGpcW1lVgNXKsds0AQIEHi4gwHImCBAgQOB+AQFWJSdBgFUJ67iLzlk8L1ue9KGcc9NlQqxxay65gACrItg2lhVgtXHq9kyAAIF/ERBgORQECBAgIMCq8AwIsCrEHWfpOxfem21P2TNn33TZOCu5fUkCAiznomMCAqyOUSpEgACBJgsIsJo8Pb0TIECgkwI+gdVJzQdqCbAqYe1Y0Ytvuyqv/PmuGQ6zvDorIMDqrGerqwmwWj1+mydAgMA/BQRYzgIBAgQI3C8gwKrkJAiwKmHtaNFzb748W5/8YSFWR1UTAVaHQdtcToDV5unbOwECBB4QEGA5DAQIECAgwKrwDAiwKsTtYOlD//DDfPDsAzNUeqh7p1gFWJ2SVCcCLIeAAAECBJIIsBwDAgQIEBBgVXgGBFgV4naw9ILBRfn0hd/IFy7+TgertruUAKvd8+/o7gVYHeVUjAABAk0VEGA1dXL6JkCAQKcFfIWw06L31RNgVcJaSdGhcihv/uUnc/y1v6qkftuKCrDaNvEK9yvAqhBXaQIECDRHQIDVnFnplAABAtUKCLAq8RVgVcJaWdEb587Oy0+Ykavv+ntla7SlsACrLZPuwj4FWF1AtgQBAgTqLyDAqv+MdEiAAIHuCAiwKnEWYFXCWmnRm+bdno1/8oH8+Z4bKl2n14sLsHp9wl3cnwCri9iWIkCAQH0FBFj1nY3OCBAg0F0BAVYl3gKsSlgrL3rqdedly5P2qHydXl5AgNXL0+3y3gRYXQa3HAECBOopIMCq51x0RYAAge4LCLAqMRdgVcLalaLf+OPP88HfHpi5Awu6sl6vLSLA6rWJTuB+BFgTiG9pAgQI1EdAgFWfWeiEAAECEysgwKrEX4BVCWtXig6WQ9lr1qE54PfHdmW9XltEgNVrE53A/QiwJhDf0gQIEKiPgACrPrPQCQECBCZWQIBVib8AqxLWrhWdN7Aw25/2sZx83ayUZdm1dXthIQFWL0yxJnsQYNVkENogQIDAxAoIsCbW3+oECBCoj4AAq5JZCLAqYe1q0TsW3pNtT94r59x8WVfXbfpiAqymT8GNsRAAACAASURBVLBG/QuwajQMrRAgQGDiBARYE2dvZQIECNRLQIBVyTwEWJWwdr3oJbOvzran7JXr59za9bWbuqAAq6mTq2HfAqwaDkVLBAgQ6L6AAKv75lYkQIBAPQUEWJXMRYBVCeuEFL149lXZ/IQPZvgTWV5LFxBgLd3IFSMUEGCNEMplBAgQ6G0BAVZvz9fuCBAgMHIBAdbIrUZxpQBrFFg1v3SoLHPkFT/JB88+MANDgzXvduLbE2BN/Ax6pgMBVs+M0kYIECAwHgEB1nj03EuAAIFeEhBgVTJNAVYlrBNWdLAczH6Xfj8fPe+ICeuhKQsLsJoyqQb0KcBqwJC0SIAAgeoFBFjVG1uBAAECzRAQYFUyJwFWJawTWnTuwIK859f75gfXnDGhfdR9cQFW3SfUoP4EWA0allYJECBQnYAAqzpblQkQINAsAQFWJfMSYFXCOuFF5w7Mz0Y/3iGX3X7NhPdS1wYEWHWdTAP7EmA1cGhaJkCAQOcFBFidN1WRAAECzRQQYFUyNwFWJay1KHrN3ddnq5M/nKvvuq4W/dStCQFW3SbS4H4EWA0entYJECDQOQEBVucsVSJAgECzBQRYlcxPgFUJay2Klklm3Xx5XvrTHTNYDtWipzo1IcCq0zQa3osAq+ED1D4BAgQ6IyDA6oyjKgQIEGi+gACrkhn2coB14W1/zLRlVskTVlyrErumFP3O1adkxllfzr2L5zWl5a70KcDqCnM7FhFgtWPOdkmAAIGlCAiwHBECBAgQuF9AgFXJSejlAGs4uPn8xd/JJdsdk6n9kyvxa0LRoXIoH551aA78/bFNaLdrPQqwukbd+wsJsHp/xnZIgACBEQgIsEaA5BICBAi0QkCAVcmYeznA+vZVp+Sdv/ps3vXM1+Sol34kU1ocYs0fWJgdfvPFfPdPv0hZDn+50EuA5Qx0TECA1TFKhQgQINBkAQFWk6endwIECHRSQIDVSc0HarUhwBre7AEb7Zrdn/vmSgybUvSuhXOy+Ym75sJb/9iUlivtU4BVKW+7iguw2jVvuyVAgMAjCAiwHA0CBAgQuF9AgFXJSWhLgNVXFPn6pvvkXc94TYqivW8v/njn3/LaUz/ilwmTCLAq+U9KO4sKsNo5d7smQIDAwwTa+w7TUSBAgACBhwoIsCo5EW0JsIbxVpm6Yi7e7ug8acXHVmLZlKKX3H51XvGzXXLnwnub0nIlfQqwKmFtZ1EBVjvnbtcECBAQYDkDBAgQILBEAQFWJQejTQHWMODjV3hMTtxq/6y32lMq8WxC0eGHun/76lPy/jO/kMVDg01ouZIeBViVsLazqACrnXO3awIECAiwnAECBAgQEGB17wy0LcAalt10nRfk1K0OyNT+Kd2DruFK+//++/nIrMMy1NKHuguwangom9qSAKupk9M3AQIEOirgK4Qd5VSMAAECDRbwCaxKhtfGAKtIkTc/7ZX56sv2zgqTl63EtQlF7100L+//zRdz7DW/bEK7He9RgNVx0vYWFGC1d/Z2ToAAgQcJCLAcBwIECBC4X0CAVclJaGOA9U/IT73ov/KpF743bX6zMVgOZZOffCCzbvlDJeerzkUFWHWeTsN6E2A1bGDaJUCAQDUCbX5PWY2oqgQIEGiqgACrksm1OcBaacry+crGe+Qdz9iyEtumFL36ruvympM/lGvvvqEpLXekTwFWRxgVGRYQYDkHBAgQIHDfHwdeBAgQIEBgWECAVck5aHOA9U/QM7b9SjZbZ/1KfJtS9JLZV+elP90xcxbPb0rL4+5TgDVuQgX+KSDAchYIECBAQIDlDBAgQIDAAwICrEoOgwAreeaqT8ivtz00ay23eiXGTSn6P9f8Mu/79eczd2BBU1oeV58CrHHxufnBAgIs54EAAQIEBFjOAAECBAgIsKo9AwKs+32ftNLa+d0bv5HVl1m5WvAaVy9TZs9Zh+Wg3x+b4Wdj9fpLgNXrE+7i/gRYXcS2FAECBOor4CuE9Z2NzggQINBdAZ/AqsRbgPV/rG97+hb5zis+WYlzU4ouHhrIzr/9cr525Qkpy7IpbY+pTwHWmNjctCQBAZZzQYAAAQI+geUMECBAgMADAgKsSg6DAOuhrJ964XvysfXfmcl9kyrxbkLROxbck1eduFsuuu2PTWh3zD0KsMZM58aHCwiwnAkCBAgQEGA5AwQIECAgwKr2DAiwHuo7qa8/R750z7zn37atFr7m1f8+55ZsffKeuez2a2re6djbE2CN3c6dDxMQYDkSBAgQICDAcgYIECBAQIBV7RkQYP2r70pTls+vtz0sL5j29Grxa179nJsvz7an7JnhT2T14kuA1YtTnaA9CbAmCN6yBAgQqJeAZ2DVax66IUCAwMQJ+AphJfYCrCWzrr38Gjl5qwPy3NWfWol7E4oOPwPrJ3/5Td56+qezYHBhE1oeVY8CrFFxufjRBARYzgcBAgQI+ASWM0CAAAECDwgIsCo5DAKsR2Z92drPywlb7p+VpixXiX1Tin7p0u9mn/OOymA52JSWR9SnAGtETC4aiYAAayRKriFAgEDPC/gEVs+P2AYJECAwQgEB1gihRneZAOuRvYbfhLzmCRvl2M0/kxUmtzfEmrN4fnY6a7985+pTR3e4an61AKvmA2pSewKsJk1LrwQIEKhMQIBVGa3CBAgQaJiAAKuSgQmwHp11OOT42AvelU+/+D0p0t63JYPlUF5z0h755d9/lzJlJWex20UFWN0W7+H1BFg9PFxbI0CAwMgF2vtOceRGriRAgEA7BARYlcxZgLV01uUmTc3+G+2aHf/99Uu/uIevuObu6/PyE3bO9XNu7YldCrB6Yoz12IQAqx5z0AUBAgQmWECANcEDsDwBAgRqIyDAqmQUAqyRsS43aZn86NX/nS0ev+HIbujRq66886/Z7ISdc/O8Oxq/QwFW40dYnw0IsOozC50QIEBgAgUEWBOIb2kCBAjUSkCAVck4BFgjZ33iio/Nma89LE9Yca2R39SDVx537Rl56+kzMzDU7Ie6C7B68HBO1JYEWBMlb10CBAjUSkCAVatxaIYAAQITKCDAqgRfgDU61n9b9Yn55TYHZ53lp43uxh66evgZWJ++8Bv5/MXfyaLBxY3dmQCrsaOrX+MCrPrNREcECBCYAAEB1gSgW5IAAQK1FBBgVTIWAdboWIuiyJue/PIc96rPje7GHrt6+KHuu559YA7/w48auzMBVmNHV7/GBVj1m4mOCBAgMAECAqwJQLckAQIEaikgwKpkLAKssbHu8dy3ZN8Ndsgy/VPGVqAH7rp9wd3Z6uQP5fxbrmjkbgRYjRxbPZsWYNVzLroiQIBAlwUEWF0GtxwBAgRqKyDAqmQ0AqyxsU7tn5wjX7ZX3vWMrcZWoEfuunPhvdn857vmotuuatyOBFiNG1l9GxZg1Xc2OiNAgEAXBQRYXcS2FAECBGotIMCqZDwCrLGzLj952fxsiy9ms3XXT5H2vmX57U2/zzYn75m7F80ZO+YE3CnAmgD0Xl1SgNWrk7UvAgQIjEqgve8GR8XkYgIECLRAQIBVyZAFWONjXXf5aTll6wPz7NWePL5CDb57+KHu59x8eV79890yb2BBY3YiwGrMqOrfqACr/jPSIQECBLogIMDqArIlCBAg0AgBAVYlYxJgjZ91+lrPzo9f/fmstdzq4y/W4ApfuuR7+ch5hzVmBwKsxoyq/o0KsOo/Ix0SIECgCwICrC4gW4IAAQKNEBBgVTImAVZnWF/9uA3yw1fvmxUmL9eZgg2ssnBwcT549oE56oqfNqJ7AVYjxtSMJgVYzZiTLgkQIFCxgACrYmDlCRAg0BgBAVYloxJgdYa1v+jL3i94Rz79ovekv+jvTNEGVhkoB/PaUz6Sk/92bu27F2DVfkTNaVCA1ZxZ6ZQAAQIVCgiwKsRVmgABAo0SEGBVMi4BVudYJ/X15wsb7JgPPe8/O1e0gZVumnd7nvODt2f2grtq3b0Aq9bjaVZzAqxmzUu3BAgQqEhAgFURrLIECBBonIAAq5KRCbA6y7rq1BXzvVfOzJaPn97Zwg2rdtVd12WLE3fPX++9qbadC7BqO5rmNSbAat7MdEyAAIEKBARYFaAqSYAAgUYKCLAqGZsAq/Osq0xdIRe84Rt52iqP63zxBlX88Z/PzBt/sU9tOxZg1XY0zWtMgNW8memYAAECFQgIsCpAVZIAAQKNFBBgVTI2AVYlrHn+Gk/PCa/ZL+suP62aBRpS9aDLfpB9zj8y8wcW1q5jAVbtRtLchgRYzZ2dzgkQINBBAQFWBzGVIkCAQKMFBFiVjE+AVQlrihTZ/HEvyi+2PqiaBRpSdbAczE5nfTlfreEvEwqwGnKImtCmAKsJU9IjAQIEKhcQYFVObAECBAg0RECAVcmgBFiVsD5QdJf1tssXp++UZfunVrtQjavfufDevP2MT+ekmv0yoQCrxoemaa0JsJo2Mf0SIECgEgEBViWsihIgQKCBAgKsSoYmwKqE9YGiw79M+K2Xfyxve/oW1S5U8+p3Lbw3Lz9h51w6+0+16VSAVZtRNL8RAVbzZ2gHBAgQ6ICAAKsDiEoQIECgJwQEWJWMUYBVCetDii43aZl8+xWfzBue/LL7vlrY1tf5t/xvXnvKR3LL/DtqQSDAqsUYeqMJAVZvzNEuCBAgME6B9r7LGyec2wkQINBzAgKsSkYqwKqE9V+KrrXc6jn79UfmKSut050Fa7rKhbf+MS/72U6ZN7BgwjsUYE34CHqnAQFW78zSTggQIDAOAQHWOPDcSoAAgZ4SEGBVMk4BViWsSyw6/MuEP97i83niio/t3qI1W2mwHMpXLj8+u59z8IR3JsCa8BH0TgMCrN6ZpZ0QIEBgHAICrHHguZUAAQI9JSDAqmScAqxKWB+x6CvWfWFO2PJLGf5aYZtfe5xzcA687AcTSiDAmlD+3lpcgNVb87QbAgQIjFFAgDVGOLcRIECg5wQEWJWMVIBVCesjFh1+qPuMZ78x+0/fJcP/3NbXvYvn5W2nfzon/PW3E0YgwJow+t5bWIDVezO1IwIECIxBQIA1BjS3ECBAoCcFBFiVjFWAVQnrUov+94YfyN7Pf3urH+p+96I5ed5x78xf771pqV5VXCDAqkK1pTUFWC0dvG0TIEDgoQICLCeCAAECBO4XEGBVchIEWJWwLrXo6suslG9v9sm85gkbLfXaXr7gf+/4c7Y9Za/8+Z4bu75NAVbXyXt3QQFW787WzggQIDAKAQHWKLBcSoAAgZ4WEGBVMl4BViWsIyra39eXi950dJ67+lNHdH2vXvTzv56dN/5inyweGujqFgVYXeXu7cUEWL09X7sjQIDACAUEWCOEchkBAgR6XkCAVcmIBViVsI646PAvE/5i64MybdlVRnxPL174tStPyG5nH5h5Awu7tj0BVteoe38hAVbvz9gOCRAgMAIBAdYIkFxCgACBVggIsCoZswCrEtZRFd1orfXyy20ObvUvEy4eGsxOZ+2Xb1z585QpR+U31osFWGOVc9+/CAiwHAoCBAgQSCLAcgwIECBA4H4BAVYlJ0GAVQnrqIvu9O9vyEEb75bJfZNGfW+v3DBn8by878wv5AfXnN6VCEuA1Ssnpwb7EGDVYAhaIECAwMQLCLAmfgY6IECAQD0EBFiVzEGAVQnrqIsWRZFvbLpP3vGMLdNf9I36/l654Zb5d2bLE3fPJbOvrnxLAqzKiduzgACrPbO2UwIECDyKgADL8SBAgACB+wUEWJWcBAFWJaxjKjq1f3K+tdnH8+anbt7qj6Bffse12frkD+e6e28Zk+NIbxJgjVTKdUsVEGAtlcgFBAgQaIOAAKsNU7ZHAgQIjERAgDUSpVFfI8AaNVmlNzx2uTVy9uuPzJNXWrvSdepe/KybLs22J++VuxfNqaxVAVZltO0rLMBq38ztmAABAksQEGA5FgQIECBwv4AAq5KTIMCqhHVcRZ+80jo5desD87SV1x1XnSbfPFAO5utX/DwzfrtfhspqHuouwGryCalZ7wKsmg1EOwQIEJgYAQHWxLhblQABAvUTEGBVMhMBViWs4y661RM2yvGv2jfLTpo67lpNLrDP+UfmS5d8L4PlYMe3IcDqOGl7Cwqw2jt7OydAgMCDBARYjgMBAgQI3C8gwKrkJAiwKmEdd9HhcOVtT391vrbpRzOlxb9MePeiuXnbGTNz4l/PGbfpwwsIsDpO2t6CAqz2zt7OCRAgIMByBggQIEDgXwQEWJUcCgFWJawdK/r5DXfM3s9/e8fqNbHQvIEFednPdspFt/4xnfwyoQCriaehpj0LsGo6GG0RIECguwI+gdVdb6sRIECgvgICrEpmI8CqhLVjRVeeskKO2ewTee2TNulYzSYW+sMdf84WJ+2eG+bc1rH2BVgdo1RIgOUMECBAgEDS6l+RdgAIECBA4MECAqxKzoMAqxLWjhbt7+vLb197RKavtV5H6zat2K9uuChvOPWjHftlQgFW005AjfsVYNV4OFojQIBA9wR8Aqt71lYiQIBAvQUEWJXMR4BVCWvHi663+lNy9uuOzEpTlu947SYV/OYfT8yMs/bPgsFF425bgDVuQgX+KSDAchYIECBAwCewnAECBAgQeEBAgFXJYRBgVcJaSdEXrvnMnLrVgVl9mZUrqd+EogNDg9nt3INyxB9+kqFyaFwtC7DGxefmBwsIsJwHAgQIEBBgOQMECBAgIMCq9gwIsKr17XT19z/rdTnqZXt1umyj6g1/+uoDv/lSjrnq5HH1LcAaF5+bBVjOAAECBAg8TMBXCB0JAgQIELhfwCewKjkJAqxKWCsr2lcU+fJGu2bGs9+YyX2TKlun7oVvmHtbtj15r1w8+6oxtyrAGjOdGx8u4BNYzgQBAgQI+ASWM0CAAAECDwgIsCo5DAKsSlgrLTocXB292cfzn097VaXr1L34dXNuyWY/2znX3nPDmFoVYI2JzU1LEhBgORcECBAgIMByBggQIEBAgFXtGRBgVetbVfXHLLdaTtvmoDxntadWtUQj6p5x/YV54y/2GdMvEwqwGjHiZjQpwGrGnHRJgACBigV8hbBiYOUJECDQGAGfwKpkVAKsSli7UvRxK6yZ07Y5OM9c5QldWa+OiwyWQ/nhtb/Kf57+qQyV5ahaFGCNisvFjyYgwHI+CBAgQMAnsJwBAgQIEHhAQIBVyWEQYFXC2rWiWz1hoxy7+WeywuTlurZmHRf61O++ln0vOibDgdZIXwKskUq5bqkCAqylErmAAAECbRDwCaw2TNkeCRAgMBIBAdZIlEZ9jQBr1GS1uqFIkW2euHF+8KrPZpn+KbXqrZvNzB1YkO1P+1hO/tusES8rwBoxlQuXJiDAWpqQf0+AAIFWCAiwWjFmmyRAgMAIBARYI0Aa/SUCrNGb1e2OSX39+eyL35+9n//2urXW1X4WDi7Oq078YM668dIRrSvAGhGTi0YiIMAaiZJrCBAg0PMCAqyeH7ENEiBAYIQCAqwRQo3uMgHW6LzqevXwp6++8fJ9Wv/LhFfddV1e9MP/yr2L5y11VAKspRK5YKQCAqyRSrmOAAECPS0gwOrp8docAQIERiEgwBoF1sgvFWCN3KruV640ZfmcsOWX8rK1n1/3Vivtb9Ytf8gbTv1obp53+6OuI8CqdAztKi7Aate87ZYAAQKPIPD/2rsPaGvK8nzc9+zzdXrviopdREXKR1EQwRbsvWOjYxcVy1FsRBGlo0b4JyYWTBQsqFHBKB0SDYqiJsYWBRREKV87Z/45aH6xoHzlzOx5Z669XCuu5Z7nfZ7rmRU299pntgDLrUGAAAECvxUQYDVyJwiwGmEdW9E7rrN5/vWJZ2TDBeuOrYcuHHzGVZ/J8899e6b/wkPdBVhd2FRPehBg9WSRxiBAgMCaCQiw1szP1QQIEOiPgACrkV0KsBphHWvRXTe7dz7x8Hdk80UbjbWPcR4+VU/lqItPy7u/8ZEsn15xm60IsMa5oZ6dLcDq2UKNQ4AAgdUTEGCtnpurCBAg0D8BAVYjOxVgNcI61qIzv0z43Hs8Mh/c+6ix9jHuw6fq6bzgvLfljO98VoA17mX0/XwBVt83bD4CBAislIAAa6WYvIkAAQIDEBBgNbJkAVYjrJ0o+qadXnDrLxPOm5jbiX7G0cRPb7o2j/vcq3PpNd/+k+N9A2scG+npmQKsni7WWAQIEFg1AQHWqnl5NwECBPorIMBqZLcCrEZYO1F0/sS8fGifN+aJd9m7E/2Mq4lbVizNDh97dr53w4//oAUB1rg20sNzBVg9XKqRCBAgsOoCAqxVN3MFAQIE+ikgwGpkrwKsRlg7U3TjBevlY/u9JXtvtWNnehpHI1/8yaV5zDlH5uYVS/7f8QKscWyip2cKsHq6WGMRIEBg1QQEWKvm5d0ECBDor4AAq5HdCrAaYe1U0W3W3jRffvSJ2W69rTvVV5vN1EnO/clledinX5oV9dStRwuw2txAz88SYPV8wcYjQIDAygkIsFbOybsIECDQfwEBViM7FmA1wtq5ovts9cB8dL+js9GC9TrXW1sN1anz5ss+mMlL/0aA1Rb6UM4RYA1l0+YkQIDAXxQQYLlBCBAgQOC3AgKsRu4EAVYjrJ0s+rBtds3Zjzhm0A91nwmx9v/sK/OZH17gG1idvEsLbUqAVejitE2AAIHZFRBgza6nagQIEChXQIDVyO4EWI2wdrLovNGcvHbH5+aND3xeJ/trq6mbli+59ZcJv/TTy3LGQ16XZ93t4W0d3eo5T/z8UfnH/zy31TMHe5gAa7CrNzgBAgR+X0CA5X4gQIAAgd8KCLAauRMEWI2wdrroB/d+bQ64x191usemm/vJjdfkPh99Rk7Y8+UCrKaxh1BfgDWELZuRAAECtysgwLpdIm8gQIDAQAQEWI0sWoDVCGuni268YP2cud9bstdWD+h0n00392+/uCq/Wnpjb3+h0Tewmr6Dfq++AKtFbEcRIECguwICrO7uRmcECBBoV0CA1Yi3AKsR1s4X3WD+uvnWU/8+WyzaqPO9anD1BARYq+e2WlcJsFaLzUUECBDom4AAq28bNQ8BAgRWV0CAtbpyf/E6AVYjrEUUXbz5ffLJhx+TTRduUES/mlw1AQHWqnmt0bsFWGvE52ICBAj0RUCA1ZdNmoMAAQJrKiDAWlPB27xegNUIazFFn3HX/XLGQ16fOaOJYnrW6MoJCLBWzmlW3iXAmhVGRQgQIFC6gACr9A3qnwABArMlIMCaLck/qCPAaoS1qKKvuv8zcvROL8q8iblF9a3ZvywgwGrxDhFgtYjtKAIECHRXQIDV3d3ojAABAu0KCLAa8RZgNcJaVNGZ4Ooj+x6dx95pz1Tx0auo5f2FZgVYLW5SgNUitqMIECDQXQGforq7G50RIECgXQEBViPeAqxGWIsruu68tfJ3+7wxj952j+J61/BtCwiwWrwzBFgtYjuKAAEC3RUQYHV3NzojQIBAuwICrEa8BViNsBZZ9M7rbpl/3v/4zPxfr/IFBFgt7lCA1SK2owgQINBdAQFWd3ejMwIECLQrIMBqxFuA1QhrsUUfuOk98qlHvDObL9qo2Bk0/lsBAVaLd4IAq0VsRxEgQKC7AgKs7u5GZwQIEGhXQIDViLcAqxHWoos+/s573frnhIvmzC96jqE3L8Bq8Q4QYLWI7SgCBAh0V0CA1d3d6IwAAQLtCgiwGvEWYDXCWnTRuaM5eckOT8k7dj0kIw91L3aXAqwWVyfAahHbUQQIEOiugACru7vRGQECBNoVEGA14i3AaoS1F0VPffCr8sJ7PjqjatSLeYY2hACrxY0LsFrEdhQBAgS6KyDA6u5udEaAAIF2BQRYjXgLsBph7UXRjRasl3962NvzoC3v14t5hjaEAKvFjQuwWsR2FAECBLorIMDq7m50RoAAgXYFBFiNeAuwGmHtTdF1562VCx73vtx7wzv1ZqahDCLAanHTAqwWsR1FgACB7goIsLq7G50RIECgXQEBViPeAqxGWHtVdNfN7p3P/dVxWW/e2r2aq+/DCLBa3LAAq0VsRxEgQKC7AgKs7u5GZwQIEGhXQIDViLcAqxHW3hV97J0edOsvE649d2HvZuvrQPt/9pX59A/P7+t43ZpLgNWtfeiGAAECYxIQYI0J3rEECBDonIAAq5GVCLAaYe1l0Zft8NT89eLDMuGh7kXsd49PHJTzf/7vRfRafJMCrOJXaAACBAjMhoAAazYU1SBAgEAfBARYjWxRgNUIay+LzpuYm9P3PipP3W7fjCof0bq+ZAFWixsSYLWI7SgCBAh0V8Cno+7uRmcECBBoV0CA1Yi3AKsR1t4WXThnfv7hoW/KzJ8UenVbQIDV4n4EWC1iO4oAAQLdFRBgdXc3OiNAgEC7AgKsRrwFWI2w9rrondfdKl/c/72507pb9nrO0ocTYLW4QQFWi9iOIkCAQHcFBFjd3Y3OCBAg0K6AAKsRbwFWI6y9L7rdelvn3MecmK3X2rT3s5Y6oACrxc0JsFrEdhQBAgS6KyDA6u5udEaAAIF2BQRYjXgLsBphHUTRJ9xl7/zDQyczbzR3EPOWNqQAq8WNCbBaxHYUAQIEuisgwOrubnRGgACBdgUEWI14C7AaYR1E0TmjiTz37o/KaXsdmVF8ZOva0gVYLW5EgNUitqMIECDQXQGfhrq7G50RIECgXQEBViPeAqxGWAdV9Pg9XprDt3/SoGYuYVgBVotbEmC1iO0oAgQIdFdAgNXd3eiMAAEC7QoIsBrxFmA1wjqoouvNWyuffdS7s9vm2w9q7q4PK8BqcUMCrBaxHUWAAIHuCgiwursbnREgQKBdAQFWI94CrEZYB1d04Zz5+ZfHnpIHbnKPwc3e1YEFWC1uRoDVIrajCBAg0F0BAVZ3d6MzAgQItCsgwGrEW4DVCOsgi95/k7vl0id8MBPVaJDzd21oAVaLGxFgtYjtBy/3fAAAIABJREFUKAIECHRXQIDV3d3ojAABAu0KCLAa8RZgNcI62KIP3XqnfGTfN2ejBesN1qArgwuwWtyEAKtFbEcRIECguwICrO7uRmcECBBoV0CA1Yi3AKsR1sEWnfng9tIdnpZjdzt8sAZdGVyA1eImBFgtYjuKAAEC3RUQYHV3NzojQIBAuwICrEa8BViNsA666JzRRI7f42V50b0enYlqYtAW4xxegNWivgCrRWxHESBAoLsCAqzu7kZnBAgQaFdAgNWItwCrEdbBF50/MS8f3e/oPGbbPQdvMS4AAVaL8gKsFrEdRYAAge4KCLC6uxudESBAoF0BAVYj3gKsRlgVTbLtOlvkrEcck/tutB2PMQgIsFpEF2C1iO0oAgQIdFdAgNXd3eiMAAEC7QoIsBrxFmA1wqro7wS2WnuTXPS492frtTdl0rKAAKtFcAFWi9iOIkCAQHcFBFjd3Y3OCBAg0K6AAKsRbwFWI6yK/k5g5oPcY+/04HzooZNZNGc+lxYFBFgtYguwWsR2FAECBLorIMDq7m50RoAAgXYFBFiNeAuwGmFV9PcEqlR58nb75MP7vikz/92rHQEBVjvOt54iwGoR21EECBDoroBPOd3djc4IECDQroAAqxFvAVYjrIr+kcDc0Zwcs/jQvPS+T2HTkoAAqyVoAVaL0I4iQIBAtwUEWN3ej+4IECDQnoAAqxFrAVYjrIrehsCc0UTO+avj8tCtHsinBQEBVgvI/3uEb2C1iO0oAgQIdFdAgNXd3eiMAAEC7QoIsBrxFmA1wqronxHYZOH6OfsR78yum92bUcMCAqyGgX+/vACrRWxHESBAoLsCAqzu7kZnBAgQaFdAgNWItwCrEVZF/4LAduttnW8+5UOZPzGPU4MCAqwGcf+4tACrRWxHESBAoLsCAqzu7kZnBAgQaFdAgNWItwCrEVZFb0dgn60fmA8/9E3ZZOEGrBoSEGA1BHtbZQVYLWI7igABAt0VEGB1dzc6I0CAQLsCAqxGvAVYjbAquhICL9vhaXnX4sNSVT7urQTXKr9FgLXKZKt/gQBr9e1cSYAAgR4J+ETTo2UahQABAmskIMBaI74/d7EAqxFWRVdCYE41kTfv/MK88n7PyMwD3r1mV0CANbuef7GaAKtFbEcRIECguwICrO7uRmcECBBoV0CA1Yi3AKsRVkVXUmDhnPn56L5vyf7b7r6SV3jbygoIsFZWahbeJ8CaBUQlCBAgUL6AAKv8HZqAAAECsyMgwJodxz+qIsBqhFXRVRDYcq2Nc+Z+b81um2+/Cld56+0JCLBuT2gW/3cB1ixiKkWAAIFyBQRY5e5O5wQIEJhdAQHW7Hr+rpoAqxFWRVdRYNt1tsh5jzkpd1xn81W80tv/nIAAq8V7Q4DVIrajCBAg0F0BAVZ3d6MzAgQItCsgwGrEW4DVCKuiqyhQpcp+2+ycf3zY27PW3AWreLW335aAAKvF+0KA1SK2owgQINBdAQFWd3ejMwIECLQrIMBqxFuA1Qiroqsp8NS7PjRn7P26zJ+Yt5oVXPa/AgKsFu8FAVaL2I4iQIBAdwUEWN3djc4IECDQroAAqxFvAVYjrIqupsCCiXk5eucX5RX3e/pqVnCZAGsM94AAawzojiRAgED3BARY3duJjggQIDAeAQFWI+4CrEZYFV1DgX982Nvy2Ds9OKPKR8HVpfQNrNWVW43rBFirgeYSAgQI9E/Ap5b+7dREBAgQWD0BAdbqud3OVQKsRlgVXUOBzRdtlLMf+dfZaZN7rmGl4V4uwGpx9wKsFrEdRYAAge4KCLC6uxudESBAoF0BAVYj3gKsRlgVnQWBmV8kPP9xp2WrtTaZhWrDKyHAanHnAqwWsR1FgACB7goIsLq7G50RIECgXQEBViPeAqxGWBWdJYGHbLVjztzvrdlwwbqzVHE4ZQRYLe5agNUitqMIECDQXQEBVnd3ozMCBAi0KyDAasRbgNUIq6KzKHDofZ6QY3c73C8TrqKpAGsVwdbk7QKsNdFzLQECBHojIMDqzSoNQoAAgTUUEGCtIeBtXy7AaoRV0VkUmHmQ++t2PCCvf+ABmVNNzGLlfpcSYLW4XwFWi9iOIkCAQHcFBFjd3Y3OCBAg0K6AAKsR7/222SWf/6vjGqk97qJ/e9U5ec6Xjx53G86fBYG15y7MPzz0TfmrbfeID4crB7rHJw7M+T+/YuXe7F1rJiDAWjM/VxMgQKAnAj6j9GSRxiBAgMAaCwiw1pjwtgo8YJO75/Innt5I7XEXPfGKj+fwr7173G04f5YENpy/bs582Fsz81wsr78ssGx6eWa+gXXpNd9G1YaAAKsNZWcQIECg8wICrM6vSIMECBBoSUCA1Qj03de/Qy574umZ+YZL316vv+R9ecvlZ/RtrEHPc88Nts1nH3Vstl1ni0E73N7w1y/9Tfb85EH51nU/uL23+t9nQ0CANRuKahAgQKB4AQFW8Ss0AAECBGZJQIA1S5B/WGabtTfLBY87LVuvvWkj9cdZ9FlfelM+9N3Pj7MFZzcgsHjz7XPOo47NevPWbqB6P0r+129+lgd98pD8+Mar+zFQ16cQYHV9Q/ojQIBAKwICrFaYHUKAAIECBARYjSxpg/nr5kuPPj733/hujdQfZ9H7fuxZueKX/zHOFpzdkMAz7/awvH+v12TBxLyGTii77GXXfid7n3VYblx+c9mDlNK9AKuUTemTAAECjQoIsBrlVZwAAQIFCQiwGlnWRDWRTzz87dl/2z0aqT+uojcsvTGbnPHILJ9eMa4WnNugwLyJuXnDAw/IUQ94boOnlFv69O98Js8/962pyx2hrM4FWGXtS7cECBBoSECA1RCssgQIEChOQIDV2MpevsPT8q7dDm+s/jgKf/A7n87zz33bOI52ZosCf7vPG/KMuz4so8pHxt9nf+znjsxZP/hqi5sY+FECrIHfAMYnQIDAbwV8GnEnECBAgMBvBQRYjd0J2623db739I81Vr/twtP1dB581iH52s/+ve2jndeywKYLN8gX9n9vdthou5ZP7u5xP7vpF7nT3z8xS6eWdbfJvnUmwOrbRs1DgACB1RIQYK0Wm4sIECDQQwEBVqNL/cL+78m+W+/c6BltFf/ur36UPT55UK695VdtHemcMQpssWijnPuYkzLzi5pDf838yeCbL/tgJi/9wNAp2p1fgNWut9MIECDQUQEBVkcXoy0CBAi0LiDAapT84XfYNZ965Dszp5po9Jw2is88/+cF5709M9/E8hqGwF5bPSCffeSxWThn/jAG/jNTXnPL9dnn7MPzzev+c9AOrQ8vwGqd3IEECBDoooAAq4tb0RMBAgTGISDAalR9k4Ub5MuPPiH32fDOjZ7TdPHl01PZ45MH5pKrr2z6KPU7JvDcezwq79n9xVlv3tod66y9dj7+n+fmGV+czLKp5e0d6qSZh57sn4Mv/DQKAgQIEBi2gABr2Ps3PQECBP5PQIDV6N1QpcrL7/e0vHPxYY2e03TxD333c3nOl4/OdO3315q27lr9mQ+Nh23/xBy3+0syUY261l7j/dy8Ymnu+eGn5Uc3/rzxsxzwRwICLLcEAQIECHiIu3uAAAECBP6fgACr8ZthrbkLc9Hj31/st7Cuvvm6W5999f0bftK4lQO6KTATXB35gGflNfd/dtaeu7CbTTbQ1fLpFTnyopNz3Dc+0kB1JW9XQIB1u0TeQIAAgSEI+AbWELZsRgIECKyMgABrZZTW+D0zzxL6zCPflUVzFqxxrbYLHPuND+dVF57o21dtw3fsvKqqcuC9HpuT9nx5RgP5Jtal1347+559RG5YdlPHtjGQdgRYA1m0MQkQIPCXBQRY7hACBAgQ+K2AAKuVO2H+xLyc8qBX5oB7PKqV82brkEuv+fatD6/+zfKbZ6ukOgULzIRYz7zrw/K2XQ/K1mttWvAkt9/6f/3mZ3nkZ16Wb1//w9t/s3c0IyDAasZVVQIECBQmIMAqbGHaJUCAQGMCAqzGaP+48MyfXl3w+Pdl+w3v0tqZa3LQz2/+Zfb51BG58rofrEkZ1/ZQ4P6b3P3WHydYv6cPdp8JbB//udfkiz+5tIfbK2gkAVZBy9IqAQIEmhMQYDVnqzIBAgTKEhBgtbqv7Te6Sz79yHflDmtv1uq5q3rYkqllOegrf52//e45qT24fVX5BvH+jRasl/fu8ZI87a77ZZT+fLT81dLf5BUXnpjTv/OZTNfTg9hlZ4cUYHV2NRojQIBAmwL9+ZTRppqzCBAg0EcBAVarW535VcJdN7/Prd9eWTAxr9WzV/awZVPL84KvvCMfuupzqeNXB1fWbYjvmzuak4ffYdd8aJ83Zt15axVPcMvU0jz7S2/OP/7Hee79LmxTgNWFLeiBAAECYxcQYI19BRogQIBARwQEWGNZxH7b7JK/fcjrs9miDcdy/p87dOabV0ddfGpOuOLjmfkFNi8CKyNwnw3vfOuvFD522wcV+yuFM7+y+coLT8xZP/iq8Gpllt7GewRYbSg7gwABAp0XEGB1fkUaJECAQEsCAqyWoP/wmJlvYt19gzvkXx5zcjZZuMFYevjjQ29ZsTTP+fLR+fh/nuvPBjuxkbKamKhG2WWze+cf9p3MHdfeoqjmr/rVj/KIz7wsP/j1fxfVd++bFWD1fsUGJECAwMoICLBWRsl7CBAgMAQBAdZYt3zPDbbNsbsdkYffYZfMhFrjen39F9/L6y45Lef86MJMe+bVuNbQi3PnTczNs+728Dz77o/I4s3uk5k/M+zqa+Z5V8dfcWbe9Y1/yG+W+aXNzu1JgNW5lWiIAAEC4xAY3yfkcUzrTAIECBD48wICrLHfHTPfXHnl/Z+RN+/0wrH8y/4nf/CVHHDu2zLzL/NeBGZLYKKayO5b3Ccn7fmK3KeDv7z51Z99PY/73Gty3ZJf+5PB2Vr6bNcRYM22qHoECBAoUkCAVeTaNE2AAIEGBARYDaCuesmZb18t3vw+OXz7J+Xxd35w5o3mrnqRVbhi5uHsX/3vb9z67ZNP/OA837paBTtvXTWBW4OszbfP/tvukYfdYZdsP8Ywa9n08nz2hxfm77/7+Xzqh+dn6dSyVRvGu9sUWJK6ekwOveALbR7qLAIECBDonoAAq3s70REBAgTGIyDAGo/7Xzj1Xhtsm1MffGT23GKHRnr7+c3X5XnnvvXWPxf0ItC2wL02vFNee/9n56l33Tcz3z5s4zUT2H7ke1/MS89/b66+5bo2jnTGGgvUV6YePSOHXvD1NS6lAAECBAgULSDAKnp9midAgMAsCpy8+LIkO85iRaVmQWDOaCI7bXLPzPxa4YO3vH923vSeWWvuwtWqPFVP5xu/+F6+8rN/yz//+JKc+9N/zcyvDXoRGKfAOnMXZcdN75EdNrprdthou9x3o+1y1/W3ybpzF61xWzP3979d+91ccu2Vuejn38rXfv6N/OTGa9a4rgItCtQ5OlPXvjVHfH9pi6c6igABAgQ6KCDA6uBStESAAIGxCJy0+GkZ5e9Tj/EJ4mMZvKxDF81ZkIdu88A8+o57Zq+tHpCt19o0VXXbj32v6zrXLvlVLvz5FTnnRxfd+quCv152U1kD63awAvfe4E7ZbYv7ZqdN75kdNrxL7rze1r8NtaqZ//zhR9iZb1bN/OeaW67PN6/7z1x49Tfz5Z9elvN/doXnWpV9B92SedU984ILflj2GLonQIAAgdkQEGDNhqIaBAgQ6IPA8busm7mjr6XO9n0YZygzLJiYl/Xnr525f/SsrJlvW924/GaB1VBuhIHMudbcBVkwMT8zQe7vv25afktuWbE0t0z5kk6vboWqOivLr3mKb1/1aquGIUCAwGoLCLBWm86FBAgQ6KHASbsdkqo+Mbd+x8GLAAECBAiMTWAqmd4jh1x80dg6cDABAgQIdErAv6B0ah2aIUCAwJgFJvdakE2XHpfkRUnaearymEd2PAECBAh0TmBJ6rwkh154Wuc60xABAgQIjE1AgDU2egcTIECgowKn7bgoU3P/Lqkek2Sio11qiwABAgT6KFBlWer6uGy8zVF58plTfRzRTAQIECCwegICrNVzcxUBAgT6LXDM7utknelnJ3lVkjv0e1jTESBAgEA3BOrLU+dt2WSbs4RX3diILggQINAlAQFWl7ahFwIECHRNYObB7nOqk5Lq8UnW/DftuzaffggQIECgCwK/TKr35Jr93pbJyekuNKQHAgQIEOiegACrezvREQECBLolMLnXnGxyy66pqpf87s8K53SrQd0QIECAQJECdW5K6r9JPfW+HHrplalSFzmHpgkQIECgFQEBVivMDiFAgEAPBCYzyqaLn5C6PjZVtaXnY/Vgp0YgQIDAeASWp8oVmaoPyWEXXTyeFpxKgAABAqUJCLBK25h+CRAgMG6Bk3baPNXE05Pq1Uk2GXc7zidAgACBggTqfCtV3pZ6/tk59LwbC+pcqwQIECAwZgEB1pgX4HgCBAgUK3Dcnltk3oqTU2WfJOsUO4fGCRAgQKBZgZk/DaxzXaar/y/VvDcKrprlVp0AAQJ9FRBg9XWz5iJAgEAbArc+H2v5nsn0Ub8Lsto41RkECBAgUI7AiqQ+IyumT8wRl3yjnLZ1SoAAAQJdExBgdW0j+iFAgECpAift+txU1ev/519Utk2qUalj6JsAAQIEZkVgeTLz54L1S3PwRefNSkVFCBAgQGDQAgKsQa/f8AQIEJhlgZMetE2qZc/63fOx/FnhLPMqR4AAgSIE6vwkqV+fas5ZOeRr1xfRsyYJECBAoPMCAqzOr0iDBAgQKFDglF23TV0dn9z6fKxFBU6gZQIECBBYdYFfpqo/mhvXfVVe+YWbVv1yVxAgQIAAgT8vIMBydxAgQIBAMwLvXrwwi6qdMp23pKr3SB3/zGlGWlUCBAiMW2AqdT6Wqaljct2ib2XyvBXjbsj5BAgQINA/Af8y0b+dmogAAQLdEjh9rwW5+ZZDU40OS3LHRJDVrQXphgABAqstMJXkiv/5/+tvysEXnpWZXxv0IkCAAAECDQkIsBqCVZYAAQIE/kjgxN3umKp+fqq83J8VujsIECBQvMDPMp3XZe6ys3Pg5b8ofhoDECBAgEDnBQRYnV+RBgkQINAzgRN3fUBG1TGp68WpqrV6Np1xCBAg0HeBXyb5bOZOvzYvvPgnfR/WfAQIECDQHQEBVnd2oRMCBAgMR2DmzwpvWbJ36hyfqtpuOIOblAABAiUL1OdkavoN+eUl/5rJTJc8id4JECBAoDwBAVZ5O9MxAQIE+iPwpCdN5CE/fnXq6oWpcgcPeu/Pak1CgEBvBGYe0H5l6ul35rCL/643UxmEAAECBIoTEGAVtzINEyBAoGcCkxll4922STX9slTVET2bzjgECBAoWKBelrp6VeYs+3vPuSp4jVonQIBATwQEWD1ZpDEIECDQC4FTFu+c6eotqeq9ksztxUyGIECAQHkCv0nqs1JVr87BF/60vPZ1TIAAAQJ9FBBg9XGrZiJAgEDJAifttXYmlu6SqZyaKp6PVfIu9U6AQIkCX81UDs1mN1yVJ1+5rMQB9EyAAAEC/RQQYPVzr6YiQIBA+QIn7rxRRqNXJnl6Um1T/kAmIECAQKcFvpmqPjlX//pvMim46vSmNEeAAIGBCgiwBrp4YxMgQKAIgTpV3rf7Nlkx/cZUeU6SiSL61iQBAgTKEbgxdX105iz/oOdclbM0nRIgQGCIAgKsIW7dzAQIEChNYOZB75vu+rCkelWSxUnmlzaCfgkQINApgSq/yXR9TjJ6ew694Oud6k0zBAgQIEDgNgQEWG4LAgQIEChH4LQdF2XF3P0zqk5OnQ3LaVynBAgQ6JTANzNdvShzl16WAy9f3qnONEOAAAECBP6MgADLrUGAAAEC5Qkcv+cmmVh+ZKrqGUk2L28AHRMgQKB1gTrJd5L6A1m44OQccN6S1jtwIAECBAgQWAMBAdYa4LmUAAECBMYoMDk5ysZf2Caj+oQk+4+xE0cTIECgAIHpd2bFsnfmiH/7RZKZMMuLAAECBAgUJSDAKmpdmiVAgACBPxG49flYix+d5GVJ9kjin21uEwIECPxWYElSfyaj6XfkoEsug0KAAAECBEoW8CG/5O3pnQABAgT+T+DdixdmUR6b6ZyUZAM0BAgQGLjAD1Pn6bn2hssyeeWygVsYnwABAgR6ICDA6sESjUCAAAECvydw/G53ycT0EamqZyYe9O7eIEBgcAL/lTqnZc6yU3Lg5TcMbnoDEyBAgEBvBQRYvV2twQgQIDBggZk/K9xkp61SzTkjyUMGLGF0AgSGIzCVqj4tv554dY48/0bPuRrO4k1KgACBoQgIsIayaXMSIEBgiAKn77UgNy95QkbVoUl2Tp2JITKYmQCBHgtUmfnzwHOS6vhstNVX8uQzp3o8rdEIECBAYMACAqwBL9/oBAgQGIzA8Y+Yn9GvDs4of51k7mDmNigBAv0WqHN1pusD8suLPp/JTPd7WNMRIECAwNAFBFhDvwPMT4AAgSEJnLz73ZOpFyd5elKtN6TRzUqAQK8EfpQ6H8i86fflhRdf3avJDEOAAAECBP6MgADLrUGAAAECwxM4cee7ZTRxdpK7D294ExMgULjApzOx7IAcePkvCp9D+wQIECBAYJUEBFirxOXNBAgQINAbgZk/K5y4/mmpqpcmuW9v5jIIAQL9E6jr6VTVF1LlPTn4ws/3b0ATESBAgACB2xcQYN2+kXcQIECAQN8FTl78hiSvTTK/76OajwCBggSq1KlzU5Ln5ZALzyyoc60SIECAAIFZFxBgzTqpggQIECBQoECVUxbfL6kPTqrnpM68AmfQMgEC/RK4IXWOzyin5eALf9qv0UxDgAABAgRWXUCAtepmriBAgACBPgucuue9MrXio6nqeyXVqM+jmo0AgQ4K1FmR1F/I1AZPyxHn/LqDHWqJAAECBAiMRUCANRZ2hxIgQIBApwWO22v9zFv6hFR5WZJ7dbpXzREg0CeB85L6uFyz4AuZPG9JnwYzCwECBAgQWFMBAdaaCrqeAAECBPorcNJeaydLjklVPTfJov4OajICBMYrUP8i1egNufqC0zKZ6fH24nQCBAgQINBNAQFWN/eiKwIECBDoksCpuz8w09NHJNWTk9qD3ru0G70QKFvguqQ6NXV9eg698Ptlj6J7AgQIECDQrIAAq1lf1QkQIECgTwInLt4no/r0pNoiyZw+jWYWAgRaFVia5N9T18/JoRd9u9WTHUaAAAECBAoVEGAVujhtEyBAgMCYBI673/pZsOBpqavXJ5kJsrwIECCwKgKXpq7fkXstODt7n7diVS70XgIECBAgMGQBAdaQt292AgQIEFh9gcm9FmTjJSdnVD0pydqrX8iVBAgMQKBOcn3q+t05b5t35MwzpwYwsxEJECBAgMCsCgiwZpVTMQIECBAYlMDHnjSRX/5419R5aVI9YVCzG5YAgZUVWJ46J2c6p+bwC7+zshd5HwECBAgQIPCHAgIsdwQBAgQIEJgNgVN33T/T1TuT+q5JNZqNkmoQIFC0wLIkl2Z6xYE57NJvFT2J5gkQIECAQAcEBFgdWIIWCBAgQKAnAsftuEXmz31iUr3G87F6slNjEFg9gW9mKm9OPf35HHHxr1evhKsIECBAgACB3xcQYLkfCBAgQIDAbAscv8vWmVO9J6n2TbLubJdXjwCBzgpck9SnZ+GCyRxw3pLOdqkxAgQIECBQoIAAq8ClaZkAAQIEChCY3GtONluyS6bzulTVfkn8WWEBa9MigdUUWJrUH8z0xEn5xfnfzmSmV7OOywgQIECAAIE/IyDAcmsQIECAAIEmBWaCrE1veVbq6vWpqjskmWjyOLUJEGhVYFlSX5Hp6sgcduGXk8z82qAXAQIECBAg0ICAAKsBVCUJECBAgMCfCJyw+5YZTT0zVfW6JOsQIkCgeIH/Sl2/Lr9Z/um8+vIbip/GAAQIECBAoOMCAqyOL0h7BAgQINAzgZP3uHMydWySfQRZPdutcYYicE2qfCxLbnl9Xvr1Xw1laHMSIECAAIFxCwiwxr0B5xMgQIDA8ASOf8T8TFy3WzJ6a6osHh6AiQkUKlDlw1k+dUyuu+QKz7kqdIfaJkCAAIFiBQRYxa5O4wQIECBQvMDk5Cibfu7QpDoiVe6SOv65XPxSDdA7gTorknw91dRkDrnkM72bz0AECBAgQKAQAR+UC1mUNgkQIECgpwIzodUHdtkqy6rnJ9WRqbKwp5Mai0B5AnWuTapXpV7xqRx2yS/LG0DHBAgQIECgPwICrP7s0iQECBAgULrAaYu3z1TenmTvJItKH0f/BAoWuD51/fFMzT0qR3z12oLn0DoBAgQIEOiNgACrN6s0CAECBAj0QuC0HRdlat5OSd6T5H69mMkQBMoRmE6dT2VF9bosWHpVDrx8eTmt65QAAQIECPRbQIDV7/2ajgABAgRKFThm93Wydn1Eqvp5Se6UeD5WqavUdxEC00m+kao6LlfP+3Amz5t57pUXAQIECBAg0CEBAVaHlqEVAgQIECDwJwIn7bRNMvHiVNWLk8whRIDArAtcn9SvzbzqY3nBhdfNenUFCRAgQIAAgVkREGDNCqMiBAgQIECgYYFTdt09dfWGJHt4PlbD1soPRWAmrPp06hydQy/8/lCGNicBAgQIEChVQIBV6ub0TYAAAQLDE3j34oWZN713RqP3JdlqeAAmJjBLAnUuTTV9cK5Z+A1/LjhLpsoQIECAAIGGBQRYDQMrT4AAAQIEZl1gcsdF2XTekanzvFTZetbrK0ignwJ1kiuS+oQcctEH+jmiqQgQIECAQH8FBFj93a3JCBAgQKDPApMZZatdNsny0VuTPL/Po5qNwKwI1PWRqea8P4d87fpZqacIAQIECBAg0KqAAKtVbocRIECAAIFZFqhT5aTFD8lEfWTq6qF+rXCWfZUrXeCW1PWSjLrBAAAdWElEQVQ/ZaJ+Uw66+HulD6N/AgQIECAwZAEB1pC3b3YCBAgQ6I/AzPOxFo32yNT0GamyZX8GMwmB1RSo8q9ZPudZue6X38/klctWs4rLCBAgQIAAgY4ICLA6sghtECBAgACBWRE4ZfFWma6OSFU/MxFkzYqpIqUJXPk/P3Lw/qx90/vz7H+/qbTm9UuAAAECBAjctoAAy51BgAABAgT6JjDzZ4Un7LJVJqrjU1WP69t45iFwmwJVPfMtq3fmhuXvzKsvv4ESAQIECBAg0C8BAVa/9mkaAgQIECDwfwIzD3rfdPGjk/qIpNojyVw8BHoocFNSfTrT08flsIsuSTLza4NeBAgQIECAQM8EBFg9W6hxCBAgQIDAnwgcv938TGzylP95Ntb7kswnRKA3AnX940xNPCObb3lBnnzmVG/mMggBAgQIECDwJwICLDcFAQIECBAYisAJu2+Z0dTLUlUHJNlwKGObs5cC309VnZrpeafl0PNu7OWEhiJAgAABAgT+QECA5YYgQIAAAQJDEph5PtZ79tw881d8OMmDhzS6WXsiUNfvz4KJl+f55/+mJxMZgwABAgQIEFgJAQHWSiB5CwECBAgQ6J3AaTvOzfK5j0tVvSRVFvduPgP1TWAqdc5ONXVcDrnkq30bzjwECBAgQIDA7QsIsG7fyDsIECBAgECfBaqcvOvzU+c9qaq1+jyo2UoVqH+eun5SDr34a6VOoG8CBAgQIEBgzQUEWGtuqAIBAgQIEChf4KRd75lRdWDqPDfJeuUPZILiBer8JHV9SiZGH8jBF1xT/DwGIECAAAECBNZIQIC1RnwuJkCAAAECPRM4eY87p576WKo8IInPCT1bbyHjTCX1mblp3RfklV+4qZCetUmAAAECBAg0LOCDacPAyhMgQIAAgeIETttxUabmPz51/eJU2VGQVdwGy2y4zopU+Vzq6oTMWXpuDrx8eZmD6JoAAQIECBBoQkCA1YSqmgQIECBAoA8Cx283PxMbvyZV9eok8/swkhk6KVCnqn+Z6YnDcuj5H0tSd7JLTREgQIAAAQJjFRBgjZXf4QQIECBAoACBE3e/d0bThyV5TpKFBXSsxXIErkmqEzJVfTCHn//f5bStUwIECBAgQKBtAQFW2+LOI0CAAAECpQqcuscOmZ76cJK7JplT6hj67oTAsiT/kqnRcwRXndiHJggQIECAQOcFBFidX5EGCRAgQIBAhwSO2X2drFM/MZl+TVLNBFleBFZNoK7PTTU6Nhtv9bk8+cypVbvYuwkQIECAAIGhCgiwhrp5cxMgQIAAgTUReNKTJrL3T96e5MAk665JKdcOQmDmuVbXJvVROeSiDwxiYkMSIECAAAECsyogwJpVTsUIECBAgMCABCYnR9nonx+Q0dShqapn+rPCAe1+VUat65tS5bhMTX8wh1/yg1W51HsJECBAgAABAv8rIMByLxAgQIAAAQJrLnDy7nsmU6cm1d2TTKx5QRV6IPDb51zVK56XQy/9cQ/mMQIBAgQIECAwRgEB1hjxHU2AAAECBHolcOLOG6WaeGyqvDrJdr2azTCrKnBB6vodmbP8Sznw8ptX9WLvJ0CAAAECBAj8sYAAyz1BgAABAgQIzK7ATJA1mjguyaOTrDe7xVXrtECdq1PlvbnmhmMzeeXMN7C8CBAgQIAAAQKzIiDAmhVGRQgQIECAAIE/EThl8c6Zrl+eqnqCPyvs/f1xY6qcmGr6gzno4u/1floDEiBAgAABAq0LCLBaJ3cgAQIECBAYmMDJix+b5NjUuUOqzBnY9H0fd0mSKzIaHZKDzr+s78OajwABAgQIEBifgABrfPZOJkCAAAECwxF4144bZ615T01dHZ3U6w9n8F5PelXq6nVZNO/TOeC8mSDLiwABAgQIECDQmIAAqzFahQkQIECAAIE/EThur/Uzf+l7k8x8K2tdQoUJVKlT1zPPufqbXH3RGzKZ6cIm0C4BAgQIECBQqIAAq9DFaZsAAQIECBQrMHmvedl0nQekrl6fqnpksXMMsfGqPjkrqhNy2IVXZSbM8iJAgAABAgQItCQgwGoJ2jEECBAgQIDAHwlMZpRNd3t66vqojHL31PG5pJs3yfIklyTTr8ghF1/UzRZ1RYAAAQIECPRdwAfFvm/YfAQIECBAoOsCp+25RaannpS6fkOSjbre7sD6+49U1ZFZMu9Leel5vxrY7MYlQIAAAQIEOiQgwOrQMrRCgAABAgQGLXDqLnfN1OiYVHlIkvUGbTHu4etcndQfTTVnMod87fpxt+N8AgQIECBAgIAAyz1AgAABAgQIdEfgtB3nZtncnTNRvT3Jnt1pbDCdrEjqv0udd+bai67ykPbB7N2gBAgQIECg8wICrM6vSIMECBAgQGCAAjMPet9kvRelqg9Psl1SjQao0N7IVZalzjdS10fn2os+I7hqj95JBAgQIECAwMoJCLBWzsm7CBAgQIAAgXEInLD7lhlNvTBVdVSSueNoYQBnXpO6OjJzln4iB15+wwDmNSIBAgQIECBQoIAAq8ClaZkAAQIECAxO4NRd7pWp0VuSer9U1VqDm7+Zga9J8k+pqjfm4Atm/rsXAQIECBAgQKCzAgKszq5GYwQIECBAgMAfCJy+14LctGznjHJ8Uu9AZw0E6nwmo+rV2Wirb+fJZ06tQSWXEiBAgAABAgRaERBgtcLsEAIECBAgQGDWBCb3WpCNlx6eiRyYOneZtbr9LzSdOpcn9bE59KKP9n9cExIgQIAAAQJ9EhBg9WmbZiFAgAABAkMRqFPl5J02SzXxkqR6SZL5Qxl9Nee8IaO8PNMT/5RDvnb9atZwGQECBAgQIEBgbAICrLHRO5gAAQIECBCYBYEqJy1enFFekzoPTbJgFmr2qET1q6T+x0xNvTWHX/KDHg1mFAIECBAgQGBgAgKsgS3cuAQIECBAoJcCM8/HumXpLqnzgVTZrpczrspQVerU+VKmcnjmLfuPHHj58lW53HsJECBAgAABAl0TEGB1bSP6IUCAAAECBFZf4OQ9Nki94oikek5G2TYzf2o4rNd0qnw90/Wpmdrgb3PEOUuHNb5pCRAgQIAAgb4KDO1DXV/3aC4CBAgQIEDg/wSqnLD7FhlNH50qzxsQzC2p68nMWX5aDrz8hgHNbVQCBAgQIEBgAAICrAEs2YgECBAgQGCwAqfs9pDU069IVe2TOvN66jATVp2V0fQxOejiK3s6o7EIECBAgACBgQsIsAZ+AxifAAECBAj0XuD4R8zP3F/tm+n8Xaqs36t5q3wnU/Uz8osF/57J81b0ajbDECBAgAABAgR+T0CA5XYgQIAAAQIEhiEw83ysrHhZ6uqFqbJZ2UPXV6bKibnHgvdnb8FV2bvUPQECBAgQILAyAgKslVHyHgIECBAgQKAfAjMPdX/fjutmxbz3ZZQnFfiQ9+kkb8mSvCMvu3BJkrofizEFAQIECBAgQOAvCwiw3CEECBAgQIDA8AQm95qTTZY8IqlenCr7dB6gzoqk+miqqeNyyMWXd75fDRIgQIAAAQIEZllAgDXLoMoRIECAAAECBQnMBFkbLXlkJqozkmzQyc5vfc7V6In5xfnfzmRmvoHlRYAAAQIECBAYnIAAa3ArNzABAgQIECDwJwKn7Lpt6hyUunpuh56PdVVSvy+Zc3oO+dr1tkaAAAECBAgQGLKAAGvI2zc7AQIECBAg8IcCpyzeKtPVR1LVe4yRZjp1fWquXf7KTF5+8xj7cDQBAgQIECBAoDMCAqzOrEIjBAgQIECAQCcEJjPKZrs8LhkdkTozQdaopb6WJjk7Vf3eHHzRBR7Q3pK6YwgQIECAAIEiBARYRaxJkwQIECBAgEDrAjNB1ia7HJRqdHySiQbPn/ltxOtT10/JIRd9scFzlCZAgAABAgQIFCsgwCp2dRonQIAAAQIEWhE4Yec7ZTQ6PKlelCprzfKZP02d96Sa+BvPuZplWeUIECBAgACBXgkIsHq1TsMQIECAAAECjQmcsPuWGU1/PFV2noVvZC1PlY9ntOwFOdBzrhrbmcIECBAgQIBAbwQEWL1ZpUEIECBAgACBxgVO23FRVsx7TFK/PFW14+qdV5+deuI9uXbfr2Rycnr1ariKAAECBAgQIDAsAQHWsPZtWgIECBAgQGA2BCYnR9nsc69IqtemznorUXLmOVc/zdT0YTns4rNW4v3eQoAAAQIECBAg8HsCAiy3AwECBAgQIEBgdQRmIqlTd7t36vo5qfP0VNnyNsvU+VaSMzI1/ZEccfFPVuco1xAgQIAAAQIEhi4gwBr6HWB+AgQIECBAYHYETtx1l2S0S6rcJZlenqr6bjL6Sg45/6rZOUAVAgQIECBAgMBwBQRYw929yQkQIECAAAECBAgQIECAAAECRQgIsIpYkyYJECBAgAABAgQIECBAgAABAsMVEGANd/cmJ0CAAAECBAgQIECAAAECBAgUISDAKmJNmiRAgAABAgQIECBAgAABAgQIDFdAgDXc3ZucAAECBAgQIECAAAECBAgQIFCEgACriDVpkgABAgQIECBAgAABAgQIECAwXAEB1nB3b3ICBAgQIECAAAECBAgQIECAQBECAqwi1qRJAgQIECBAgAABAgQIECBAgMBwBQRYw929yQkQIECAAAECBAgQIECAAAECRQgIsIpYkyYJECBAgAABAgQIECBAgAABAsMVEGANd/cmJ0CAAAECBAgQIECAAAECBAgUISDAKmJNmiRAgAABAgQIECBAgAABAgQIDFdAgDXc3ZucAAECBAgQIECAAAECBAgQIFCEgACriDVpkgABAgQIECBAgAABAgQIECAwXAEB1nB3b3ICBAgQIECAAAECBAgQIECAQBECAqwi1qRJAgQIECBAgAABAgQIECBAgMBwBQRYw929yQkQIECAAAECBAgQIECAAAECRQgIsIpYkyYJECBAgAABAgQIECBAgAABAsMVEGANd/cmJ0CAAAECBAgQIECAAAECBAgUISDAKmJNmiRAgAABAgQIECBAgAABAgQIDFdAgDXc3ZucAAECBAgQIECAAAECBAgQIFCEgACriDVpkgABAgQIECBAgAABAgQIECAwXAEB1nB3b3ICBAgQIECAAAECBAgQIECAQBECAqwi1qRJAgQIECBAgAABAgQIECBAgMBwBQRYw929yQkQIECAAAECBAgQIECAAAECRQgIsIpYkyYJECBAgAABAgQIECBAgAABAsMVEGANd/cmJ0CAAAECBAgQIECAAAECBAgUISDAKmJNmiRAgAABAgQIECBAgAABAgQIDFdAgDXc3ZucAAECBAgQIECAAAECBAgQIFCEgACriDVpkgABAgQIECBAgAABAgQIECAwXAEB1nB3b3ICBAgQIECAAAECBAgQIECAQBECAqwi1qRJAgQIECBAgAABAgQIECBAgMBwBQRYw929yQkQIECAAAECBAgQIECAAAECRQgIsIpYkyYJECBAgAABAgQIECBAgAABAsMVEGANd/cmJ0CAAAECBAgQIECAAAECBAgUISDAKmJNmiRAgAABAgQIECBAgAABAgQIDFdAgDXc3ZucAAECBAgQIECAAAECBAgQIFCEgACriDVpkgABAgQIECBAgAABAgQIECAwXAEB1nB3b3ICBAgQIECAAAECBAgQIECAQBECAqwi1qRJAgQIECBAgAABAgQIECBAgMBwBQRYw929yQkQIECAAAECBAgQIECAAAECRQgIsIpYkyYJECBAgAABAgQIECBAgAABAsMVEGANd/cmJ0CAAAECBAgQIECAAAECBAgUISDAKmJNmiRAgAABAgQIECBAgAABAgQIDFdAgDXc3ZucAAECBAgQIECAAAECBAgQIFCEgACriDVpkgABAgQIECBAgAABAgQIECAwXAEB1nB3b3ICBAgQIECAAAECBAgQIECAQBECAqwi1qRJAgQIECBAgAABAgQIECBAgMBwBQRYw929yQkQIECAAAECBAgQIECAAAECRQgIsIpYkyYJECBAgAABAgQIECBAgAABAsMVEGANd/cmJ0CAAAECBAgQIECAAAECBAgUISDAKmJNmiRAgAABAgQIECBAgAABAgQIDFdAgDXc3ZucAAECBAgQIECAAAECBAgQIFCEgACriDVpkgABAgQIECBAgAABAgQIECAwXAEB1nB3b3ICBAgQIECAAAECBAgQIECAQBECAqwi1qRJAgQIECBAgAABAgQIECBAgMBwBQRYw929yQkQIECAAAECBAgQIECAAAECRQgIsIpYkyYJECBAgAABAgQIECBAgAABAsMVEGANd/cmJ0CAAAECBAgQIECAAAECBAgUISDAKmJNmiRAgAABAgQIECBAgAABAgQIDFdAgDXc3ZucAAECBAgQIECAAAECBAgQIFCEgACriDVpkgABAgQIECBAgAABAgQIECAwXAEB1nB3b3ICBAgQIECAAAECBAgQIECAQBECAqwi1qRJAgQIECBAgAABAgQIECBAgMBwBQRYw929yQkQIECAAAECBAgQIECAAAECRQgIsIpYkyYJECBAgAABAgQIECBAgAABAsMVEGANd/cmJ0CAAAECBAgQIECAAAECBAgUISDAKmJNmiRAgAABAgQIECBAgAABAgQIDFdAgDXc3ZucAAECBAgQIECAAAECBAgQIFCEgACriDVpkgABAgQIECBAgAABAgQIECAwXAEB1nB3b3ICBAgQIECAAAECBAgQIECAQBECAqwi1qRJAgQIECBAgAABAgQIECBAgMBwBQRYw929yQkQIECAAAECBAgQIECAAAECRQgIsIpYkyYJECBAgAABAgQIECBAgAABAsMVEGANd/cmJ0CAAAECBAgQIECAAAECBAgUISDAKmJNmiRAgAABAgQIECBAgAABAgQIDFdAgDXc3ZucAAECBAgQIECAAAECBAgQIFCEgACriDVpkgABAgQIECBAgAABAgQIECAwXAEB1nB3b3ICBAgQIECAAAECBAgQIECAQBECAqwi1qRJAgQIECBAgAABAgQIECBAgMBwBQRYw929yQkQIECAAAECBAgQIECAAAECRQgIsIpYkyYJECBAgAABAgQIECBAgAABAsMVEGANd/cmJ0CAAAECBAgQIECAAAECBAgUISDAKmJNmiRAgAABAgQIECBAgAABAgQIDFdAgDXc3ZucAAECBAgQIECAAAECBAgQIFCEgACriDVpkgABAgQIECBAgAABAgQIECAwXAEB1nB3b3ICBAgQIECAAAECBAgQIECAQBECAqwi1qRJAgQIECBAgAABAgQIECBAgMBwBQRYw929yQkQIECAAAECBAgQIECAAAECRQgIsIpYkyYJECBAgAABAgQIECBAgAABAsMVEGANd/cmJ0CAAAECBAgQIECAAAECBAgUISDAKmJNmiRAgAABAgQIECBAgAABAgQIDFdAgDXc3ZucAAECBAgQIECAAAECBAgQIFCEgACriDVpkgABAgQIECBAgAABAgQIECAwXAEB1nB3b3ICBAgQIECAAAECBAgQIECAQBECAqwi1qRJAgQIECBAgAABAgQIECBAgMBwBQRYw929yQkQIECAAAECBAgQIECAAAECRQgIsIpYkyYJECBAgAABAgQIECBAgAABAsMVEGANd/cmJ0CAAAECBAgQIECAAAECBAgUISDAKmJNmiRAgAABAgQIECBAgAABAgQIDFdAgDXc3ZucAAECBAgQIECAAAECBAgQIFCEgACriDVpkgABAgQIECBAgAABAgQIECAwXAEB1nB3b3ICBAgQIECAAAECBAgQIECAQBECAqwi1qRJAgQIECBAgAABAgQIECBAgMBwBQRYw929yQkQIECAAAECBAgQIECAAAECRQgIsIpYkyYJECBAgAABAgQIECBAgAABAsMVEGANd/cmJ0CAAAECBAgQIECAAAECBAgUISDAKmJNmiRAgAABAgQIECBAgAABAgQIDFdAgDXc3ZucAAECBAgQIECAAAECBAgQIFCEgACriDVpkgABAgQIECBAgAABAgQIECAwXAEB1nB3b3ICBAgQIECAAAECBAgQIECAQBECAqwi1qRJAgQIECBAgAABAgQIECBAgMBwBQRYw929yQkQIECAAAECBAgQIECAAAECRQgIsIpYkyYJECBAgAABAgQIECBAgAABAsMVEGANd/cmJ0CAAAECBAgQIECAAAECBAgUISDAKmJNmiRAgAABAgQIECBAgAABAgQIDFdAgDXc3ZucAAECBAgQIECAAAECBAgQIFCEgACriDVpkgABAgQIECBAgAABAgQIECAwXAEB1nB3b3ICBAgQIECAAAECBAgQIECAQBECAqwi1qRJAgQIECBAgAABAgQIECBAgMBwBQRYw929yQkQIECAAAECBAgQIECAAAECRQgIsIpYkyYJECBAgAABAgQIECBAgAABAsMVEGANd/cmJ0CAAAECBAgQIECAAAECBAgUISDAKmJNmiRAgAABAgQIECBAgAABAgQIDFdAgDXc3ZucAAECBAgQIECAAAECBAgQIFCEgACriDVpkgABAgQIECBAgAABAgQIECAwXAEB1nB3b3ICBAgQIECAAAECBAgQIECAQBECAqwi1qRJAgQIECBAgAABAgQIECBAgMBwBQRYw929yQkQIECAAAECBAgQIECAAAECRQgIsIpYkyYJECBAgAABAgQIECBAgAABAsMVEGANd/cmJ0CAAAECBAgQIECAAAECBAgUISDAKmJNmiRAgAABAgQIECBAgAABAgQIDFdAgDXc3ZucAAECBAgQIECAAAECBAgQIFCEgACriDVpkgABAgQIECBAgAABAgQIECAwXAEB1nB3b3ICBAgQIECAAAECBAgQIECAQBECAqwi1qRJAgQIECBAgAABAgQIECBAgMBwBQRYw929yQkQIECAAAECBAgQIECAAAECRQgIsIpYkyYJECBAgAABAgQIECBAgAABAsMVEGANd/cmJ0CAAAECBAgQIECAAAECBAgUISDAKmJNmiRAgAABAgQIECBAgAABAgQIDFdAgDXc3ZucAAECBAgQIECAAAECBAgQIFCEgACriDVpkgABAgQIECBAgAABAgQIECAwXAEB1nB3b3ICBAgQIECAAAECBAgQIECAQBECAqwi1qRJAgQIECBAgAABAgQIECBAgMBwBQRYw929yQkQIECAAAECBAgQIECAAAECRQgIsIpYkyYJECBAgAABAgQIECBAgAABAsMVEGANd/cmJ0CAAAECBAgQIECAAAECBAgUISDAKmJNmiRAgAABAgQIECBAgAABAgQIDFdAgDXc3ZucAAECBAgQIECAAAECBAgQIFCEgACriDVpkgABAgQIECBAgAABAgQIECAwXAEB1nB3b3ICBAgQIECAAAECBAgQIECAQBECAqwi1qRJAgQIECBAgAABAgQIECBAgMBwBQRYw929yQkQIECAAAECBAgQIECAAAECRQgIsIpYkyYJECBAgAABAgQIECBAgAABAsMVEGANd/cmJ0CAAAECBAgQIECAAAECBAgUISDAKmJNmiRAgAABAgQIECBAgAABAgQIDFdAgDXc3ZucAAECBAgQIECAAAECBAgQIFCEgACriDVpkgABAgQIECBAgAABAgQIECAwXAEB1nB3b3ICBAgQIECAAAECBAgQIECAQBECAqwi1qRJAgQIECBAgAABAgQIECBAgMBwBQRYw929yQkQIECAAAECBAgQIECAAAECRQgIsIpYkyYJECBAgAABAgQIECBAgAABAsMVEGANd/cmJ0CAAAECBAgQIECAAAECBAgUISDAKmJNmiRAgAABAgQIECBAgAABAgQIDFdAgDXc3ZucAAECBAgQIECAAAECBAgQIFCEgACriDVpkgABAgQIECBAgAABAgQIECAwXAEB1nB3b3ICBAgQIECAAAECBAgQIECAQBECAqwi1qRJAgQIECBAgAABAgQIECBAgMBwBQRYw929yQkQIECAAAECBAgQIECAAAECRQj8/xVyCPy3OLM6AAAAAElFTkSuQmCC;" vertex="1" parent="h4-jVqhsriTU1_VaayF0-3">
          <mxGeometry x="96.55172413793106" y="70" width="101.11862068965517" height="69.51724137931033" as="geometry" />
        </mxCell>
        <mxCell id="h4-jVqhsriTU1_VaayF0-2" value="" style="shape=image;verticalLabelPosition=bottom;labelBackgroundColor=default;verticalAlign=top;aspect=fixed;imageAspect=0;image=https://muratozcelik.com.tr/wp-content/uploads/2020/05/Keepalived-LOGO.png;" vertex="1" parent="h4-jVqhsriTU1_VaayF0-3">
          <mxGeometry x="27.586206896551726" y="51.770833333333336" width="71.55641379310345" height="36.206896551724135" as="geometry" />
        </mxCell>
        <mxCell id="h4-jVqhsriTU1_VaayF0-15" value="192.168.234.101" style="rounded=1;whiteSpace=wrap;html=1;fillColor=#dae8fc;strokeColor=#6c8ebf;" vertex="1" parent="h4-jVqhsriTU1_VaayF0-3">
          <mxGeometry x="18.815172413793103" y="15.003333333333334" width="103.44827586206897" height="17.5" as="geometry" />
        </mxCell>
        <mxCell id="h4-jVqhsriTU1_VaayF0-28" value="192.168.234.80" style="rounded=1;whiteSpace=wrap;html=1;" vertex="1" parent="21_gmykhIOu26JGh-Btz-1">
          <mxGeometry x="446.5551724137931" y="271.12333333333333" width="103.44827586206897" height="17.5" as="geometry" />
        </mxCell>
        <mxCell id="h4-jVqhsriTU1_VaayF0-29" value="192.168.234.80" style="rounded=1;whiteSpace=wrap;html=1;dashed=1;dashPattern=8 8;" vertex="1" parent="21_gmykhIOu26JGh-Btz-1">
          <mxGeometry x="446.5551724137931" y="486.25333333333333" width="103.44827586206897" height="17.5" as="geometry" />
        </mxCell>
        <mxCell id="h4-jVqhsriTU1_VaayF0-32" style="edgeStyle=orthogonalEdgeStyle;rounded=0;orthogonalLoop=1;jettySize=auto;html=1;entryX=0;entryY=0.5;entryDx=0;entryDy=0;" edge="1" parent="21_gmykhIOu26JGh-Btz-1" source="h4-jVqhsriTU1_VaayF0-31" target="h4-jVqhsriTU1_VaayF0-28">
          <mxGeometry relative="1" as="geometry" />
        </mxCell>
        <mxCell id="h4-jVqhsriTU1_VaayF0-33" style="edgeStyle=orthogonalEdgeStyle;rounded=0;orthogonalLoop=1;jettySize=auto;html=1;entryX=0;entryY=0.5;entryDx=0;entryDy=0;dashed=1;" edge="1" parent="21_gmykhIOu26JGh-Btz-1" source="h4-jVqhsriTU1_VaayF0-31" target="h4-jVqhsriTU1_VaayF0-29">
          <mxGeometry relative="1" as="geometry" />
        </mxCell>
        <mxCell id="h4-jVqhsriTU1_VaayF0-31" value="192.168.234.80" style="rounded=1;whiteSpace=wrap;html=1;" vertex="1" parent="21_gmykhIOu26JGh-Btz-1">
          <mxGeometry x="299.99517241379306" y="385.00333333333333" width="103.44827586206897" height="17.5" as="geometry" />
        </mxCell>
        <mxCell id="h4-jVqhsriTU1_VaayF0-16" value="" style="group" vertex="1" connectable="0" parent="21_gmykhIOu26JGh-Btz-1">
          <mxGeometry x="550" y="425" width="200" height="140" as="geometry" />
        </mxCell>
        <mxCell id="h4-jVqhsriTU1_VaayF0-36" style="edgeStyle=orthogonalEdgeStyle;rounded=0;orthogonalLoop=1;jettySize=auto;html=1;dashed=1;" edge="1" parent="h4-jVqhsriTU1_VaayF0-16" source="h4-jVqhsriTU1_VaayF0-17">
          <mxGeometry relative="1" as="geometry">
            <mxPoint x="390" y="-40" as="targetPoint" />
          </mxGeometry>
        </mxCell>
        <mxCell id="h4-jVqhsriTU1_VaayF0-17" value="" style="rounded=1;whiteSpace=wrap;html=1;" vertex="1" parent="h4-jVqhsriTU1_VaayF0-16">
          <mxGeometry width="200" height="140" as="geometry" />
        </mxCell>
        <mxCell id="h4-jVqhsriTU1_VaayF0-18" value="" style="sketch=0;outlineConnect=0;fontColor=#232F3E;gradientColor=none;fillColor=#8C4FFF;strokeColor=none;dashed=0;verticalLabelPosition=bottom;verticalAlign=top;align=center;html=1;fontSize=12;fontStyle=0;aspect=fixed;pointerEvents=1;shape=mxgraph.aws4.gateway_load_balancer;" vertex="1" parent="h4-jVqhsriTU1_VaayF0-16">
          <mxGeometry x="122.26206896551723" y="23.333333333333332" width="57.93103448275862" height="57.93103448275862" as="geometry" />
        </mxCell>
        <mxCell id="h4-jVqhsriTU1_VaayF0-19" value="" style="shape=image;verticalLabelPosition=bottom;labelBackgroundColor=default;verticalAlign=top;aspect=fixed;imageAspect=0;image=data:image/png,iVBORw0KGgoAAAANSUhEUgAABLAAAAM5CAYAAAAXOchRAAAAAXNSR0IArs4c6QAAIABJREFUeF7s3XeYJWWZN+BfdU8g50EEzHFdMaHCICiiKEgwwuqa14AwgICCiGkMrAEkSTSCaRGMSBJBEYEBJAkuCIIByQx58nR3fTZ8soAD0+HU6apT9/lHrouq533e+3kv5szPc+oU8SJAgAABAgQIECBAgAABAgQIECBQY4Gixr1pjQABAgQIECBAgAABAgQIECBAgEAEWA4BAQIECBAgQIAAAQIECBAgQIBArQUEWLUej+YIECBAgAABAgQIECBAgAABAgQEWM4AAQIECBAgQIAAAQIECBAgQIBArQUEWLUej+YIECBAgAABAgQIECBAgAABAgQEWM4AAQIECBAgQIAAAQIECBAgQIBArQUEWLUej+YIECBAgAABAgQIECBAgAABAgQEWM4AAQIECBAgQIAAAQIECBAgQIBArQUEWLUej+YIECBAgAABAgQIECBAgAABAgQEWM4AAQIECBAgQIAAAQIECBAgQIBArQUEWLUej+YIECBAgAABAgQIECBAgAABAgQEWM4AAQIECBAgQIAAAQIECBAgQIBArQUEWLUej+YIECBAgAABAgQIECBAgAABAgQEWM4AAQIECBAgQIAAAQIECBAgQIBArQUEWLUej+YIECBAgAABAgQIECBAgAABAgQEWM4AAQIECBAgQIAAAQIECBAgQIBArQUEWLUej+YIECBAgAABAgQIECBAgAABAgQEWM4AAQIECBAgQIAAAQIECBAgQIBArQUEWLUej+YIECBAgAABAgQIECBAgAABAgQEWM4AAQIECBAgQIAAAQIECBAgQIBArQUEWLUej+YIECBAgAABAgQIECBAgAABAgQEWM4AAQIECBAgQIAAAQIECBAgQIBArQUEWLUej+YIECBAgAABAgQIECBAgAABAgQEWM4AAQIECBAgQIAAAQIECBAgQIBArQUEWLUej+YIECBAgAABAgQIECBAgAABAgQEWM4AAQIECBAgQIAAAQIECBAgQIBArQUEWLUej+YIECBAgAABAgQIECBAgAABAgQEWM4AAQIECBAgQIAAAQIECBAgQIBArQUEWLUej+YIECBAgAABAgQIECBAgAABAgQEWM4AAQIECBAgQIAAAQIECBAgQIBArQUEWLUej+YIECBAgAABAgQIECBAgAABAgQEWM4AAQIECBAgQIAAAQIECBAgQIBArQUEWLUej+YIECBAgAABAgQIECBAgAABAgQEWM4AAQIECBAgQIAAAQIECBAgQIBArQUEWLUej+YIECBAgAABAgQIECBAgAABAgQEWM4AAQIECBAgQIAAAQIECBAgQIBArQUEWLUej+YIECBAgAABAgQIECBAgAABAgQEWM4AAQIECBAgQIAAAQIECBAgQIBArQUEWLUej+YIECBAgAABAgQIECBAgAABAgQEWM4AAQIECBAgQIAAAQIECBAgQIBArQUEWLUej+YIECBAgAABAgQIECBAgAABAgQEWM4AAQIECBAgQIAAAQIECBAgQIBArQUEWLUej+YIECBAgAABAgQIECBAgAABAgQEWM4AAQIECBAgQIAAAQIECBAgQIBArQUEWLUej+YIECBAgAABAgQIECBAgAABAgQEWM4AAQIECBAgQIAAAQIECBAgQIBArQUEWLUej+YIECBAgAABAgQIECBAgAABAgQEWM4AAQIECBAgQIAAAQIECBAgQIBArQUEWLUej+YIECBAgAABAgQIECBAgAABAgQEWM4AAQIECBAgQIAAAQIECBAgQIBArQUEWLUej+YIECBAgAABAgQIECBAgAABAgQEWM4AAQIECBAgQIAAAQIECBAgQIBArQUEWLUej+YIECBAgAABAgQIECBAgAABAgQEWM4AAQIECBAgQIAAAQIECBAgQIBArQUEWLUej+YIECBAgAABAgQIECBAgAABAgQEWM4AAQIECBAgQIAAAQIECBAgQIBArQUEWLUej+YIECBAgAABAgQIECBAgAABAgQEWM4AAQIECBAgQIAAAQIECBAgQIBArQUEWLUej+YIECBAgAABAgQIECBAgAABAgQEWM4AAQIECBAgQIAAAQIECBAgQIBArQUEWLUej+YIECBAgAABAgQIECBAgAABAgQEWM4AAQIECBAgQIAAAQIECBAgQIBArQUEWLUej+YIECBAgAABAgQIECBAgAABAgQEWM4AAQIECBAgQIAAAQIECBAgQIBArQUEWLUej+YIECBAgAABAgQIECBAgAABAgQEWM4AAQIECBAgQIAAAQIECBAgQIBArQUEWLUej+YIECBAgAABAgQIECBAgAABAgQEWM4AAQIECBAgQIAAAQIECBAgQIBArQUEWLUej+YIECBAgAABAgQIECBAgAABAgQEWM4AAQIECBAgQIAAAQIECBAgQIBArQUEWLUej+YIECBAgAABAgQIECBAgAABAgQEWM4AAQIECBAgQIAAAQIECBAgQIBArQUEWLUej+YIECBAgAABAgQIECBAgAABAgQEWM4AAQIECBAgQIAAAQIECBAgQIBArQUEWLUej+YIECBAgAABAgQIECBAgAABAgQEWM4AAQIECBAgQIAAAQIECBAgQIBArQUEWLUej+YIECBAgAABAgQIECBAgAABAgQEWM4AAQIECBAgQIAAAQIECBAgQIBArQUEWLUej+YIECBAgAABAgQIECBAgAABAgQEWM4AAQIECBAgQIAAAQIECBAgQIBArQUEWLUej+YIECBAgAABAgQIECBAgAABAgQEWM4AAQIECBAgQIAAAQIECBAgQIBArQUEWLUej+YIECBAgAABAgQIECBAgAABAgQEWM4AAQIECBAgQIAAAQIECBAgQIBArQUEWLUej+YIECBAgAABAgQIECBAgAABAgQEWM4AAQIECBAgQIAAAQIECBAgQIBArQUEWLUej+YIECBAgAABAgQIECBAgAABAgQEWM4AAQIECBAgQIAAAQIECBAgQIBArQUEWLUej+YIECBAgAABAgQIECBAgAABAgQEWM4AAQIECBAgQIAAAQIECBAgQIBArQUEWLUej+YIECBAgAABAgQIECBAgAABAgQEWM4AAQIECBAgQIAAAQIECBAgQIBArQUEWLUej+YIECBAgAABAgQIECBAgAABAgQEWM4AAQIECBAgQIAAAQIECBAgQIBArQUEWLUej+YIECBAgAABAgQIECBAgAABAgQEWM4AAQIECBAgQIAAAQIECBAgQIBArQUEWLUej+YIECBAgAABAgQIECBAgAABAgQEWM4AAQIECBAgQIAAAQIECBAgQIBArQUEWLUej+YIECBAgAABAgQIECBAgAABAgQEWM4AAQIECBAgQIAAAQIECBAgQIBArQUEWLUej+YIECBAgAABAgQIECBAgAABAgQEWM4AAQIECBAgQIAAAQIECBAgQIBArQUEWLUej+YIECBAgAABAgQIECBAgAABAgQEWM4AAQIECBAgQIAAAQIECBAgQIBArQUEWLUej+YIECBAgAABAgQIECBAgAABAgQEWM4AAQIECBAgQIAAAQIECBAgQIBArQUEWLUej+YIECBAgAABAgQIECBAgAABAgQEWM4AAQIECBAgQIAAAQIECBAgQIBArQUEWLUej+YIECBAgAABAgQIECBAgAABAgQEWM4AAQIECBAgQIAAAQIECBAgQIBArQUEWLUej+YIECBAgAABAgQIECBAgAABAgQEWM4AAQIECBAgQIAAAQIECBAgQIBArQUEWLUej+YIECBAgAABAgQIECBAgAABAgQEWM4AAQIECBAgQIAAAQIECBAgQIBArQUEWLUej+YIECBAgAABAgQIECBAgAABAgQEWM4AAQIECBAgQIAAAQIECBAgQIBArQUEWLUej+YIECBAgAABAgQIECBAgAABAgQEWM4AAQIECBAgQIAAAQIECBAgQIBArQUEWLUej+YIECBAgAABAgQIECBAgAABAgQEWM4AAQIECBAgQIAAAQIECBAgQIBArQUEWLUej+YIECBAgAABAgQIECBAgAABAgQEWM4AAQIECBAgQIAAAQIECBAgQIBArQUEWLUej+YIECBAgAABAgQIECBAgAABAgQEWM4AAQIECBAgQIAAAQIECBAgQIBArQUEWLUej+YIECBAgAABAgQIECBAgAABAgQEWM4AAQIECBAgQIAAAQIECBAgQIBArQUEWLUej+YIECBAgAABAgQIECBAgAABAgQEWM4AAQIECBAgQIAAAQIECBAgQIBArQUEWLUej+YIECBAgAABAgQIECBAgAABAgQEWM4AAQIECBAgQIAAAQIECBAgQIBArQUEWLUej+YIECBAgAABAgQIECBAgAABAgQEWM4AAQIECBAgQIAAAQIECBAgQIBArQUEWLUej+YIECBAgAABAgQIECBAgAABAgQEWM4AAQIECBAgQIAAAQIECBAgQIBArQUEWLUej+YIECBAgAABAgQIECBAgAABAgQEWM4AAQIECBAgQIAAAQIECBAgQIBArQUEWLUej+YIECBAgAABAgQIECBAgAABAgQEWM4AAQIECBAgQIAAAQIECBAgQIBArQUEWLUej+YIECBAgAABAgQIECBAgAABAgQEWM4AAQIECBAgQIAAAQIECBAgQIBArQUEWLUej+YIECBAgAABAgQIECBAgAABAgQEWM4AAQIECBAgQIAAAQIECBAgQIBArQUEWLUej+YIECBAgAABAgQIECBAgAABAgQEWM4AAQIECBAgQIAAAQIECBAgQIBArQUEWLUej+YIECBAgAABAgQIECBAgAABAgQEWM4AAQIECBAgQIAAAQIECBAgQIBArQUEWLUej+YIECBAgAABAgQIECBAgAABAgQEWM4AAQIECBAgQIAAAQIECBAgQIBArQUEWLUej+YIECBAgAABAgQIECBAgAABAgQEWM4AAQIECBAgQIAAAQIECBAgQIBArQUEWLUej+YIECBAgAABAgQIECBAgAABAgQEWM4AAQIECBAgQIAAAQIECBAgQIBArQUEWLUej+YIECBAgAABAgQIECBAgAABAgQEWM4AAQIECBAgQIAAAQIECBAgQIBArQUEWLUej+YIECBAgAABAgQIECBAgAABAgQEWM4AAQIECBAgQIAAAQIECBAgQIBArQUEWLUej+YIECBAgAABAgQIECBAgAABAgQEWM4AAQIECBAgQIAAAQIECBAgQIBArQUEWLUej+YIECBAgAABAgQIECBAgAABAgQEWM4AAQIECBAgQIAAAQIECBAgQIBArQUEWLUej+YIECBAgAABAgQIECBAgAABAgQEWM4AAQIECBAgQIAAAQIECBAgQIBArQUEWLUej+YIECBAgAABAgQIECBAgAABAgQEWM4AAQIECBAgQIAAAQIECBAgQIBArQUEWLUej+YIECBAgAABAgQIECBAgAABAgQEWM4AAQIECBAgQIAAAQIECBAgQIBArQUEWLUej+YIECBAgAABAgQIECBAgAABAgQEWM4AAQIECBAgQIAAAQIECBAgQIBArQUEWLUej+YIECBAgACBBggU+cr0Z6e/fHOSjZLiMSmzOMnf01eekYXl97Pb+bc0YB9aJECAAAECBAjUVkCAVdvRaIwAAQIECBCotcDMZ03JmqtukQzNSLJZkklL7LfM/BTlj1IWR2Tauudn++MHa70vzREgQIAAAQIEaiggwKrhULREgAABAgQI1FzgsJc+Lhk4JkW5cZLJI+x2fpJv5tZFe2XmRfNGeI/LCBAgQIAAAQIEkgiwHAMCBAgQIECAwEgFvvLiJ6W//11JdkwybaS3Pey6a1IWB2ZheWz2mHXHGGu4jQABAgQIECDQKgEBVqvGbbMECBAgQIDAmAUOn75dkkNTZFrKcf+fgEMpy2vSP7R9PnDB78fckxsJECBAgAABAi0REGC1ZNC2SYAAAQIECIxBYOamkzJt4SuTYo8U5eZjqLC0WwZSlN9NikOy46xLlnaxf0+AAAECBAgQaKuAAKutk7dvAgQIECBA4NEF9nvO8llu+e+lyDZJ+irmGn6w+wG5deo+mXnmQMVrKU+AAAECBAgQaJyAAKtxI9MwAQIECBAgUKnA16evloWZkSI7J1mz0rUeXrzI5Rkqv5Jp9xyT7a9Y1NW1LUaAAAECBAgQqLGAAKvGw9EaAQIECBAg0EWB4edaHb7h1imK45Is08WV/3WpsvxLivJ12en8yya0D4sTIECAAAECBGoiIMCqySC0QYAAAQIECEygwBEbbZay3C3Jq5NMmcBOHrz0PSnKH6QsDxVk1WQi2iBAgAABAgQmTECANWH0FiZAgAABAgQmXODwjVdNFh+c9L19wnt5pAaKLEiZj2bgtiOy6zULa9unxggQIECAAAECFQoIsCrEVZoAAQIECBCoqcAhm0xL3+L3pa94T5In17TLh7VVXpQyh2Zh8YPsMWt+M3rWJQECBAgQIECgMwICrM44qkKAAAECBAg0QWDmppOy9qLnZ3F5bIqmBFf/AvvbFHlLVl/35mx//PCvF3oRIECAAAECBHpeQIDV8yO2QQIECBAgQCBJkUM32jBFuWeKbJNkUsNV7k3K72ZhvpTdz/trw/eifQIECBAgQIDAUgUEWEslcgEBAgQIECDQWIHhXxb8ygYrZlLfJ5LsnqS/sXtZYuPlohTZOX2Lv5cdLprXW3uzGwIECBAgQIDA/wkIsJwGAgQIECBAoDcFvrXpMpm3YMcUxY5JntabmxzeVTmUFOelLA/JjPN+0Lv7tDMCBAgQIECgzQICrDZP394JECBAgEAvCsx81pRMW/mFKXJ0bwdXSxheWfwy5cDOmX3BNZmZoV4crz0RIECAAAEC7RQQYLVz7nZNgAABAgR6U+CwjZ6XotwnyZZJVujNTS5lV2VuSV/5g0wq98v7zr++lQY2TYAAAQIECPScgACr50ZqQwQIECBAoIUCR62/Roam7Jgyw8+6mtxCgSVsuZydMjsny5yUGWfOYUKAAAECBAgQaLKAAKvJ09M7AQIECBBou8DM9ZfLtCn/lSI7JHlWkr62kzxk/2UGUhTnJUP7ZY3HnZTtjx/kQ4AAAQIECBBoooAAq4lT0zMBAgQIEGi7wPBzrtZY6dkp+g5OUW7cdo4R7H84uPp+hopPZM11rhdkjUDMJQQIECBAgECtBARYtRqHZggQIECAAIGlChz64qenv39mymyVZKWlXu+CBwvclLL8fqYW/533zroDDQECBAgQIECgKQICrKZMSp8ECBAgQKDdAkUO2WSNTB58S8rys4KrcR+G65J8MPf2nZGPnHPvuKspQIAAAQIECBCoWECAVTGw8gQIECBAgMA4BWamL4/Z6K1JPpSUz0kZ71/GSXrf7UUWpczZ/3hu2Gey06zfdKKkGgQIECBAgACBqgS8AaxKVl0CBAgQIEBgfAJHrT85iyevlyJfSFFsPr5i7n50gfKIlMUB2WnWtSlS0iJAgAABAgQI1E1AgFW3ieiHAAECBAgQSI7a5LEZWPzf6Su2TZnVkFQsMBxaleX1SY5J/+LPZ4eL5lW8ovIECBAgQIAAgVEJCLBGxeViAgQIECBAoFKBr09fLYvK7ZO+zyflKpWupfiSBcri6mTow5m0+AxBlkNCgAABAgQI1EVAgFWXSeiDAAECBAi0WWD4OVfTNnhD0vfJFHlmkslt5qjB3uelKC/IYPbOzuedX4N+tECAAAECBAi0XECA1fIDYPsECBAgQGBCBe4LrjZ6TorsnQxtlxR9E9qPxR8uMPxVwoMzOPi17HLBXxPPx3JECBAgQIAAgYkREGBNjLtVCRAgQIAAgUM2mZZJi7+YFNsmWR1IrQWuS8qjMrDql7PrKQtr3anmCBAgQIAAgZ4UEGD15FhtigABAgQI1Fjg0Bevnr5iy6Tvs0meWONOtfavAhdkaOjjmT//3Ox52VxABAgQIECAAIFuCQiwuiVtHQIECBAgQCA5/CWbJEMHJnlekn4kjRRYkLL8VfoyIzueN/y1Qi8CBAgQIECAQOUCAqzKiS1AgAABAgRaLjBzZl/WPOXZSbFbUry75Rq9tP3FKct9U/YdnZ3P/VsvbcxeCBAgQIAAgfoJCLDqNxMdESBAgACB3hE4brv+zL7hS0n5Ts+56p2xPmgnQ0luylC5b3Y+74ie3KFNESBAgAABArUQEGDVYgyaIECAAAECPSZw2KYrpG/Ba1MW/53k8T22O9tZkkCZs5Ji30xb54xsf/wgJAIECBAgQIBAJwUEWJ3UVIsAAQIECBBIDt1wg/QVX0/ytCRTkbRIoCznJn3npm/o/Z6P1aK52yoBAgQIEOiCgACrC8iWIECAAAECrRA4coNnZaj4QFK8N8myrdizTT6SwK1J9k+R72fHWTdgIkCAAAECBAiMV0CANV5B9xMgQIAAgbYLfGvTZTJ/wSeSYsckq7adw/4fEChT5O8ZLD6eGed+N0VKNgQIECBAgACBsQoIsMYq5z4CBAgQINB2geHnXBULt0zykRR5QYbjCi8C/yJQDiXFSSn7Dsxtd56TmVcsgkSAAAECBAgQGK2AN5qjFXM9AQIECBAgkBy5wdMy2Hd0irwoyWQkBEYgMD/JT1JO3SEzzpwzgutdQoAAAQIECBB4QECA5TAQIECAAAECIxc4/CXPSDH4vpQZftbV8iO/0ZUE/r9AmVvSV+yX5DvZ8dzhZ2V5ESBAgAABAgSWKiDAWiqRCwgQIECAAIH7BA7fcJek+HSKrOLrgs7E+ATKoRTFjRkaek9mnH/a+Gq5mwABAgQIEGiDgACrDVO2RwIECBAgMFaBo9afnIHJ26TInkmx4VjLuI/AIwgMpsxPkqGDM+P8sykRIECAAAECBB5JQIDlbBAgQIAAAQJLFjjsRY9LJh2bIi9OMgkTgcoEiizKUI7N4NAu2fX8eypbR2ECBAgQIECgsQICrMaOTuMECBAgQKAigaNe8vgMljsk5QeSrFbRKsoSWIJA+acM5dD0TfpOdjr7TkQECBAgQIAAgX8KCLCcBQIECBAgQOB+gZnpy7QN35GiOCzJclgITIhAkTJl/p6y762ZcY6vFU7IECxKgAABAgTqJyDAqt9MdESAAAECBLorcP9zrrZIUeyaZFNfF+wuv9UeQaDM/BT5YTJ0eG49/4LMzBArAgQIECBAoL0CAqz2zt7OCRAgQIBAcvjGqyYD306KrXEQqKnA4iT759apn8zMMwdq2qO2CBAgQIAAgYoFBFgVAytPgAABAgRqKXDE9HWS7JAy703y2Fr2qCkCDxW4MmVxaDLl25lx5hw4BAgQIECAQLsEBFjtmrfdEiBAgEDbBY7brj+3X//KlPl2kjXbzmH/TRQor8hg8cbcPutqXyts4vz0TIAAAQIExiYgwBqbm7sIECBAgECzBMoUOWLDVyTFHklenaSvWRvQLYEHCdz3fKzy2AyU+2fX869gQ4AAAQIECPS+gACr92dshwQIECDQZoHh4OqgTVfO1AVfSYq3tZnC3ntVoPxY+hcflB0umterO7QvAgQIECBAIBFgOQUECBAgQKBXBQ7ZYKX0930wKd+Xonhcr27TvlovUKbMJenLYVl93WOy/fGDrRcBQIAAAQIEelBAgNWDQ7UlAgQIEGi5wFHrT87ApJen6P9eUq7Rcg3bb5NAmYszULwzd557hedjtWnw9kqAAAECbRAQYLVhyvZIgAABAu0ROPzFmyT9eyZ5ZZJl27NxOyXwgMAdKcofpa84IDvM+iMXAgQIECBAoDcEBFi9MUe7IECAAIG2Cxy16RoZnP+xpG+XJP1t57B/AknuTordc2/xw3zknHuJECBAgAABAs0WEGA1e366J0CAAIG2Cxz1ypUzOHenFHl3yjyt7Rz2T2AJAhekKA9J3+LjssNFiwkRIECAAAECzRQQYDVzbromQIAAgbYLzNx0maw5/99T9n0rRdZrO4f9ExiBwEkZKmZk9pQbMvPMgRFc7xICBAgQIECgRgICrBoNQysECBAgQGBEAodv8Jyk/5NJuXWSqSO6x0UECAwL3Jnk+ymKz2THc29FQoAAAQIECDRHQIDVnFnplAABAgTaLFCmyJEbTcvQ0I4pik94zlWbD4O9d0BgTlLunIHyJ9n1/Hs6UE8JAgQIECBAoGIBAVbFwMoTIECAAIFxC8yc2Zc1T52RotgpyTMyHGZ5ESAwXoHh52H9LhncLztd8NPxFnM/AQIECBAgUK2AN8DV+qpOgAABAgTGLjDzWVMybeUXpshhSZ439kLuJEDgUQXK8rgMFZ/KzrOuSpGSFgECBAgQIFA/AQFW/WaiIwIECBAgkBz+kmekHPpcirwyySpICBCoXODGlOUP09e3r+djVW5tAQIECBAgMGoBAdaoydxAgAABAgQqFDhiozUzNPj2FH0zk6xQ4UpKEyCwZIHrUmS3LB46w/OxHBECBAgQIFAfAQFWfWahEwIECBBos8Dw1wXXXOkdSbFHUj4j/0iw2sxh7wQmWGBxUl6Qvv5P5wPnnJ74WuEEz8PyBAgQIEDAQ2CdAQIECBAgMKEC9wVXK66X9O2b5FWJP5sndB4WJ/BQgcUp881/fBpy/5y57l9y/PGDgAgQIECAAIGJEfAJrIlxtyoBAgQIEEgO2WDd9BefT1Fsk2RlJAQI1FbgxqQ4OgvKz2WPWfNr26XGCBAgQIBADwsIsHp4uLZGgAABAjUVGH7OVcrXp8zwp65Wr2mX2iJA4F8F/pTB7JW+qadnxplzABEgQIAAAQLdExBgdc/aSgQIECBAIDlswzf841uCM1PkWUn6kRAg0DiBhUnOS1/fh/OBcy5sXPcaJkCAAAECDRUQYDV0cNomQIAAgQYJHLddf2674QUpyn2SvK5BnWuVAIFHEigzkKI8JGVxRGbMugYUAQIECBAgUK2AAKtaX9UJECBAoO0CB0xfLVNYRiweAAAgAElEQVSzX4r7gqvV2s5h/wR6TKBMMvx8rCOz7JT98+4zF/TY/myHAAECBAjURkCAVZtRaIQAAQIEekrg8I1XTQbemLL4dIqs3VN7sxkCBJYgUF6UvvKTmbrsrwRZDggBAgQIEOi8gACr86YqEiBAgECbBcoUOWyDLdPXt3+SpyaZ3GYOeyfQMoHhXyi8IIPZJbvMurxle7ddAgQIECBQqYAAq1JexQkQIECgNQIz05fVpj83k8tdk+I/U2ZKa/ZuowQIPFzg7iQHJ/3HZKez/5Jk+KuGXgQIECBAgMA4BARY48BzKwECBAgQuE/gsGetkKy0b4ri7f/4S+uqVAgQIJAiZcry+qT4Ym6ddURmZogKAQIECBAgMHYBAdbY7dxJgAABAm0XuO85V0NbpRz6RIri6W3nsH8CBB5BoMxZKcovZGDVX2XXUxZyIkCAAAECBEYvIMAavZk7CBAgQIBActT09TKQo1PkOUkmISFAgMBSBIZ/ofCMzJv6rnz4zNm0CBAgQIAAgdEJCLBG5+VqAgQIEGi3QJGjpj87A5mRonxfUvS1m8PuCRAYvUAxJ2X5pQz1fSO7nHPj6O93BwECBAgQaKeAAKudc7drAgQIEBiLwGEbfi5FsUuKrJjhXxv0IkCAwJgEyqGkuDMZ2i07nf/dMZVwEwECBAgQaJmAN98tG7jtEiBAgMAoBY7bbkpu+/t2KYq9kzx7lHe7nAABAo8iUA6lLE5LUX45O513OioCBAgQIEDgkQUEWE4HAQIECBB4JIHh51wNFv+TlMMPaJ8MigABAhUJDD/Y/VdZNPTu7Hb+LRWtoSwBAgQIEGi0gACr0ePTPAECBAhUInDU9GdmIO9PkfckWamSNRQlQIDAwwXK8voUxSHpn/Td7PDbmwARIECAAAEC/ycgwHIaCBAgQIDAPwWO264/t16/R/ryySQrgCFAgMAECJQpc0PKvh2y8zknT8D6liRAgAABArUUEGDVciyaIkCAAIGuCsxcf7msOWWrlNk9RTZMPKC9q/4WI0BgCQL3Pej9pyn7Ds20tc/K9scPYiJAgAABAm0WEGC1efr2ToAAAQLJIc+flsnL/DBlNk7Sh4QAAQK1EigzkCLHZI11dxBi1WoymiFAgACBLgsIsLoMbjkCBAgQqInA1178pCzq3ylF3ptklZp0pQ0CBAg8gkD593/8t+qg9C/+Rna46G5MBAgQIECgbQICrLZN3H4JECBAIDlio7enLI9MshwOAgQINEzgtgwVr83O585qWN/aJUCAAAEC4xIQYI2Lz80ECBAg0BiBmenLmtO3/f/PudrEc64aMzmNEiDwcIEiC1KWP81QDsrO550PiAABAgQItEFAgNWGKdsjAQIE2i1Q5Kj118rA5GNSFJu3m8LuCRDoOYEiB2do6scz48w5Pbc3GyJAgAABAg8SEGA5DgQIECDQuwJfecna6S9npBz6rxTFWr27UTsjQKC1AkXKlOWVSY7Mvf1H5yPn3NtaCxsnQIAAgZ4WEGD19HhtjgABAi0VOGr9yRmY9NoUfV9NsmpLFWybAIH2CVyZgbw1a617mV8sbN/w7ZgAAQK9LiDA6vUJ2x8BAgTaJHDcdv257frNk3KPFMWmSSa3afv2SoAAgSTzkvwoQ+Xw87EuJkKAAAECBHpFQIDVK5O0DwIECLRZoEyRb794tcztPzAp35oUfW3msHcCBAgkmZ8Un84Kcw7NOy4bDrVKKgQIECBAoMkCAqwmT0/vBAgQIJAcssm0TBrYOUXelTKPR0KAAAECDxG4LMlhWWPdo7P98YvYECBAgACBpgoIsJo6OX0TIECg7QLf2nSZLFi0Ucrym0me0HYO+ydAgMBSBH6XsnxnnrXMn/LyMwdoESBAgACBpgkIsJo2Mf0SIECAQHLYBhun6Ns7yas858qBIECAwIgF7knKH2Wgb9/seu61I77LhQQIECBAoAYCAqwaDEELBAgQIDACgeHnXH11/bUyMGWfFNl5BHe4hAABAgSWKFAuStG3ZxbM+3Z2v/QuSAQIECBAoAkCAqwmTEmPBAgQaLvA8NcF5y/cPcl7U+RJGQ6zvAgQIEBgPAKDSXlpivLgrP7472f74wfHU8y9BAgQIECgagF/AahaWH0CBAgQGLvAIVtOTd9dG6cov5aieNLYC7mTAAECBB5RoMxpGSg+lMeuc6UgyzkhQIAAgboKCLDqOhl9ESBAoO0CR0x/ccp8MsnLkqzQdg77J0CAQLUC5eyk+FkGB/fNLhf8pdq1VCdAgAABAqMXEGCN3swdBAgQIFClwGEvWivFpB2T7Jlk2SqXUpsAAQIEHiZQ5rYU2S3LTj057z7T87EcEAIECBCojYAAqzaj0AgBAgRaLnDU+stlYNKOKYr3J8XTW65h+wQIEJhIgTJleUGSL2Wn836SIuVENmNtAgQIECAwLCDAcg4IECBAYGIFDpi+bJbr+/eUQ4ekzPSJbcbqBAgQIPAQgTLHpX/o47l52b9k5pkDdAgQIECAwEQJCLAmSt66BAgQIJB85aVPSv+i/ZJiy3/8P/3LISFAgACBOgqUszOU/8n8lT6aPU+bW8cO9USAAAECvS8gwOr9GdshAQIE6idw1CaPzcDAO1PkM0km169BHREgQIDAEgTuSFnumsHy59n1/HsIESBAgACBbgoIsLqpbS0CBAgQSA7f8L1J8eGkfFpS9CEhQIAAgUYJLEzy+wwNfTw7n//LRnWuWQIECBBotIAAq9Hj0zwBAgQaIjBz00mZNn/DpG/fFHlpQ7rWJgECBAg8ssBgyvLo9JcH5APnXwGKAAECBAhULSDAqlpYfQIECLRd4IgNn5iy+HKSzZKs0nYO+ydAgEBPCRS5KUM5NsvN/0zefeldPbU3myFAgACBWgkIsGo1Ds0QIECghwQO2uAxmdy3XYp8Msm0HtqZrRAgQIDAvwpcmb6hj2ZRfu35WI4HAQIECFQhIMCqQlVNAgQItFnguO36c8v1/5G+fCJF+XTPuWrzYbB3AgRaJVBkUYbKC1L075mdzjmvVXu3WQIECBCoXECAVTmxBQgQINASgaPWn5yBqc9LUe6d5LVJ+luyc9skQIAAgYcKLEyRwzOQr+b2WVdnZoYAESBAgACB8QoIsMYr6H4CBAgQSA583iqZuswBKYs3pshKSAgQIECAQJKbUuSI/Grd/87xxw8SIUCAAAEC4xEQYI1Hz70ECBBou8Ahm0zL5IE3pCxnJsVabeewfwIECBBYosBlKTIz83Nq9pg1nxEBAgQIEBiLgABrLGruIUCAAIHk8A1fmRQHJXlGkklICBAgQIDAowgsSPK7lOUOmXHelaQIECBAgMBoBQRYoxVzPQECBNotUOTIl6yfwaE9UpT/4QHt7T4Mdk+AAIFRC5SZm6I8NBn8anb63Z9Hfb8bCBAgQKC1AgKs1o7exgkQIDBKgW+8ZMUsHNo/yX/c95yr8h9fCPEiQIAAAQKjFyiTzE5Rfj633HNYZl6xaPQl3EGAAAECbRPwl4+2Tdx+CRAgMFqBo9ZfOUNT3pgyw78u+LTR3u56AgQIECDwCALDQdbZ6ev7Qla78/RsL8hyUggQIEDgkQUEWE4HAQIECDySQJHDX7xxyv6vpshTPefKQSFAgACBigQWpizOTZl3Z+dz/1bRGsoSIECAQMMFBFgNH6D2CRAgUInA4S96ctL/4aR4Z5LlKllDUQIECBAg8FCB25N8OQvnH5HdL70LDgECBAgQeLCAAMt5IECAAIGHChy+8aopBk9PmRegIUCAAAECXRYYSnJS+he9OTtcNK/La1uOAAECBGosIMCq8XC0RoAAga4LHPri1dPX/6MkL+v62hYkQIAAAQL3CZRDKYuDc9vUvTLzzAEoBAgQIEBgWECA5RwQIECAwP0Cw78qeMT0LyX5MJLmCCw7aWrWX+OZ2XCtZ+XfV31ynrby47Lq1BWz7gprPrCJMmVum39X7lx4T66954Zce/cNuez2a3Px7Kvy53tuzFA5/IEHLwLNEHjiio/Nqx+/QaY/5tlZb7WnZJ0VpmXZ/qkPaf6exXPzt3tuzqW3/ym/ven3OfXv5+XuhXOasUFd/lNgKGXelhmz/gcJAQIECBAQYDkDBAgQIPB/Aoe9aK0U/RckxeOw1FOgv+jPC6Y9PS9a81l50ZrPzAun/VueuvK6WaZ/ypgbvmfR3Fxzz/W58s6/5fLbr80Vd/4lv5/9p1w/99YMlcM/EOZFYGIFnrHK47Pp2i/Ipus8Pxs+5tkZDrDG8rr8jmsz6+Y/5MwbL86vbrgwt8y7cyxl3NNVgeLszJ2zRfa8bG5Xl7UYAQIECNRSwCewajkWTREgQGACBA7fcI+k+PIErGzJEQi84xlb5gsb7JRpy66S/r7+yj5CPfxprIFy8L4w6yuXH58fXHNGFgwuGkGHLiHQWYF1lp+WQzfZI1s94SWZdN+Z78zb1uFgdtHQohz4+x/kk7/7WgaGBjvbuGqdEygymCx+Xna88A+dK6oSAQIECDRVoDPvBJq6e30TIECAwP8JHDb92hR5MpJ6CAz/Zf25azw1//m0V+XNT908j3vQVwK72eHtC+7Ob268JKdcd15O+/v5+fucW+JzWd2cQPvWeu7qT80u622X7Z+6WVacvHylALfMvz1H/e/PcsT//iQ3zxv+ATyvGgoclnv7PpqPnHNvDXvTEgECBAh0UUCA1UVsSxEgQKDWAodPl0vUaEBfmj4juz3nPzK5b1Jtuhr+JNY3rjwxH7/gyNzleUK1mUuvNDL8ycIPPefN+cL0nTr2aauR2sxZPD/bnrJXfn3DRSO9xXXdE7g2fYNvzgcuuLB7S1qJAAECBOooIMCq41T0RIAAgYkQEGBNhPpD1uwrirz16a/OR5//jvzbqk+c8H4eqYHbF9yTn/zlzBz9x5My65b/9RD42k6qOY2tt/pT8rkNdshrHj89k4r+CWl83sCCfP3Kn2ffi47OrfM9H2tChrDkRQcy1Pfa7HzOyTXqSSsECBAgMAECAqwJQLckAQIEaikgwJrQsawwebl86+Ufy5ue8vIJ7WM0iw//uuGx15yeXX57QIa/auhFYCwCz1n9KTl164Py2OVWH8vtHb9n1i2X55UnfDDDgZZXTQSKbJMdZ51Yk260QYAAAQITJCDAmiB4yxIgQKB2AgKsCRvJ89d4eg58yQfz0sc+L0XRvD+ah5+L9dUrfpYj//enmb3grglztHCzBPqKvvzHU1+Rg16yW9ZcdtVaNT/8i4XvOOMzuXT2n2rVV2ubEWC1dvQ2ToAAgQcLNO9dsvkRIECAQDUCAqxqXJdSdfiB1adtc3Dt/gI/Foz/veMv2erkD933oPfhX3rzIvBoAhs/9rk5ZasDssLkZWsJdeO82Xn2sW/NnQs9O3zCByTAmvARaIAAAQJ1EBBg1WEKeiBAgEAdBARYXZ/CS9d+fr656T55ysrrdH3tqha8d/G87Hfp9/KFi7+TxUMDVS2jbsMFNl/3RfneK2dmWs0+efVw1ktmX53Xn7J3/jbn5oaLN7x9AVbDB6h9AgQIdEZAgNUZR1UIECDQfAEBVldnOPyQ9tO3OThrLz+tq+t2a7Fzbr4srztlb18p7BZ4g9ZZa7nV8+vXHppnrvKERnT9w2t/lbec/qkMDA02ot+ebFKA1ZNjtSkCBAiMVkCANVox1xMgQKBXBQRYXZvsY5ZdNSdtdUDWn/aMrq05EQtdPPuqvPfXn8/wp1i8CAwLTOmfnGM3/2xe96SXpilvQod/rOAzF34rn73wmxkshwxyIgQEWBOhbk0CBAjUTqAp7x1qB6chAgQI9JyAAKsrI53aPyXHbv6Z+/4C34bXQDmYV/98t/zqhovasF17fBSBIkV2fc529z20vWmvOxbec985vvC2Pzat9d7oV4DVG3O0CwIECIxTQIA1TkC3EyBAoGcEBFhdGeX2T3lFvrXZx7LcpGW6sl4dFrlh7m3Z6az9csJfz65DO3qYIIFpy66Sc1//1Tx15XUnqIPxLXvKdbOy9ckf9gMF42Mc290CrLG5uYsAAQI9JiDA6rGB2g4BAgTGLCDAGjPdSG9cZeqKueotx/bELw6OdM//vG74a1hbnLh7Tvv7BaO91fU9IDD8hvPzG+6Yjzz/7Y3ezX/88uM57ppfNXoPjWxegNXIsWmaAAECnRYQYHVaVD0CBAg0VUCAVenk+oq+HPSSD2aX9bardJ06F79+7q15/al758JbfQ2rznOqordnrfqkXLTdt7JM/5Qqynet5gW3XpFXn7hb7lo4p2trWiiJAMsxIECAAIH7/jjwIkCAAAECwwICrErPwRNWXCu/ee3hGf7fNr/uWjQnG/zovbn6ruvazNCqvQ8/++qL03fKns97a+P3vWBgYbY8aY+ceeMljd9LozYgwGrUuDRLgACBqgQEWFXJqkuAAIGmCQiwKp3YLuu9KQe9ZPf0Ff7oPfOGi+8LARYMLqrUXPF6CKwwebmc9brD8/w1nl6PhsbZxTFXnZJ3/eqz46zi9lEJCLBGxeViAgQI9KqAd9G9Oln7IkCAwGgFBFijFRvx9ZP6+nP1W36QJ6209ojv6fULf/KX3+Stp8/M/IGFvb7V1u/vOas/JRdvd0z6i76esFg4uChrHb11hj9N6NUlAQFWl6AtQ4AAgXoLCLDqPR/dESBAoHsCAqzKrF+xzgtz+raHVFa/iYWHyqF85sJv5tMXfrOJ7et5FAJf2WSP7PzsN43ijvpf+u5f75uj/3hS/RvtlQ4FWL0ySfsgQIDAuAQEWOPiczMBAgR6SECAVdkwD3rJbvngc7avrH5TCy8eGsibf/mJ/PQvv81woOXVewKTiv7c8M4Teu6XN3/859/kTaftk7Ise29oddyRAKuOU9ETAQIEui4gwOo6uQUJECBQUwEBViWDWXbS1Jy81QHZdO3nV1K/6UXvWTQ3b/zFPjn9+t81fSv6X4LAM1d9Qq588//0nM2ls6/Opj/bOXf7GmF3ZivA6o6zVQgQIFBzAQFWzQekPQIECHRNQIBVCfVjll0tv3ndYXnGKk+opH4vFL3m7uuz6c9m5Ia5t/XCduzhQQJvesrLc/yr9u05k+vm3JKX/XTH/PXem3tub7XckACrlmPRFAECBLotIMDqtrj1CBAgUFcBAVYlk3nKSuvk/Dd+Pasvs3Il9Xul6CWzr87WJ384N86d3Stbso8kez3vrfni9Bk9ZzH8yatNfrpjLr/92p7bWy03JMCq5Vg0RYAAgW4LCLC6LW49AgQI1FVAgFXJZP59tSflku2OyeS+SZXU75Wiw08S+tYfT8yOZ+2XRYOLe2Vbrd/H/hvtkg899y095zAwNJiNf7JDzr/1ip7bWy03JMCq5Vg0RYAAgW4LCLC6LW49AgQI1FVAgFXJZDZ8zLMz6w1fraR2rxUdLAdz+B9+nN3POTiDHure+PEWKfK1TffOe/5tm8bvZUkbGP7a629uvKQn91a7TQmwajcSDREgQGAiBARYE6FuTQIECNRRQIBVyVS2eNyGOWXrAyqp3YtFFw4uyvt/88V8+6pTenF7rdpTX9GXozf7eN7+9C16ct9v+sXH8qM//7on91a7TQmwajcSDREgQGAiBARYE6FuTQIECNRRQIBVyVQEWKNnvXPhvXnDLz6aM2+4ePQ3u6M2AgKs2oyi+Y0IsJo/QzsgQIBABwQEWB1AVIIAAQI9ISDAqmSMAqyxsd407/a86ucfzB/u+PPYCrhrwgUEWBM+gt5pQIDVO7O0EwIECIxDQIA1Djy3EiBAoKcEBFiVjFOANTbW4Ye6X3Trlff90tuCwUVjK+KuCRUQYE0of28tLsDqrXnaDQECBMYoIMAaI5zbCBAg0HMCAqxKRirAGh/rz/7627zzjM/k7kVzx1fI3V0XEGB1nbx3FxRg9e5s7YwAAQKjEBBgjQLLpQQIEOhpAQFWJeMVYI2PdfiXCT930TGZ+buvj6+Qu7suIMDqOnnvLijA6t3Z2hkBAgRGISDAGgWWSwkQINDTAgKsSsYrwBo/61DKvO/Xn88xV52S4UDLqxkCAqxmzKkRXQqwGjEmTRIgQKBqAQFW1cLqEyBAoCkCAqxKJiXA6gzrXYvmZNuT98xvb/p9ZwqqUrmAAKty4vYsIMBqz6ztlAABAo8iIMByPAgQIEDgfgEBViUnQYDVOda/3ntTtjl5T79M2DnSSisJsCrlbVdxAVa75m23BAgQeAQBAZajQYAAAQICrArPgACrs7iXzv5Ttjhx99wy/47OFlat4wICrI6TtregAKu9s7dzAgQIPEhAgOU4ECBAgIAAq8IzIMDqLG6Z5Pt/Oi07/OYLmbt4QWeLq9ZRAQFWRznbXUyA1e752z0BAgT+v4AAy1EgQIAAAQFWhWdAgNV53LIs89Urf5adzto/Q+VQ5xdQsSMCAqyOMCoyLCDAcg4IECBA4L4/DrwIECBAgMCwgGdgVXIOBFiVsGbewILsevaB+caVP69mAVXHLSDAGjehAv8UEGA5CwQIECAgwHIGCBAgQOABAQFWJYdBgFUJ631FFw8NZOuT98xpfz+/ukVUHrOAAGvMdG58uIAAy5kgQIAAAQGWM0CAAAECAqxqz4AAq1rf4V8m3PaUvXL57ddWu5DqoxYQYI2azA2PJCDAcjYIECBAQIDlDBAgQICAAKvaMyDAqtZ3uPo191yf5x33zsxdPL/6xawwYgEB1oipXLg0AQHW0oT8ewIECLRCwDOwWjFmmyRAgMAIBHyFcARIo79EgDV6s7Hc8bO/npV3nPHZ3LNo7lhud08FAgKsClDbWlKA1dbJ2zcBAgQeIiDAciAIECBA4H4BAVYlJ0GAVQnrEot+7qKj84kLvtq9Ba30qAICLAekYwICrI5RKkSAAIEmCwiwmjw9vRMgQKCTAgKsTmo+UEuAVQnrEosOpczu5xycwy7/YQbLoe4tbKUlCgiwHIyOCQiwOkapEAECBJosIMBq8vT0ToAAgU4KCLA6qSnAqkRz6UXvXTwvrzhh1/zu1iuWfrErKhUQYFXK267iAqx2zdtuCRAg8AgCAixHgwABAgTuFxBgVXISfAKrEtZHLXrTvNvz+lM/kvNvEWJ1X///VhRgTaR+j60twOqxgdoOAQIExiYgwBqbm7sIECDQewICrEpmKsCqhHWpRS+ZfXU2//kHc/uCu5d6rQuqERBgVePayqoCrFaO3aYJECDwcAEBljNBgAABAvcLCLAqOQkCrEpYl1q0THLS387JW0+f6ZcJl6pVzQUCrGpcW1lVgNXKsds0AQIEBFjOAAECBAgsWUCAVcnJEGBVwjriokf84cfZ9ewDM1AOjvgeF3ZGQIDVGUdVkgiwHAMCBAgQuO+PAy8CBAgQIDAsIMCq5BwIsCphHXHReQMLstesw3LYH3404ntc2BkBAVZnHFURYDkDBAgQIHC/gADLSSBAgACB+wUEWJWcBAFWJayjLvr6U/fOz/5yVoa/WujVHQEBVnecW7GKT2C1Ysw2SYAAgaUJCLCWJuTfEyBAoC0CAqxKJi3AqoR11EX/cu9N2fLE3XPVXdeN+l43jE1AgDU2N3ctQUCA5VgQIECAgE9gOQMECBAg8ICAAKuSwyDAqoR1TEVvnDs7L/rRf2X4f72qFxBgVW/cmhUEWK0ZtY0SIEDg0QR8Asv5IECAAIH7BQRYlZwEAVYlrGMuesJfz852v9gni4YGxlzDjSMTEGCNzMlVIxAQYI0AySUECBDofQEBVu/P2A4JECAwMgEB1sicRnmVAGuUYF24/Ct/OD4fPvfQLBpc3IXV2ruEAKu9s+/4zgVYHSdVkAABAk0UEGA1cWp6JkCAQBUCAqwqVCPAqoR1XEXLlPcFWAf+/tgM/7NXNQICrGpcW1lVgNXKsds0AQIEHi4gwHImCBAgQOB+AQFWJSdBgFUJ67iLzlk8L1ue9KGcc9NlQqxxay65gACrItg2lhVgtXHq9kyAAIF/ERBgORQECBAgIMCq8AwIsCrEHWfpOxfem21P2TNn33TZOCu5fUkCAiznomMCAqyOUSpEgACBJgsIsJo8Pb0TIECgkwI+gdVJzQdqCbAqYe1Y0Ytvuyqv/PmuGQ6zvDorIMDqrGerqwmwWj1+mydAgMA/BQRYzgIBAgQI3C8gwKrkJAiwKmHtaNFzb748W5/8YSFWR1UTAVaHQdtcToDV5unbOwECBB4QEGA5DAQIECAgwKrwDAiwKsTtYOlD//DDfPDsAzNUeqh7p1gFWJ2SVCcCLIeAAAECBJIIsBwDAgQIEBBgVXgGBFgV4naw9ILBRfn0hd/IFy7+TgertruUAKvd8+/o7gVYHeVUjAABAk0VEGA1dXL6JkCAQKcFfIWw06L31RNgVcJaSdGhcihv/uUnc/y1v6qkftuKCrDaNvEK9yvAqhBXaQIECDRHQIDVnFnplAABAtUKCLAq8RVgVcJaWdEb587Oy0+Ykavv+ntla7SlsACrLZPuwj4FWF1AtgQBAgTqLyDAqv+MdEiAAIHuCAiwKnEWYFXCWmnRm+bdno1/8oH8+Z4bKl2n14sLsHp9wl3cnwCri9iWIkCAQH0FBFj1nY3OCBAg0F0BAVYl3gKsSlgrL3rqdedly5P2qHydXl5AgNXL0+3y3gRYXQa3HAECBOopIMCq51x0RYAAge4LCLAqMRdgVcLalaLf+OPP88HfHpi5Awu6sl6vLSLA6rWJTuB+BFgTiG9pAgQI1EdAgFWfWeiEAAECEysgwKrEX4BVCWtXig6WQ9lr1qE54PfHdmW9XltEgNVrE53A/QiwJhDf0gQIEKiPgACrPrPQCQECBCZWQIBVib8AqxLWrhWdN7Aw25/2sZx83ayUZdm1dXthIQFWL0yxJnsQYNVkENogQIDAxAoIsCbW3+oECBCoj4AAq5JZCLAqYe1q0TsW3pNtT94r59x8WVfXbfpiAqymT8GNsRAAACAASURBVLBG/QuwajQMrRAgQGDiBARYE2dvZQIECNRLQIBVyTwEWJWwdr3oJbOvzran7JXr59za9bWbuqAAq6mTq2HfAqwaDkVLBAgQ6L6AAKv75lYkQIBAPQUEWJXMRYBVCeuEFL149lXZ/IQPZvgTWV5LFxBgLd3IFSMUEGCNEMplBAgQ6G0BAVZvz9fuCBAgMHIBAdbIrUZxpQBrFFg1v3SoLHPkFT/JB88+MANDgzXvduLbE2BN/Ax6pgMBVs+M0kYIECAwHgEB1nj03EuAAIFeEhBgVTJNAVYlrBNWdLAczH6Xfj8fPe+ICeuhKQsLsJoyqQb0KcBqwJC0SIAAgeoFBFjVG1uBAAECzRAQYFUyJwFWJawTWnTuwIK859f75gfXnDGhfdR9cQFW3SfUoP4EWA0allYJECBQnYAAqzpblQkQINAsAQFWJfMSYFXCOuFF5w7Mz0Y/3iGX3X7NhPdS1wYEWHWdTAP7EmA1cGhaJkCAQOcFBFidN1WRAAECzRQQYFUyNwFWJay1KHrN3ddnq5M/nKvvuq4W/dStCQFW3SbS4H4EWA0entYJECDQOQEBVucsVSJAgECzBQRYlcxPgFUJay2Klklm3Xx5XvrTHTNYDtWipzo1IcCq0zQa3osAq+ED1D4BAgQ6IyDA6oyjKgQIEGi+gACrkhn2coB14W1/zLRlVskTVlyrErumFP3O1adkxllfzr2L5zWl5a70KcDqCnM7FhFgtWPOdkmAAIGlCAiwHBECBAgQuF9AgFXJSejlAGs4uPn8xd/JJdsdk6n9kyvxa0LRoXIoH551aA78/bFNaLdrPQqwukbd+wsJsHp/xnZIgACBEQgIsEaA5BICBAi0QkCAVcmYeznA+vZVp+Sdv/ps3vXM1+Sol34kU1ocYs0fWJgdfvPFfPdPv0hZDn+50EuA5Qx0TECA1TFKhQgQINBkAQFWk6endwIECHRSQIDVSc0HarUhwBre7AEb7Zrdn/vmSgybUvSuhXOy+Ym75sJb/9iUlivtU4BVKW+7iguw2jVvuyVAgMAjCAiwHA0CBAgQuF9AgFXJSWhLgNVXFPn6pvvkXc94TYqivW8v/njn3/LaUz/ilwmTCLAq+U9KO4sKsNo5d7smQIDAwwTa+w7TUSBAgACBhwoIsCo5EW0JsIbxVpm6Yi7e7ug8acXHVmLZlKKX3H51XvGzXXLnwnub0nIlfQqwKmFtZ1EBVjvnbtcECBAQYDkDBAgQILBEAQFWJQejTQHWMODjV3hMTtxq/6y32lMq8WxC0eGHun/76lPy/jO/kMVDg01ouZIeBViVsLazqACrnXO3awIECAiwnAECBAgQEGB17wy0LcAalt10nRfk1K0OyNT+Kd2DruFK+//++/nIrMMy1NKHuguwangom9qSAKupk9M3AQIEOirgK4Qd5VSMAAECDRbwCaxKhtfGAKtIkTc/7ZX56sv2zgqTl63EtQlF7100L+//zRdz7DW/bEK7He9RgNVx0vYWFGC1d/Z2ToAAgQcJCLAcBwIECBC4X0CAVclJaGOA9U/IT73ov/KpF743bX6zMVgOZZOffCCzbvlDJeerzkUFWHWeTsN6E2A1bGDaJUCAQDUCbX5PWY2oqgQIEGiqgACrksm1OcBaacry+crGe+Qdz9iyEtumFL36ruvympM/lGvvvqEpLXekTwFWRxgVGRYQYDkHBAgQIHDfHwdeBAgQIEBgWECAVck5aHOA9U/QM7b9SjZbZ/1KfJtS9JLZV+elP90xcxbPb0rL4+5TgDVuQgX+KSDAchYIECBAQIDlDBAgQIDAAwICrEoOgwAreeaqT8ivtz00ay23eiXGTSn6P9f8Mu/79eczd2BBU1oeV58CrHHxufnBAgIs54EAAQIEBFjOAAECBAgIsKo9AwKs+32ftNLa+d0bv5HVl1m5WvAaVy9TZs9Zh+Wg3x+b4Wdj9fpLgNXrE+7i/gRYXcS2FAECBOor4CuE9Z2NzggQINBdAZ/AqsRbgPV/rG97+hb5zis+WYlzU4ouHhrIzr/9cr525Qkpy7IpbY+pTwHWmNjctCQBAZZzQYAAAQI+geUMECBAgMADAgKsSg6DAOuhrJ964XvysfXfmcl9kyrxbkLROxbck1eduFsuuu2PTWh3zD0KsMZM58aHCwiwnAkCBAgQEGA5AwQIECAgwKr2DAiwHuo7qa8/R750z7zn37atFr7m1f8+55ZsffKeuez2a2re6djbE2CN3c6dDxMQYDkSBAgQICDAcgYIECBAQIBV7RkQYP2r70pTls+vtz0sL5j29Grxa179nJsvz7an7JnhT2T14kuA1YtTnaA9CbAmCN6yBAgQqJeAZ2DVax66IUCAwMQJ+AphJfYCrCWzrr38Gjl5qwPy3NWfWol7E4oOPwPrJ3/5Td56+qezYHBhE1oeVY8CrFFxufjRBARYzgcBAgQI+ASWM0CAAAECDwgIsCo5DAKsR2Z92drPywlb7p+VpixXiX1Tin7p0u9mn/OOymA52JSWR9SnAGtETC4aiYAAayRKriFAgEDPC/gEVs+P2AYJECAwQgEB1gihRneZAOuRvYbfhLzmCRvl2M0/kxUmtzfEmrN4fnY6a7985+pTR3e4an61AKvmA2pSewKsJk1LrwQIEKhMQIBVGa3CBAgQaJiAAKuSgQmwHp11OOT42AvelU+/+D0p0t63JYPlUF5z0h755d9/lzJlJWex20UFWN0W7+H1BFg9PFxbI0CAwMgF2vtOceRGriRAgEA7BARYlcxZgLV01uUmTc3+G+2aHf/99Uu/uIevuObu6/PyE3bO9XNu7YldCrB6Yoz12IQAqx5z0AUBAgQmWECANcEDsDwBAgRqIyDAqmQUAqyRsS43aZn86NX/nS0ev+HIbujRq66886/Z7ISdc/O8Oxq/QwFW40dYnw0IsOozC50QIEBgAgUEWBOIb2kCBAjUSkCAVck4BFgjZ33iio/Nma89LE9Yca2R39SDVx537Rl56+kzMzDU7Ie6C7B68HBO1JYEWBMlb10CBAjUSkCAVatxaIYAAQITKCDAqgRfgDU61n9b9Yn55TYHZ53lp43uxh66evgZWJ++8Bv5/MXfyaLBxY3dmQCrsaOrX+MCrPrNREcECBCYAAEB1gSgW5IAAQK1FBBgVTIWAdboWIuiyJue/PIc96rPje7GHrt6+KHuu559YA7/w48auzMBVmNHV7/GBVj1m4mOCBAgMAECAqwJQLckAQIEaikgwKpkLAKssbHu8dy3ZN8Ndsgy/VPGVqAH7rp9wd3Z6uQP5fxbrmjkbgRYjRxbPZsWYNVzLroiQIBAlwUEWF0GtxwBAgRqKyDAqmQ0AqyxsU7tn5wjX7ZX3vWMrcZWoEfuunPhvdn857vmotuuatyOBFiNG1l9GxZg1Xc2OiNAgEAXBQRYXcS2FAECBGotIMCqZDwCrLGzLj952fxsiy9ms3XXT5H2vmX57U2/zzYn75m7F80ZO+YE3CnAmgD0Xl1SgNWrk7UvAgQIjEqgve8GR8XkYgIECLRAQIBVyZAFWONjXXf5aTll6wPz7NWePL5CDb57+KHu59x8eV79890yb2BBY3YiwGrMqOrfqACr/jPSIQECBLogIMDqArIlCBAg0AgBAVYlYxJgjZ91+lrPzo9f/fmstdzq4y/W4ApfuuR7+ch5hzVmBwKsxoyq/o0KsOo/Ix0SIECgCwICrC4gW4IAAQKNEBBgVTImAVZnWF/9uA3yw1fvmxUmL9eZgg2ssnBwcT549oE56oqfNqJ7AVYjxtSMJgVYzZiTLgkQIFCxgACrYmDlCRAg0BgBAVYloxJgdYa1v+jL3i94Rz79ovekv+jvTNEGVhkoB/PaUz6Sk/92bu27F2DVfkTNaVCA1ZxZ6ZQAAQIVCgiwKsRVmgABAo0SEGBVMi4BVudYJ/X15wsb7JgPPe8/O1e0gZVumnd7nvODt2f2grtq3b0Aq9bjaVZzAqxmzUu3BAgQqEhAgFURrLIECBBonIAAq5KRCbA6y7rq1BXzvVfOzJaPn97Zwg2rdtVd12WLE3fPX++9qbadC7BqO5rmNSbAat7MdEyAAIEKBARYFaAqSYAAgUYKCLAqGZsAq/Osq0xdIRe84Rt52iqP63zxBlX88Z/PzBt/sU9tOxZg1XY0zWtMgNW8memYAAECFQgIsCpAVZIAAQKNFBBgVTI2AVYlrHn+Gk/PCa/ZL+suP62aBRpS9aDLfpB9zj8y8wcW1q5jAVbtRtLchgRYzZ2dzgkQINBBAQFWBzGVIkCAQKMFBFiVjE+AVQlrihTZ/HEvyi+2PqiaBRpSdbAczE5nfTlfreEvEwqwGnKImtCmAKsJU9IjAQIEKhcQYFVObAECBAg0RECAVcmgBFiVsD5QdJf1tssXp++UZfunVrtQjavfufDevP2MT+ekmv0yoQCrxoemaa0JsJo2Mf0SIECgEgEBViWsihIgQKCBAgKsSoYmwKqE9YGiw79M+K2Xfyxve/oW1S5U8+p3Lbw3Lz9h51w6+0+16VSAVZtRNL8RAVbzZ2gHBAgQ6ICAAKsDiEoQIECgJwQEWJWMUYBVCetDii43aZl8+xWfzBue/LL7vlrY1tf5t/xvXnvKR3LL/DtqQSDAqsUYeqMJAVZvzNEuCBAgME6B9r7LGyec2wkQINBzAgKsSkYqwKqE9V+KrrXc6jn79UfmKSut050Fa7rKhbf+MS/72U6ZN7BgwjsUYE34CHqnAQFW78zSTggQIDAOAQHWOPDcSoAAgZ4SEGBVMk4BViWsSyw6/MuEP97i83niio/t3qI1W2mwHMpXLj8+u59z8IR3JsCa8BH0TgMCrN6ZpZ0QIEBgHAICrHHguZUAAQI9JSDAqmScAqxKWB+x6CvWfWFO2PJLGf5aYZtfe5xzcA687AcTSiDAmlD+3lpcgNVb87QbAgQIjFFAgDVGOLcRIECg5wQEWJWMVIBVCesjFh1+qPuMZ78x+0/fJcP/3NbXvYvn5W2nfzon/PW3E0YgwJow+t5bWIDVezO1IwIECIxBQIA1BjS3ECBAoCcFBFiVjFWAVQnrUov+94YfyN7Pf3urH+p+96I5ed5x78xf771pqV5VXCDAqkK1pTUFWC0dvG0TIEDgoQICLCeCAAECBO4XEGBVchIEWJWwLrXo6suslG9v9sm85gkbLfXaXr7gf+/4c7Y9Za/8+Z4bu75NAVbXyXt3QQFW787WzggQIDAKAQHWKLBcSoAAgZ4WEGBVMl4BViWsIyra39eXi950dJ67+lNHdH2vXvTzv56dN/5inyweGujqFgVYXeXu7cUEWL09X7sjQIDACAUEWCOEchkBAgR6XkCAVcmIBViVsI646PAvE/5i64MybdlVRnxPL174tStPyG5nH5h5Awu7tj0BVteoe38hAVbvz9gOCRAgMAIBAdYIkFxCgACBVggIsCoZswCrEtZRFd1orfXyy20ObvUvEy4eGsxOZ+2Xb1z585QpR+U31osFWGOVc9+/CAiwHAoCBAgQSCLAcgwIECBA4H4BAVYlJ0GAVQnrqIvu9O9vyEEb75bJfZNGfW+v3DBn8by878wv5AfXnN6VCEuA1Ssnpwb7EGDVYAhaIECAwMQLCLAmfgY6IECAQD0EBFiVzEGAVQnrqIsWRZFvbLpP3vGMLdNf9I36/l654Zb5d2bLE3fPJbOvrnxLAqzKiduzgACrPbO2UwIECDyKgADL8SBAgACB+wUEWJWcBAFWJaxjKjq1f3K+tdnH8+anbt7qj6Bffse12frkD+e6e28Zk+NIbxJgjVTKdUsVEGAtlcgFBAgQaIOAAKsNU7ZHAgQIjERAgDUSpVFfI8AaNVmlNzx2uTVy9uuPzJNXWrvSdepe/KybLs22J++VuxfNqaxVAVZltO0rLMBq38ztmAABAksQEGA5FgQIECBwv4AAq5KTIMCqhHVcRZ+80jo5desD87SV1x1XnSbfPFAO5utX/DwzfrtfhspqHuouwGryCalZ7wKsmg1EOwQIEJgYAQHWxLhblQABAvUTEGBVMhMBViWs4y661RM2yvGv2jfLTpo67lpNLrDP+UfmS5d8L4PlYMe3IcDqOGl7Cwqw2jt7OydAgMCDBARYjgMBAgQI3C8gwKrkJAiwKmEdd9HhcOVtT391vrbpRzOlxb9MePeiuXnbGTNz4l/PGbfpwwsIsDpO2t6CAqz2zt7OCRAgIMByBggQIEDgXwQEWJUcCgFWJawdK/r5DXfM3s9/e8fqNbHQvIEFednPdspFt/4xnfwyoQCriaehpj0LsGo6GG0RIECguwI+gdVdb6sRIECgvgICrEpmI8CqhLVjRVeeskKO2ewTee2TNulYzSYW+sMdf84WJ+2eG+bc1rH2BVgdo1RIgOUMECBAgEDS6l+RdgAIECBA4MECAqxKzoMAqxLWjhbt7+vLb197RKavtV5H6zat2K9uuChvOPWjHftlQgFW005AjfsVYNV4OFojQIBA9wR8Aqt71lYiQIBAvQUEWJXMR4BVCWvHi663+lNy9uuOzEpTlu947SYV/OYfT8yMs/bPgsFF425bgDVuQgX+KSDAchYIECBAwCewnAECBAgQeEBAgFXJYRBgVcJaSdEXrvnMnLrVgVl9mZUrqd+EogNDg9nt3INyxB9+kqFyaFwtC7DGxefmBwsIsJwHAgQIEBBgOQMECBAgIMCq9gwIsKr17XT19z/rdTnqZXt1umyj6g1/+uoDv/lSjrnq5HH1LcAaF5+bBVjOAAECBAg8TMBXCB0JAgQIELhfwCewKjkJAqxKWCsr2lcU+fJGu2bGs9+YyX2TKlun7oVvmHtbtj15r1w8+6oxtyrAGjOdGx8u4BNYzgQBAgQI+ASWM0CAAAECDwgIsCo5DAKsSlgrLTocXB292cfzn097VaXr1L34dXNuyWY/2znX3nPDmFoVYI2JzU1LEhBgORcECBAgIMByBggQIEBAgFXtGRBgVetbVfXHLLdaTtvmoDxntadWtUQj6p5x/YV54y/2GdMvEwqwGjHiZjQpwGrGnHRJgACBigV8hbBiYOUJECDQGAGfwKpkVAKsSli7UvRxK6yZ07Y5OM9c5QldWa+OiwyWQ/nhtb/Kf57+qQyV5ahaFGCNisvFjyYgwHI+CBAgQMAnsJwBAgQIEHhAQIBVyWEQYFXC2rWiWz1hoxy7+WeywuTlurZmHRf61O++ln0vOibDgdZIXwKskUq5bqkCAqylErmAAAECbRDwCaw2TNkeCRAgMBIBAdZIlEZ9jQBr1GS1uqFIkW2euHF+8KrPZpn+KbXqrZvNzB1YkO1P+1hO/tusES8rwBoxlQuXJiDAWpqQf0+AAIFWCAiwWjFmmyRAgMAIBARYI0Aa/SUCrNGb1e2OSX39+eyL35+9n//2urXW1X4WDi7Oq078YM668dIRrSvAGhGTi0YiIMAaiZJrCBAg0PMCAqyeH7ENEiBAYIQCAqwRQo3uMgHW6LzqevXwp6++8fJ9Wv/LhFfddV1e9MP/yr2L5y11VAKspRK5YKQCAqyRSrmOAAECPS0gwOrp8docAQIERiEgwBoF1sgvFWCN3KruV640ZfmcsOWX8rK1n1/3Vivtb9Ytf8gbTv1obp53+6OuI8CqdAztKi7Aate87ZYAAQKPIPD/2rsPaGvK8nzc9+zzdXrviopdREXKR1EQwRbsvWOjYxcVy1FsRBGlo0b4JyYWTBQsqFHBKB0SDYqiJsYWBRREKV87Z/45aH6xoHzlzOx5Z669XCuu5Z7nfZ7rmRU299pntgDLrUGAAAECvxUQYDVyJwiwGmEdW9E7rrN5/vWJZ2TDBeuOrYcuHHzGVZ/J8899e6b/wkPdBVhd2FRPehBg9WSRxiBAgMCaCQiw1szP1QQIEOiPgACrkV0KsBphHWvRXTe7dz7x8Hdk80UbjbWPcR4+VU/lqItPy7u/8ZEsn15xm60IsMa5oZ6dLcDq2UKNQ4AAgdUTEGCtnpurCBAg0D8BAVYjOxVgNcI61qIzv0z43Hs8Mh/c+6ix9jHuw6fq6bzgvLfljO98VoA17mX0/XwBVt83bD4CBAislIAAa6WYvIkAAQIDEBBgNbJkAVYjrJ0o+qadXnDrLxPOm5jbiX7G0cRPb7o2j/vcq3PpNd/+k+N9A2scG+npmQKsni7WWAQIEFg1AQHWqnl5NwECBPorIMBqZLcCrEZYO1F0/sS8fGifN+aJd9m7E/2Mq4lbVizNDh97dr53w4//oAUB1rg20sNzBVg9XKqRCBAgsOoCAqxVN3MFAQIE+ikgwGpkrwKsRlg7U3TjBevlY/u9JXtvtWNnehpHI1/8yaV5zDlH5uYVS/7f8QKscWyip2cKsHq6WGMRIEBg1QQEWKvm5d0ECBDor4AAq5HdCrAaYe1U0W3W3jRffvSJ2W69rTvVV5vN1EnO/clledinX5oV9dStRwuw2txAz88SYPV8wcYjQIDAygkIsFbOybsIECDQfwEBViM7FmA1wtq5ovts9cB8dL+js9GC9TrXW1sN1anz5ss+mMlL/0aA1Rb6UM4RYA1l0+YkQIDAXxQQYLlBCBAgQOC3AgKsRu4EAVYjrJ0s+rBtds3Zjzhm0A91nwmx9v/sK/OZH17gG1idvEsLbUqAVejitE2AAIHZFRBgza6nagQIEChXQIDVyO4EWI2wdrLovNGcvHbH5+aND3xeJ/trq6mbli+59ZcJv/TTy3LGQ16XZ93t4W0d3eo5T/z8UfnH/zy31TMHe5gAa7CrNzgBAgR+X0CA5X4gQIAAgd8KCLAauRMEWI2wdrroB/d+bQ64x191usemm/vJjdfkPh99Rk7Y8+UCrKaxh1BfgDWELZuRAAECtysgwLpdIm8gQIDAQAQEWI0sWoDVCGuni268YP2cud9bstdWD+h0n00392+/uCq/Wnpjb3+h0Tewmr6Dfq++AKtFbEcRIECguwICrO7uRmcECBBoV0CA1Yi3AKsR1s4X3WD+uvnWU/8+WyzaqPO9anD1BARYq+e2WlcJsFaLzUUECBDom4AAq28bNQ8BAgRWV0CAtbpyf/E6AVYjrEUUXbz5ffLJhx+TTRduUES/mlw1AQHWqnmt0bsFWGvE52ICBAj0RUCA1ZdNmoMAAQJrKiDAWlPB27xegNUIazFFn3HX/XLGQ16fOaOJYnrW6MoJCLBWzmlW3iXAmhVGRQgQIFC6gACr9A3qnwABArMlIMCaLck/qCPAaoS1qKKvuv8zcvROL8q8iblF9a3ZvywgwGrxDhFgtYjtKAIECHRXQIDV3d3ojAABAu0KCLAa8RZgNcJaVNGZ4Ooj+x6dx95pz1Tx0auo5f2FZgVYLW5SgNUitqMIECDQXQGforq7G50RIECgXQEBViPeAqxGWIsruu68tfJ3+7wxj952j+J61/BtCwiwWrwzBFgtYjuKAAEC3RUQYHV3NzojQIBAuwICrEa8BViNsBZZ9M7rbpl/3v/4zPxfr/IFBFgt7lCA1SK2owgQINBdAQFWd3ejMwIECLQrIMBqxFuA1QhrsUUfuOk98qlHvDObL9qo2Bk0/lsBAVaLd4IAq0VsRxEgQKC7AgKs7u5GZwQIEGhXQIDViLcAqxHWoos+/s573frnhIvmzC96jqE3L8Bq8Q4QYLWI7SgCBAh0V0CA1d3d6IwAAQLtCgiwGvEWYDXCWnTRuaM5eckOT8k7dj0kIw91L3aXAqwWVyfAahHbUQQIEOiugACru7vRGQECBNoVEGA14i3AaoS1F0VPffCr8sJ7PjqjatSLeYY2hACrxY0LsFrEdhQBAgS6KyDA6u5udEaAAIF2BQRYjXgLsBph7UXRjRasl3962NvzoC3v14t5hjaEAKvFjQuwWsR2FAECBLorIMDq7m50RoAAgXYFBFiNeAuwGmHtTdF1562VCx73vtx7wzv1ZqahDCLAanHTAqwWsR1FgACB7goIsLq7G50RIECgXQEBViPeAqxGWHtVdNfN7p3P/dVxWW/e2r2aq+/DCLBa3LAAq0VsRxEgQKC7AgKs7u5GZwQIEGhXQIDViLcAqxHW3hV97J0edOsvE649d2HvZuvrQPt/9pX59A/P7+t43ZpLgNWtfeiGAAECYxIQYI0J3rEECBDonIAAq5GVCLAaYe1l0Zft8NT89eLDMuGh7kXsd49PHJTzf/7vRfRafJMCrOJXaAACBAjMhoAAazYU1SBAgEAfBARYjWxRgNUIay+LzpuYm9P3PipP3W7fjCof0bq+ZAFWixsSYLWI7SgCBAh0V8Cno+7uRmcECBBoV0CA1Yi3AKsR1t4WXThnfv7hoW/KzJ8UenVbQIDV4n4EWC1iO4oAAQLdFRBgdXc3OiNAgEC7AgKsRrwFWI2w9rrondfdKl/c/72507pb9nrO0ocTYLW4QQFWi9iOIkCAQHcFBFjd3Y3OCBAg0K6AAKsRbwFWI6y9L7rdelvn3MecmK3X2rT3s5Y6oACrxc0JsFrEdhQBAgS6KyDA6u5udEaAAIF2BQRYjXgLsBphHUTRJ9xl7/zDQyczbzR3EPOWNqQAq8WNCbBaxHYUAQIEuisgwOrubnRGgACBdgUEWI14C7AaYR1E0TmjiTz37o/KaXsdmVF8ZOva0gVYLW5EgNUitqMIECDQXQGfhrq7G50RIECgXQEBViPeAqxGWAdV9Pg9XprDt3/SoGYuYVgBVotbEmC1iO0oAgQIdFdAgNXd3eiMAAEC7QoIsBrxFmA1wjqoouvNWyuffdS7s9vm2w9q7q4PK8BqcUMCrBaxHUWAAIHuCgiwursbnREgQKBdAQFWI94CrEZYB1d04Zz5+ZfHnpIHbnKPwc3e1YEFWC1uRoDVIrajCBAg0F0BAVZ3d6MzAgQItCsgwGrEW4DVCOsgi95/k7vl0id8MBPVaJDzd21oAVaLGxFgtYjtBy/3fAAAIABJREFUKAIECHRXQIDV3d3ojAABAu0KCLAa8RZgNcI62KIP3XqnfGTfN2ejBesN1qArgwuwWtyEAKtFbEcRIECguwICrO7uRmcECBBoV0CA1Yi3AKsR1sEWnfng9tIdnpZjdzt8sAZdGVyA1eImBFgtYjuKAAEC3RUQYHV3NzojQIBAuwICrEa8BViNsA666JzRRI7f42V50b0enYlqYtAW4xxegNWivgCrRWxHESBAoLsCAqzu7kZnBAgQaFdAgNWItwCrEdbBF50/MS8f3e/oPGbbPQdvMS4AAVaL8gKsFrEdRYAAge4KCLC6uxudESBAoF0BAVYj3gKsRlgVTbLtOlvkrEcck/tutB2PMQgIsFpEF2C1iO0oAgQIdFdAgNXd3eiMAAEC7QoIsBrxFmA1wqro7wS2WnuTXPS492frtTdl0rKAAKtFcAFWi9iOIkCAQHcFBFjd3Y3OCBAg0K6AAKsRbwFWI6yK/k5g5oPcY+/04HzooZNZNGc+lxYFBFgtYguwWsR2FAECBLorIMDq7m50RoAAgXYFBFiNeAuwGmFV9PcEqlR58nb75MP7vikz/92rHQEBVjvOt54iwGoR21EECBDoroBPOd3djc4IECDQroAAqxFvAVYjrIr+kcDc0Zwcs/jQvPS+T2HTkoAAqyVoAVaL0I4iQIBAtwUEWN3ej+4IECDQnoAAqxFrAVYjrIrehsCc0UTO+avj8tCtHsinBQEBVgvI/3uEb2C1iO0oAgQIdFdAgNXd3eiMAAEC7QoIsBrxFmA1wqronxHYZOH6OfsR78yum92bUcMCAqyGgX+/vACrRWxHESBAoLsCAqzu7kZnBAgQaFdAgNWItwCrEVZF/4LAduttnW8+5UOZPzGPU4MCAqwGcf+4tACrRWxHESBAoLsCAqzu7kZnBAgQaFdAgNWItwCrEVZFb0dgn60fmA8/9E3ZZOEGrBoSEGA1BHtbZQVYLWI7igABAt0VEGB1dzc6I0CAQLsCAqxGvAVYjbAquhICL9vhaXnX4sNSVT7urQTXKr9FgLXKZKt/gQBr9e1cSYAAgR4J+ETTo2UahQABAmskIMBaI74/d7EAqxFWRVdCYE41kTfv/MK88n7PyMwD3r1mV0CANbuef7GaAKtFbEcRIECguwICrO7uRmcECBBoV0CA1Yi3AKsRVkVXUmDhnPn56L5vyf7b7r6SV3jbygoIsFZWahbeJ8CaBUQlCBAgUL6AAKv8HZqAAAECsyMgwJodxz+qIsBqhFXRVRDYcq2Nc+Z+b81um2+/Cld56+0JCLBuT2gW/3cB1ixiKkWAAIFyBQRY5e5O5wQIEJhdAQHW7Hr+rpoAqxFWRVdRYNt1tsh5jzkpd1xn81W80tv/nIAAq8V7Q4DVIrajCBAg0F0BAVZ3d6MzAgQItCsgwGrEW4DVCKuiqyhQpcp+2+ycf3zY27PW3AWreLW335aAAKvF+0KA1SK2owgQINBdAQFWd3ejMwIECLQrIMBqxFuA1Qiroqsp8NS7PjRn7P26zJ+Yt5oVXPa/AgKsFu8FAVaL2I4iQIBAdwUEWN3djc4IECDQroAAqxFvAVYjrIqupsCCiXk5eucX5RX3e/pqVnCZAGsM94AAawzojiRAgED3BARY3duJjggQIDAeAQFWI+4CrEZYFV1DgX982Nvy2Ds9OKPKR8HVpfQNrNWVW43rBFirgeYSAgQI9E/Ap5b+7dREBAgQWD0BAdbqud3OVQKsRlgVXUOBzRdtlLMf+dfZaZN7rmGl4V4uwGpx9wKsFrEdRYAAge4KCLC6uxudESBAoF0BAVYj3gKsRlgVnQWBmV8kPP9xp2WrtTaZhWrDKyHAanHnAqwWsR1FgACB7goIsLq7G50RIECgXQEBViPeAqxGWBWdJYGHbLVjztzvrdlwwbqzVHE4ZQRYLe5agNUitqMIECDQXQEBVnd3ozMCBAi0KyDAasRbgNUIq6KzKHDofZ6QY3c73C8TrqKpAGsVwdbk7QKsNdFzLQECBHojIMDqzSoNQoAAgTUUEGCtIeBtXy7AaoRV0VkUmHmQ++t2PCCvf+ABmVNNzGLlfpcSYLW4XwFWi9iOIkCAQHcFBFjd3Y3OCBAg0K6AAKsR7/222SWf/6vjGqk97qJ/e9U5ec6Xjx53G86fBYG15y7MPzz0TfmrbfeID4crB7rHJw7M+T+/YuXe7F1rJiDAWjM/VxMgQKAnAj6j9GSRxiBAgMAaCwiw1pjwtgo8YJO75/Innt5I7XEXPfGKj+fwr7173G04f5YENpy/bs582Fsz81wsr78ssGx6eWa+gXXpNd9G1YaAAKsNZWcQIECg8wICrM6vSIMECBBoSUCA1Qj03de/Qy574umZ+YZL316vv+R9ecvlZ/RtrEHPc88Nts1nH3Vstl1ni0E73N7w1y/9Tfb85EH51nU/uL23+t9nQ0CANRuKahAgQKB4AQFW8Ss0AAECBGZJQIA1S5B/WGabtTfLBY87LVuvvWkj9cdZ9FlfelM+9N3Pj7MFZzcgsHjz7XPOo47NevPWbqB6P0r+129+lgd98pD8+Mar+zFQ16cQYHV9Q/ojQIBAKwICrFaYHUKAAIECBARYjSxpg/nr5kuPPj733/hujdQfZ9H7fuxZueKX/zHOFpzdkMAz7/awvH+v12TBxLyGTii77GXXfid7n3VYblx+c9mDlNK9AKuUTemTAAECjQoIsBrlVZwAAQIFCQiwGlnWRDWRTzz87dl/2z0aqT+uojcsvTGbnPHILJ9eMa4WnNugwLyJuXnDAw/IUQ94boOnlFv69O98Js8/962pyx2hrM4FWGXtS7cECBBoSECA1RCssgQIEChOQIDV2MpevsPT8q7dDm+s/jgKf/A7n87zz33bOI52ZosCf7vPG/KMuz4so8pHxt9nf+znjsxZP/hqi5sY+FECrIHfAMYnQIDAbwV8GnEnECBAgMBvBQRYjd0J2623db739I81Vr/twtP1dB581iH52s/+ve2jndeywKYLN8gX9n9vdthou5ZP7u5xP7vpF7nT3z8xS6eWdbfJvnUmwOrbRs1DgACB1RIQYK0Wm4sIECDQQwEBVqNL/cL+78m+W+/c6BltFf/ur36UPT55UK695VdtHemcMQpssWijnPuYkzLzi5pDf838yeCbL/tgJi/9wNAp2p1fgNWut9MIECDQUQEBVkcXoy0CBAi0LiDAapT84XfYNZ965Dszp5po9Jw2is88/+cF5709M9/E8hqGwF5bPSCffeSxWThn/jAG/jNTXnPL9dnn7MPzzev+c9AOrQ8vwGqd3IEECBDoooAAq4tb0RMBAgTGISDAalR9k4Ub5MuPPiH32fDOjZ7TdPHl01PZ45MH5pKrr2z6KPU7JvDcezwq79n9xVlv3tod66y9dj7+n+fmGV+czLKp5e0d6qSZh57sn4Mv/DQKAgQIEBi2gABr2Ps3PQECBP5PQIDV6N1QpcrL7/e0vHPxYY2e03TxD333c3nOl4/OdO3315q27lr9mQ+Nh23/xBy3+0syUY261l7j/dy8Ymnu+eGn5Uc3/rzxsxzwRwICLLcEAQIECHiIu3uAAAECBP6fgACr8ZthrbkLc9Hj31/st7Cuvvm6W5999f0bftK4lQO6KTATXB35gGflNfd/dtaeu7CbTTbQ1fLpFTnyopNz3Dc+0kB1JW9XQIB1u0TeQIAAgSEI+AbWELZsRgIECKyMgABrZZTW+D0zzxL6zCPflUVzFqxxrbYLHPuND+dVF57o21dtw3fsvKqqcuC9HpuT9nx5RgP5Jtal1347+559RG5YdlPHtjGQdgRYA1m0MQkQIPCXBQRY7hACBAgQ+K2AAKuVO2H+xLyc8qBX5oB7PKqV82brkEuv+fatD6/+zfKbZ6ukOgULzIRYz7zrw/K2XQ/K1mttWvAkt9/6f/3mZ3nkZ16Wb1//w9t/s3c0IyDAasZVVQIECBQmIMAqbGHaJUCAQGMCAqzGaP+48MyfXl3w+Pdl+w3v0tqZa3LQz2/+Zfb51BG58rofrEkZ1/ZQ4P6b3P3WHydYv6cPdp8JbB//udfkiz+5tIfbK2gkAVZBy9IqAQIEmhMQYDVnqzIBAgTKEhBgtbqv7Te6Sz79yHflDmtv1uq5q3rYkqllOegrf52//e45qT24fVX5BvH+jRasl/fu8ZI87a77ZZT+fLT81dLf5BUXnpjTv/OZTNfTg9hlZ4cUYHV2NRojQIBAmwL9+ZTRppqzCBAg0EcBAVarW535VcJdN7/Prd9eWTAxr9WzV/awZVPL84KvvCMfuupzqeNXB1fWbYjvmzuak4ffYdd8aJ83Zt15axVPcMvU0jz7S2/OP/7Hee79LmxTgNWFLeiBAAECYxcQYI19BRogQIBARwQEWGNZxH7b7JK/fcjrs9miDcdy/p87dOabV0ddfGpOuOLjmfkFNi8CKyNwnw3vfOuvFD522wcV+yuFM7+y+coLT8xZP/iq8Gpllt7GewRYbSg7gwABAp0XEGB1fkUaJECAQEsCAqyWoP/wmJlvYt19gzvkXx5zcjZZuMFYevjjQ29ZsTTP+fLR+fh/nuvPBjuxkbKamKhG2WWze+cf9p3MHdfeoqjmr/rVj/KIz7wsP/j1fxfVd++bFWD1fsUGJECAwMoICLBWRsl7CBAgMAQBAdZYt3zPDbbNsbsdkYffYZfMhFrjen39F9/L6y45Lef86MJMe+bVuNbQi3PnTczNs+728Dz77o/I4s3uk5k/M+zqa+Z5V8dfcWbe9Y1/yG+W+aXNzu1JgNW5lWiIAAEC4xAY3yfkcUzrTAIECBD48wICrLHfHTPfXHnl/Z+RN+/0wrH8y/4nf/CVHHDu2zLzL/NeBGZLYKKayO5b3Ccn7fmK3KeDv7z51Z99PY/73Gty3ZJf+5PB2Vr6bNcRYM22qHoECBAoUkCAVeTaNE2AAIEGBARYDaCuesmZb18t3vw+OXz7J+Xxd35w5o3mrnqRVbhi5uHsX/3vb9z67ZNP/OA837paBTtvXTWBW4OszbfP/tvukYfdYZdsP8Ywa9n08nz2hxfm77/7+Xzqh+dn6dSyVRvGu9sUWJK6ekwOveALbR7qLAIECBDonoAAq3s70REBAgTGIyDAGo/7Xzj1Xhtsm1MffGT23GKHRnr7+c3X5XnnvvXWPxf0ItC2wL02vFNee/9n56l33Tcz3z5s4zUT2H7ke1/MS89/b66+5bo2jnTGGgvUV6YePSOHXvD1NS6lAAECBAgULSDAKnp9midAgMAsCpy8+LIkO85iRaVmQWDOaCI7bXLPzPxa4YO3vH923vSeWWvuwtWqPFVP5xu/+F6+8rN/yz//+JKc+9N/zcyvDXoRGKfAOnMXZcdN75EdNrprdthou9x3o+1y1/W3ybpzF61xWzP3979d+91ccu2Vuejn38rXfv6N/OTGa9a4rgItCtQ5OlPXvjVHfH9pi6c6igABAgQ6KCDA6uBStESAAIGxCJy0+GkZ5e9Tj/EJ4mMZvKxDF81ZkIdu88A8+o57Zq+tHpCt19o0VXXbj32v6zrXLvlVLvz5FTnnRxfd+quCv152U1kD63awAvfe4E7ZbYv7ZqdN75kdNrxL7rze1r8NtaqZ//zhR9iZb1bN/OeaW67PN6/7z1x49Tfz5Z9elvN/doXnWpV9B92SedU984ILflj2GLonQIAAgdkQEGDNhqIaBAgQ6IPA8busm7mjr6XO9n0YZygzLJiYl/Xnr525f/SsrJlvW924/GaB1VBuhIHMudbcBVkwMT8zQe7vv25afktuWbE0t0z5kk6vboWqOivLr3mKb1/1aquGIUCAwGoLCLBWm86FBAgQ6KHASbsdkqo+Mbd+x8GLAAECBAiMTWAqmd4jh1x80dg6cDABAgQIdErAv6B0ah2aIUCAwJgFJvdakE2XHpfkRUnaearymEd2PAECBAh0TmBJ6rwkh154Wuc60xABAgQIjE1AgDU2egcTIECgowKn7bgoU3P/Lqkek2Sio11qiwABAgT6KFBlWer6uGy8zVF58plTfRzRTAQIECCwegICrNVzcxUBAgT6LXDM7utknelnJ3lVkjv0e1jTESBAgEA3BOrLU+dt2WSbs4RX3diILggQINAlAQFWl7ahFwIECHRNYObB7nOqk5Lq8UnW/DftuzaffggQIECgCwK/TKr35Jr93pbJyekuNKQHAgQIEOiegACrezvREQECBLolMLnXnGxyy66pqpf87s8K53SrQd0QIECAQJECdW5K6r9JPfW+HHrplalSFzmHpgkQIECgFQEBVivMDiFAgEAPBCYzyqaLn5C6PjZVtaXnY/Vgp0YgQIDAeASWp8oVmaoPyWEXXTyeFpxKgAABAqUJCLBK25h+CRAgMG6Bk3baPNXE05Pq1Uk2GXc7zidAgACBggTqfCtV3pZ6/tk59LwbC+pcqwQIECAwZgEB1pgX4HgCBAgUK3Dcnltk3oqTU2WfJOsUO4fGCRAgQKBZgZk/DaxzXaar/y/VvDcKrprlVp0AAQJ9FRBg9XWz5iJAgEAbArc+H2v5nsn0Ub8Lsto41RkECBAgUI7AiqQ+IyumT8wRl3yjnLZ1SoAAAQJdExBgdW0j+iFAgECpAift+txU1ev/519Utk2qUalj6JsAAQIEZkVgeTLz54L1S3PwRefNSkVFCBAgQGDQAgKsQa/f8AQIEJhlgZMetE2qZc/63fOx/FnhLPMqR4AAgSIE6vwkqV+fas5ZOeRr1xfRsyYJECBAoPMCAqzOr0iDBAgQKFDglF23TV0dn9z6fKxFBU6gZQIECBBYdYFfpqo/mhvXfVVe+YWbVv1yVxAgQIAAgT8vIMBydxAgQIBAMwLvXrwwi6qdMp23pKr3SB3/zGlGWlUCBAiMW2AqdT6Wqaljct2ib2XyvBXjbsj5BAgQINA/Af8y0b+dmogAAQLdEjh9rwW5+ZZDU40OS3LHRJDVrQXphgABAqstMJXkiv/5/+tvysEXnpWZXxv0IkCAAAECDQkIsBqCVZYAAQIE/kjgxN3umKp+fqq83J8VujsIECBQvMDPMp3XZe6ys3Pg5b8ofhoDECBAgEDnBQRYnV+RBgkQINAzgRN3fUBG1TGp68WpqrV6Np1xCBAg0HeBXyb5bOZOvzYvvPgnfR/WfAQIECDQHQEBVnd2oRMCBAgMR2DmzwpvWbJ36hyfqtpuOIOblAABAiUL1OdkavoN+eUl/5rJTJc8id4JECBAoDwBAVZ5O9MxAQIE+iPwpCdN5CE/fnXq6oWpcgcPeu/Pak1CgEBvBGYe0H5l6ul35rCL/643UxmEAAECBIoTEGAVtzINEyBAoGcCkxll4922STX9slTVET2bzjgECBAoWKBelrp6VeYs+3vPuSp4jVonQIBATwQEWD1ZpDEIECDQC4FTFu+c6eotqeq9ksztxUyGIECAQHkCv0nqs1JVr87BF/60vPZ1TIAAAQJ9FBBg9XGrZiJAgEDJAifttXYmlu6SqZyaKp6PVfIu9U6AQIkCX81UDs1mN1yVJ1+5rMQB9EyAAAEC/RQQYPVzr6YiQIBA+QIn7rxRRqNXJnl6Um1T/kAmIECAQKcFvpmqPjlX//pvMim46vSmNEeAAIGBCgiwBrp4YxMgQKAIgTpV3rf7Nlkx/cZUeU6SiSL61iQBAgTKEbgxdX105iz/oOdclbM0nRIgQGCIAgKsIW7dzAQIEChNYOZB75vu+rCkelWSxUnmlzaCfgkQINApgSq/yXR9TjJ6ew694Oud6k0zBAgQIEDgNgQEWG4LAgQIEChH4LQdF2XF3P0zqk5OnQ3LaVynBAgQ6JTANzNdvShzl16WAy9f3qnONEOAAAECBP6MgADLrUGAAAEC5Qkcv+cmmVh+ZKrqGUk2L28AHRMgQKB1gTrJd5L6A1m44OQccN6S1jtwIAECBAgQWAMBAdYa4LmUAAECBMYoMDk5ysZf2Caj+oQk+4+xE0cTIECgAIHpd2bFsnfmiH/7RZKZMMuLAAECBAgUJSDAKmpdmiVAgACBPxG49flYix+d5GVJ9kjin21uEwIECPxWYElSfyaj6XfkoEsug0KAAAECBEoW8CG/5O3pnQABAgT+T+DdixdmUR6b6ZyUZAM0BAgQGLjAD1Pn6bn2hssyeeWygVsYnwABAgR6ICDA6sESjUCAAAECvydw/G53ycT0EamqZyYe9O7eIEBgcAL/lTqnZc6yU3Lg5TcMbnoDEyBAgEBvBQRYvV2twQgQIDBggZk/K9xkp61SzTkjyUMGLGF0AgSGIzCVqj4tv554dY48/0bPuRrO4k1KgACBoQgIsIayaXMSIEBgiAKn77UgNy95QkbVoUl2Tp2JITKYmQCBHgtUmfnzwHOS6vhstNVX8uQzp3o8rdEIECBAYMACAqwBL9/oBAgQGIzA8Y+Yn9GvDs4of51k7mDmNigBAv0WqHN1pusD8suLPp/JTPd7WNMRIECAwNAFBFhDvwPMT4AAgSEJnLz73ZOpFyd5elKtN6TRzUqAQK8EfpQ6H8i86fflhRdf3avJDEOAAAECBP6MgADLrUGAAAECwxM4cee7ZTRxdpK7D294ExMgULjApzOx7IAcePkvCp9D+wQIECBAYJUEBFirxOXNBAgQINAbgZk/K5y4/mmpqpcmuW9v5jIIAQL9E6jr6VTVF1LlPTn4ws/3b0ATESBAgACB2xcQYN2+kXcQIECAQN8FTl78hiSvTTK/76OajwCBggSq1KlzU5Ln5ZALzyyoc60SIECAAIFZFxBgzTqpggQIECBQoECVUxbfL6kPTqrnpM68AmfQMgEC/RK4IXWOzyin5eALf9qv0UxDgAABAgRWXUCAtepmriBAgACBPgucuue9MrXio6nqeyXVqM+jmo0AgQ4K1FmR1F/I1AZPyxHn/LqDHWqJAAECBAiMRUCANRZ2hxIgQIBApwWO22v9zFv6hFR5WZJ7dbpXzREg0CeB85L6uFyz4AuZPG9JnwYzCwECBAgQWFMBAdaaCrqeAAECBPorcNJeaydLjklVPTfJov4OajICBMYrUP8i1egNufqC0zKZ6fH24nQCBAgQINBNAQFWN/eiKwIECBDoksCpuz8w09NHJNWTk9qD3ru0G70QKFvguqQ6NXV9eg698Ptlj6J7AgQIECDQrIAAq1lf1QkQIECgTwInLt4no/r0pNoiyZw+jWYWAgRaFVia5N9T18/JoRd9u9WTHUaAAAECBAoVEGAVujhtEyBAgMCYBI673/pZsOBpqavXJ5kJsrwIECCwKgKXpq7fkXstODt7n7diVS70XgIECBAgMGQBAdaQt292AgQIEFh9gcm9FmTjJSdnVD0pydqrX8iVBAgMQKBOcn3q+t05b5t35MwzpwYwsxEJECBAgMCsCgiwZpVTMQIECBAYlMDHnjSRX/5419R5aVI9YVCzG5YAgZUVWJ46J2c6p+bwC7+zshd5HwECBAgQIPCHAgIsdwQBAgQIEJgNgVN33T/T1TuT+q5JNZqNkmoQIFC0wLIkl2Z6xYE57NJvFT2J5gkQIECAQAcEBFgdWIIWCBAgQKAnAsftuEXmz31iUr3G87F6slNjEFg9gW9mKm9OPf35HHHxr1evhKsIECBAgACB3xcQYLkfCBAgQIDAbAscv8vWmVO9J6n2TbLubJdXjwCBzgpck9SnZ+GCyRxw3pLOdqkxAgQIECBQoIAAq8ClaZkAAQIEChCY3GtONluyS6bzulTVfkn8WWEBa9MigdUUWJrUH8z0xEn5xfnfzmSmV7OOywgQIECAAIE/IyDAcmsQIECAAIEmBWaCrE1veVbq6vWpqjskmWjyOLUJEGhVYFlSX5Hp6sgcduGXk8z82qAXAQIECBAg0ICAAKsBVCUJECBAgMCfCJyw+5YZTT0zVfW6JOsQIkCgeIH/Sl2/Lr9Z/um8+vIbip/GAAQIECBAoOMCAqyOL0h7BAgQINAzgZP3uHMydWySfQRZPdutcYYicE2qfCxLbnl9Xvr1Xw1laHMSIECAAIFxCwiwxr0B5xMgQIDA8ASOf8T8TFy3WzJ6a6osHh6AiQkUKlDlw1k+dUyuu+QKz7kqdIfaJkCAAIFiBQRYxa5O4wQIECBQvMDk5Cibfu7QpDoiVe6SOv65XPxSDdA7gTorknw91dRkDrnkM72bz0AECBAgQKAQAR+UC1mUNgkQIECgpwIzodUHdtkqy6rnJ9WRqbKwp5Mai0B5AnWuTapXpV7xqRx2yS/LG0DHBAgQIECgPwICrP7s0iQECBAgULrAaYu3z1TenmTvJItKH0f/BAoWuD51/fFMzT0qR3z12oLn0DoBAgQIEOiNgACrN6s0CAECBAj0QuC0HRdlat5OSd6T5H69mMkQBMoRmE6dT2VF9bosWHpVDrx8eTmt65QAAQIECPRbQIDV7/2ajgABAgRKFThm93Wydn1Eqvp5Se6UeD5WqavUdxEC00m+kao6LlfP+3Amz5t57pUXAQIECBAg0CEBAVaHlqEVAgQIECDwJwIn7bRNMvHiVNWLk8whRIDArAtcn9SvzbzqY3nBhdfNenUFCRAgQIAAgVkREGDNCqMiBAgQIECgYYFTdt09dfWGJHt4PlbD1soPRWAmrPp06hydQy/8/lCGNicBAgQIEChVQIBV6ub0TYAAAQLDE3j34oWZN713RqP3JdlqeAAmJjBLAnUuTTV9cK5Z+A1/LjhLpsoQIECAAIGGBQRYDQMrT4AAAQIEZl1gcsdF2XTekanzvFTZetbrK0ignwJ1kiuS+oQcctEH+jmiqQgQIECAQH8FBFj93a3JCBAgQKDPApMZZatdNsny0VuTPL/Po5qNwKwI1PWRqea8P4d87fpZqacIAQIECBAg0KqAAKtVbocRIECAAIFZFqhT5aTFD8lEfWTq6qF+rXCWfZUrXeCW1PWSjLrBAAAdWElEQVQ/ZaJ+Uw66+HulD6N/AgQIECAwZAEB1pC3b3YCBAgQ6I/AzPOxFo32yNT0GamyZX8GMwmB1RSo8q9ZPudZue6X38/klctWs4rLCBAgQIAAgY4ICLA6sghtECBAgACBWRE4ZfFWma6OSFU/MxFkzYqpIqUJXPk/P3Lw/qx90/vz7H+/qbTm9UuAAAECBAjctoAAy51BgAABAgT6JjDzZ4Un7LJVJqrjU1WP69t45iFwmwJVPfMtq3fmhuXvzKsvv4ESAQIECBAg0C8BAVa/9mkaAgQIECDwfwIzD3rfdPGjk/qIpNojyVw8BHoocFNSfTrT08flsIsuSTLza4NeBAgQIECAQM8EBFg9W6hxCBAgQIDAnwgcv938TGzylP95Ntb7kswnRKA3AnX940xNPCObb3lBnnzmVG/mMggBAgQIECDwJwICLDcFAQIECBAYisAJu2+Z0dTLUlUHJNlwKGObs5cC309VnZrpeafl0PNu7OWEhiJAgAABAgT+QECA5YYgQIAAAQJDEph5PtZ79tw881d8OMmDhzS6WXsiUNfvz4KJl+f55/+mJxMZgwABAgQIEFgJAQHWSiB5CwECBAgQ6J3AaTvOzfK5j0tVvSRVFvduPgP1TWAqdc5ONXVcDrnkq30bzjwECBAgQIDA7QsIsG7fyDsIECBAgECfBaqcvOvzU+c9qaq1+jyo2UoVqH+eun5SDr34a6VOoG8CBAgQIEBgzQUEWGtuqAIBAgQIEChf4KRd75lRdWDqPDfJeuUPZILiBer8JHV9SiZGH8jBF1xT/DwGIECAAAECBNZIQIC1RnwuJkCAAAECPRM4eY87p576WKo8IInPCT1bbyHjTCX1mblp3RfklV+4qZCetUmAAAECBAg0LOCDacPAyhMgQIAAgeIETttxUabmPz51/eJU2VGQVdwGy2y4zopU+Vzq6oTMWXpuDrx8eZmD6JoAAQIECBBoQkCA1YSqmgQIECBAoA8Cx283PxMbvyZV9eok8/swkhk6KVCnqn+Z6YnDcuj5H0tSd7JLTREgQIAAAQJjFRBgjZXf4QQIECBAoACBE3e/d0bThyV5TpKFBXSsxXIErkmqEzJVfTCHn//f5bStUwIECBAgQKBtAQFW2+LOI0CAAAECpQqcuscOmZ76cJK7JplT6hj67oTAsiT/kqnRcwRXndiHJggQIECAQOcFBFidX5EGCRAgQIBAhwSO2X2drFM/MZl+TVLNBFleBFZNoK7PTTU6Nhtv9bk8+cypVbvYuwkQIECAAIGhCgiwhrp5cxMgQIAAgTUReNKTJrL3T96e5MAk665JKdcOQmDmuVbXJvVROeSiDwxiYkMSIECAAAECsyogwJpVTsUIECBAgMCABCYnR9nonx+Q0dShqapn+rPCAe1+VUat65tS5bhMTX8wh1/yg1W51HsJECBAgAABAv8rIMByLxAgQIAAAQJrLnDy7nsmU6cm1d2TTKx5QRV6IPDb51zVK56XQy/9cQ/mMQIBAgQIECAwRgEB1hjxHU2AAAECBHolcOLOG6WaeGyqvDrJdr2azTCrKnBB6vodmbP8Sznw8ptX9WLvJ0CAAAECBAj8sYAAyz1BgAABAgQIzK7ATJA1mjguyaOTrDe7xVXrtECdq1PlvbnmhmMzeeXMN7C8CBAgQIAAAQKzIiDAmhVGRQgQIECAAIE/EThl8c6Zrl+eqnqCPyvs/f1xY6qcmGr6gzno4u/1floDEiBAgAABAq0LCLBaJ3cgAQIECBAYmMDJix+b5NjUuUOqzBnY9H0fd0mSKzIaHZKDzr+s78OajwABAgQIEBifgABrfPZOJkCAAAECwxF4144bZ615T01dHZ3U6w9n8F5PelXq6nVZNO/TOeC8mSDLiwABAgQIECDQmIAAqzFahQkQIECAAIE/EThur/Uzf+l7k8x8K2tdQoUJVKlT1zPPufqbXH3RGzKZ6cIm0C4BAgQIECBQqIAAq9DFaZsAAQIECBQrMHmvedl0nQekrl6fqnpksXMMsfGqPjkrqhNy2IVXZSbM8iJAgAABAgQItCQgwGoJ2jEECBAgQIDAHwlMZpRNd3t66vqojHL31PG5pJs3yfIklyTTr8ghF1/UzRZ1RYAAAQIECPRdwAfFvm/YfAQIECBAoOsCp+25RaannpS6fkOSjbre7sD6+49U1ZFZMu9Leel5vxrY7MYlQIAAAQIEOiQgwOrQMrRCgAABAgQGLXDqLnfN1OiYVHlIkvUGbTHu4etcndQfTTVnMod87fpxt+N8AgQIECBAgIAAyz1AgAABAgQIdEfgtB3nZtncnTNRvT3Jnt1pbDCdrEjqv0udd+bai67ykPbB7N2gBAgQIECg8wICrM6vSIMECBAgQGCAAjMPet9kvRelqg9Psl1SjQao0N7IVZalzjdS10fn2os+I7hqj95JBAgQIECAwMoJCLBWzsm7CBAgQIAAgXEInLD7lhlNvTBVdVSSueNoYQBnXpO6OjJzln4iB15+wwDmNSIBAgQIECBQoIAAq8ClaZkAAQIECAxO4NRd7pWp0VuSer9U1VqDm7+Zga9J8k+pqjfm4Atm/rsXAQIECBAgQKCzAgKszq5GYwQIECBAgMAfCJy+14LctGznjHJ8Uu9AZw0E6nwmo+rV2Wirb+fJZ06tQSWXEiBAgAABAgRaERBgtcLsEAIECBAgQGDWBCb3WpCNlx6eiRyYOneZtbr9LzSdOpcn9bE59KKP9n9cExIgQIAAAQJ9EhBg9WmbZiFAgAABAkMRqFPl5J02SzXxkqR6SZL5Qxl9Nee8IaO8PNMT/5RDvnb9atZwGQECBAgQIEBgbAICrLHRO5gAAQIECBCYBYEqJy1enFFekzoPTbJgFmr2qET1q6T+x0xNvTWHX/KDHg1mFAIECBAgQGBgAgKsgS3cuAQIECBAoJcCM8/HumXpLqnzgVTZrpczrspQVerU+VKmcnjmLfuPHHj58lW53HsJECBAgAABAl0TEGB1bSP6IUCAAAECBFZf4OQ9Nki94oikek5G2TYzf2o4rNd0qnw90/Wpmdrgb3PEOUuHNb5pCRAgQIAAgb4KDO1DXV/3aC4CBAgQIEDg/wSqnLD7FhlNH50qzxsQzC2p68nMWX5aDrz8hgHNbVQCBAgQIEBgAAICrAEs2YgECBAgQGCwAqfs9pDU069IVe2TOvN66jATVp2V0fQxOejiK3s6o7EIECBAgACBgQsIsAZ+AxifAAECBAj0XuD4R8zP3F/tm+n8Xaqs36t5q3wnU/Uz8osF/57J81b0ajbDECBAgAABAgR+T0CA5XYgQIAAAQIEhiEw83ysrHhZ6uqFqbJZ2UPXV6bKibnHgvdnb8FV2bvUPQECBAgQILAyAgKslVHyHgIECBAgQKAfAjMPdX/fjutmxbz3ZZQnFfiQ9+kkb8mSvCMvu3BJkrofizEFAQIECBAgQOAvCwiw3CEECBAgQIDA8AQm95qTTZY8IqlenCr7dB6gzoqk+miqqeNyyMWXd75fDRIgQIAAAQIEZllAgDXLoMoRIECAAAECBQnMBFkbLXlkJqozkmzQyc5vfc7V6In5xfnfzmRmvoHlRYAAAQIECBAYnIAAa3ArNzABAgQIECDwJwKn7Lpt6hyUunpuh56PdVVSvy+Zc3oO+dr1tkaAAAECBAgQGLKAAGvI2zc7AQIECBAg8IcCpyzeKtPVR1LVe4yRZjp1fWquXf7KTF5+8xj7cDQBAgQIECBAoDMCAqzOrEIjBAgQIECAQCcEJjPKZrs8LhkdkTozQdaopb6WJjk7Vf3eHHzRBR7Q3pK6YwgQIECAAIEiBARYRaxJkwQIECBAgEDrAjNB1ia7HJRqdHySiQbPn/ltxOtT10/JIRd9scFzlCZAgAABAgQIFCsgwCp2dRonQIAAAQIEWhE4Yec7ZTQ6PKlelCprzfKZP02d96Sa+BvPuZplWeUIECBAgACBXgkIsHq1TsMQIECAAAECjQmcsPuWGU1/PFV2noVvZC1PlY9ntOwFOdBzrhrbmcIECBAgQIBAbwQEWL1ZpUEIECBAgACBxgVO23FRVsx7TFK/PFW14+qdV5+deuI9uXbfr2Rycnr1ariKAAECBAgQIDAsAQHWsPZtWgIECBAgQGA2BCYnR9nsc69IqtemznorUXLmOVc/zdT0YTns4rNW4v3eQoAAAQIECBAg8HsCAiy3AwECBAgQIEBgdQRmIqlTd7t36vo5qfP0VNnyNsvU+VaSMzI1/ZEccfFPVuco1xAgQIAAAQIEhi4gwBr6HWB+AgQIECBAYHYETtx1l2S0S6rcJZlenqr6bjL6Sg45/6rZOUAVAgQIECBAgMBwBQRYw929yQkQIECAAAECBAgQIECAAAECRQgIsIpYkyYJECBAgAABAgQIECBAgAABAsMVEGANd/cmJ0CAAAECBAgQIECAAAECBAgUISDAKmJNmiRAgAABAgQIECBAgAABAgQIDFdAgDXc3ZucAAECBAgQIECAAAECBAgQIFCEgACriDVpkgABAgQIECBAgAABAgQIECAwXAEB1nB3b3ICBAgQIECAAAECBAgQIECAQBECAqwi1qRJAgQIECBAgAABAgQIECBAgMBwBQRYw929yQkQIECAAAECBAgQIECAAAECRQgIsIpYkyYJECBAgAABAgQIECBAgAABAsMVEGANd/cmJ0CAAAECBAgQIECAAAECBAgUISDAKmJNmiRAgAABAgQIECBAgAABAgQIDFdAgDXc3ZucAAECBAgQIECAAAECBAgQIFCEgACriDVpkgABAgQIECBAgAABAgQIECAwXAEB1nB3b3ICBAgQIECAAAECBAgQIECAQBECAqwi1qRJAgQIECBAgAABAgQIECBAgMBwBQRYw929yQkQIECAAAECBAgQIECAAAECRQgIsIpYkyYJECBAgAABAgQIECBAgAABAsMVEGANd/cmJ0CAAAECBAgQIECAAAECBAgUISDAKmJNmiRAgAABAgQIECBAgAABAgQIDFdAgDXc3ZucAAECBAgQIECAAAECBAgQIFCEgACriDVpkgABAgQIECBAgAABAgQIECAwXAEB1nB3b3ICBAgQIECAAAECBAgQIECAQBECAqwi1qRJAgQIECBAgAABAgQIECBAgMBwBQRYw929yQkQIECAAAECBAgQIECAAAECRQgIsIpYkyYJECBAgAABAgQIECBAgAABAsMVEGANd/cmJ0CAAAECBAgQIECAAAECBAgUISDAKmJNmiRAgAABAgQIECBAgAABAgQIDFdAgDXc3ZucAAECBAgQIECAAAECBAgQIFCEgACriDVpkgABAgQIECBAgAABAgQIECAwXAEB1nB3b3ICBAgQIECAAAECBAgQIECAQBECAqwi1qRJAgQIECBAgAABAgQIECBAgMBwBQRYw929yQkQIECAAAECBAgQIECAAAECRQgIsIpYkyYJECBAgAABAgQIECBAgAABAsMVEGANd/cmJ0CAAAECBAgQIECAAAECBAgUISDAKmJNmiRAgAABAgQIECBAgAABAgQIDFdAgDXc3ZucAAECBAgQIECAAAECBAgQIFCEgACriDVpkgABAgQIECBAgAABAgQIECAwXAEB1nB3b3ICBAgQIECAAAECBAgQIECAQBECAqwi1qRJAgQIECBAgAABAgQIECBAgMBwBQRYw929yQkQIECAAAECBAgQIECAAAECRQgIsIpYkyYJECBAgAABAgQIECBAgAABAsMVEGANd/cmJ0CAAAECBAgQIECAAAECBAgUISDAKmJNmiRAgAABAgQIECBAgAABAgQIDFdAgDXc3ZucAAECBAgQIECAAAECBAgQIFCEgACriDVpkgABAgQIECBAgAABAgQIECAwXAEB1nB3b3ICBAgQIECAAAECBAgQIECAQBECAqwi1qRJAgQIECBAgAABAgQIECBAgMBwBQRYw929yQkQIECAAAECBAgQIECAAAECRQgIsIpYkyYJECBAgAABAgQIECBAgAABAsMVEGANd/cmJ0CAAAECBAgQIECAAAECBAgUISDAKmJNmiRAgAABAgQIECBAgAABAgQIDFdAgDXc3ZucAAECBAgQIECAAAECBAgQIFCEgACriDVpkgABAgQIECBAgAABAgQIECAwXAEB1nB3b3ICBAgQIECAAAECBAgQIECAQBECAqwi1qRJAgQIECBAgAABAgQIECBAgMBwBQRYw929yQkQIECAAAECBAgQIECAAAECRQgIsIpYkyYJECBAgAABAgQIECBAgAABAsMVEGANd/cmJ0CAAAECBAgQIECAAAECBAgUISDAKmJNmiRAgAABAgQIECBAgAABAgQIDFdAgDXc3ZucAAECBAgQIECAAAECBAgQIFCEgACriDVpkgABAgQIECBAgAABAgQIECAwXAEB1nB3b3ICBAgQIECAAAECBAgQIECAQBECAqwi1qRJAgQIECBAgAABAgQIECBAgMBwBQRYw929yQkQIECAAAECBAgQIECAAAECRQgIsIpYkyYJECBAgAABAgQIECBAgAABAsMVEGANd/cmJ0CAAAECBAgQIECAAAECBAgUISDAKmJNmiRAgAABAgQIECBAgAABAgQIDFdAgDXc3ZucAAECBAgQIECAAAECBAgQIFCEgACriDVpkgABAgQIECBAgAABAgQIECAwXAEB1nB3b3ICBAgQIECAAAECBAgQIECAQBECAqwi1qRJAgQIECBAgAABAgQIECBAgMBwBQRYw929yQkQIECAAAECBAgQIECAAAECRQgIsIpYkyYJECBAgAABAgQIECBAgAABAsMVEGANd/cmJ0CAAAECBAgQIECAAAECBAgUISDAKmJNmiRAgAABAgQIECBAgAABAgQIDFdAgDXc3ZucAAECBAgQIECAAAECBAgQIFCEgACriDVpkgABAgQIECBAgAABAgQIECAwXAEB1nB3b3ICBAgQIECAAAECBAgQIECAQBECAqwi1qRJAgQIECBAgAABAgQIECBAgMBwBQRYw929yQkQIECAAAECBAgQIECAAAECRQgIsIpYkyYJECBAgAABAgQIECBAgAABAsMVEGANd/cmJ0CAAAECBAgQIECAAAECBAgUISDAKmJNmiRAgAABAgQIECBAgAABAgQIDFdAgDXc3ZucAAECBAgQIECAAAECBAgQIFCEgACriDVpkgABAgQIECBAgAABAgQIECAwXAEB1nB3b3ICBAgQIECAAAECBAgQIECAQBECAqwi1qRJAgQIECBAgAABAgQIECBAgMBwBQRYw929yQkQIECAAAECBAgQIECAAAECRQgIsIpYkyYJECBAgAABAgQIECBAgAABAsMVEGANd/cmJ0CAAAECBAgQIECAAAECBAgUISDAKmJNmiRAgAABAgQIECBAgAABAgQIDFdAgDXc3ZucAAECBAgQIECAAAECBAgQIFCEgACriDVpkgABAgQIECBAgAABAgQIECAwXAEB1nB3b3ICBAgQIECAAAECBAgQIECAQBECAqwi1qRJAgQIECBAgAABAgQIECBAgMBwBQRYw929yQkQIECAAAECBAgQIECAAAECRQgIsIpYkyYJECBAgAABAgQIECBAgAABAsMVEGANd/cmJ0CAAAECBAgQIECAAAECBAgUISDAKmJNmiRAgAABAgQIECBAgAABAgQIDFdAgDXc3ZucAAECBAgQIECAAAECBAgQIFCEgACriDVpkgABAgQIECBAgAABAgQIECAwXAEB1nB3b3ICBAgQIECAAAECBAgQIECAQBECAqwi1qRJAgQIECBAgAABAgQIECBAgMBwBQRYw929yQkQIECAAAECBAgQIECAAAECRQgIsIpYkyYJECBAgAABAgQIECBAgAABAsMVEGANd/cmJ0CAAAECBAgQIECAAAECBAgUISDAKmJNmiRAgAABAgQIECBAgAABAgQIDFdAgDXc3ZucAAECBAgQIECAAAECBAgQIFCEgACriDVpkgABAgQIECBAgAABAgQIECAwXAEB1nB3b3ICBAgQIECAAAECBAgQIECAQBECAqwi1qRJAgQIECBAgAABAgQIECBAgMBwBQRYw929yQkQIECAAAECBAgQIECAAAECRQgIsIpYkyYJECBAgAABAgQIECBAgAABAsMVEGANd/cmJ0CAAAECBAgQIECAAAECBAgUISDAKmJNmiRAgAABAgQIECBAgAABAgQIDFdAgDXc3ZucAAECBAgQIECAAAECBAgQIFCEgACriDVpkgABAgQIECBAgAABAgQIECAwXAEB1nB3b3ICBAgQIECAAAECBAgQIECAQBECAqwi1qRJAgQIECBAgAABAgQIECBAgMBwBQRYw929yQkQIECAAAECBAgQIECAAAECRQgIsIpYkyYJECBAgAABAgQIECBAgAABAsMVEGANd/cmJ0CAAAECBAgQIECAAAECBAgUISDAKmJNmiRAgAABAgQIECBAgAABAgQIDFdAgDXc3ZucAAECBAgQIECAAAECBAgQIFCEgACriDVpkgABAgQIECBAgAABAgQIECAwXAEB1nB3b3ICBAgQIECAAAECBAgQIECAQBECAqwi1qRJAgQIECBAgAABAgQIECBAgMBwBQRYw929yQkQIECAAAECBAgQIECAAAECRQgIsIpYkyYJECBAgAABAgQIECBAgAABAsMVEGANd/cmJ0CAAAECBAgQIECAAAECBAgUISDAKmJNmiRAgAABAgQIECBAgAABAgQIDFdAgDXc3ZucAAECBAgQIECAAAECBAgQIFCEgACriDVpkgABAgQIECBAgAABAgQIECAwXAEB1nB3b3ICBAgQIECAAAECBAgQIECAQBECAqwi1qRJAgQIECBAgAABAgQIECBAgMBwBQRYw929yQkQIECAAAECBAgQIECAAAECRQgIsIpYkyYJECBAgAABAgQIECBAgAABAsMVEGANd/cmJ0CAAAECBAgQIECAAAECBAgUISDAKmJNmiRAgAABAgQIECBAgAABAgQIDFdAgDXc3ZucAAECBAgQIECAAAECBAgQIFCEgACriDVpkgABAgQIECBAgAABAgQIECAwXAEB1nB3b3ICBAgQIECAAAECBAgQIECAQBECAqwi1qRJAgQIECBAgAABAgQIECBAgMBwBQRYw929yQkQIECAAAECBAgQIECAAAECRQgIsIpYkyYJECBAgAABAgQIECBAgAABAsMVEGANd/cmJ0CAAAECBAgQIECAAAECBAgUISDAKmJNmiRAgAABAgQIECBAgAABAgQIDFdAgDXc3ZucAAECBAgQIECAAAECBAgQIFCEgACriDVpkgABAgQIECBAgAABAgQIECAwXAEB1nB3b3ICBAgQIECAAAECBAgQIECAQBECAqwi1qRJAgQIECBAgAABAgQIECBAgMBwBQRYw929yQkQIECAAAECBAgQIECAAAECRQgIsIpYkyYJECBAgAABAgQIECBAgAABAsMVEGANd/cmJ0CAAAECBAgQIECAAAECBAgUISDAKmJNmiRAgAABAgQIECBAgAABAgQIDFdAgDXc3ZucAAECBAgQIECAAAECBAgQIFCEgACriDVpkgABAgQIECBAgAABAgQIECAwXAEB1nB3b3ICBAgQIECAAAECBAgQIECAQBECAqwi1qRJAgQIECBAgAABAgQIECBAgMBwBQRYw929yQkQIECAAAECBAgQIECAAAECRQgIsIpYkyYJECBAgAABAgQIECBAgAABAsMVEGANd/cmJ0CAAAECBAgQIECAAAECBAgUISDAKmJNmiRAgAABAgQIECBAgAABAgQIDFdAgDXc3ZucAAECBAgQIECAAAECBAgQIFCEgACriDVpkgABAgQIECBAgAABAgQIECAwXAEB1nB3b3ICBAgQIECAAAECBAgQIECAQBECAqwi1qRJAgQIECBAgAABAgQIECBAgMBwBQRYw929yQkQIECAAAECBAgQIECAAAECRQj8/xVyCPy3OLM6AAAAAElFTkSuQmCC;" vertex="1" parent="h4-jVqhsriTU1_VaayF0-16">
          <mxGeometry x="96.55172413793106" y="70" width="101.11862068965517" height="69.51724137931033" as="geometry" />
        </mxCell>
        <mxCell id="h4-jVqhsriTU1_VaayF0-20" value="" style="shape=image;verticalLabelPosition=bottom;labelBackgroundColor=default;verticalAlign=top;aspect=fixed;imageAspect=0;image=https://muratozcelik.com.tr/wp-content/uploads/2020/05/Keepalived-LOGO.png;" vertex="1" parent="h4-jVqhsriTU1_VaayF0-16">
          <mxGeometry x="27.586206896551726" y="51.770833333333336" width="71.55641379310345" height="36.206896551724135" as="geometry" />
        </mxCell>
        <mxCell id="h4-jVqhsriTU1_VaayF0-21" value="192.168.234.102" style="rounded=1;whiteSpace=wrap;html=1;fillStyle=auto;fillColor=#dae8fc;strokeColor=#6c8ebf;" vertex="1" parent="h4-jVqhsriTU1_VaayF0-16">
          <mxGeometry x="11.645172413793105" y="110.00333333333333" width="103.44827586206897" height="17.5" as="geometry" />
        </mxCell>
        <mxCell id="h4-jVqhsriTU1_VaayF0-37" value="" style="shape=flexArrow;endArrow=classic;startArrow=classic;html=1;rounded=0;exitX=0.5;exitY=0;exitDx=0;exitDy=0;entryX=0.5;entryY=1;entryDx=0;entryDy=0;" edge="1" parent="21_gmykhIOu26JGh-Btz-1" source="h4-jVqhsriTU1_VaayF0-20" target="h4-jVqhsriTU1_VaayF0-2">
          <mxGeometry width="100" height="100" relative="1" as="geometry">
            <mxPoint x="580" y="205" as="sourcePoint" />
            <mxPoint x="680" y="105" as="targetPoint" />
          </mxGeometry>
        </mxCell>
        <mxCell id="h4-jVqhsriTU1_VaayF0-38" value="VIP" style="text;html=1;align=center;verticalAlign=middle;resizable=0;points=[];autosize=1;strokeColor=none;fillColor=none;" vertex="1" parent="21_gmykhIOu26JGh-Btz-1">
          <mxGeometry x="330" y="407.5" width="40" height="30" as="geometry" />
        </mxCell>
      </root>
    </mxGraphModel>
  </diagram>
</mxfile>
